<?xml version="1.0" standalone="no"?>
<!DOCTYPE svg PUBLIC "-//W3C//DTD SVG 1.1//EN" "http://www.w3.org/Graphics/SVG/1.1/DTD/svg11.dtd" >
<svg>
<metadata>
Created by FontForge 20090622 at Thu Sep 12 09:20:06 2019
 By deploy user
&#194;&#169; 2008 Adobe Systems Incorporated. All Rights Reserved.
</metadata>
<defs>
<font id="Zeitung-Regular" horiz-adv-x="530" >
  <font-face 
    font-family="Zeitung"
    font-weight="400"
    font-stretch="normal"
    units-per-em="1000"
    panose-1="2 11 5 3 2 4 4 2 2 4"
    ascent="750"
    descent="-250"
    x-height="486"
    cap-height="661"
    bbox="-162 -236 1011 871"
    underline-thickness="50"
    underline-position="-50"
    unicode-range="U+0020-U+20AC"
  />
<missing-glyph horiz-adv-x="500" 
d="M0 0v700h500v-700h-500zM80 50h340l-170 255zM279 350l171 -255v510zM50 605v-510l170 255zM80 650l170 -255l170 255h-340z" />
    <glyph glyph-name="T_h" unicode="Th" horiz-adv-x="1036" 
d="M222 7v578h-213q-6 0 -5 7l11 67q1 6 8 6h493q7 0 8 -7v-66q2 -7 -6 -7h-212v-577q0 -8 -7 -8h-69q-8 0 -8 7zM654 367v-361q0 -6 -6 -6h-71q-6 0 -6 7v704q0 6 6 6h71q6 0 6 -5v-274q64 58 149 58q29 0 55 -8.5t51.5 -28.5t40.5 -60t15 -96v-296q0 -7 -7 -7h-69
q-7 0 -7 8v286q0 59 -26.5 93.5t-77.5 34.5q-74 0 -124 -55z" />
    <glyph glyph-name="Tcaron_h" unicode="&#x164;h" horiz-adv-x="1036" 
d="M222 7v578h-213q-6 0 -5 7l11 67q1 6 8 6h493q7 0 8 -7v-66q2 -7 -6 -7h-212v-577q0 -8 -7 -8h-69q-8 0 -8 7zM654 367v-361q0 -6 -6 -6h-71q-6 0 -6 7v704q0 6 6 6h71q6 0 6 -5v-274q64 58 149 58q29 0 55 -8.5t51.5 -28.5t40.5 -60t15 -96v-296q0 -7 -7 -7h-69
q-7 0 -7 8v286q0 59 -26.5 93.5t-77.5 34.5q-74 0 -124 -55zM172 837l74 -75l72 75q5 5 9 5h65q2 0 3 -3t-1 -5l-108 -111q-2 -3 -7 -3h-68q-9 0 -10 4l-112 113q-5 5 3 5h70q7 0 10 -5z" />
    <glyph glyph-name="f_b" unicode="fb" horiz-adv-x="790" 
d="M79 414h-65q-5 0 -5 7v59q0 6 5 6h65v44q0 78 22 122q37 75 129 75q30 0 45 -6q5 -3 5 -8v-61q0 -6 -6 -5q-14 6 -36 6q-37 0 -56.5 -25.5t-19.5 -92.5v-49h96q6 0 6 -5v-60q0 -5 -6 -7h-96v-407q0 -7 -6 -7h-71q-6 0 -6 7v407zM341 717h70q7 0 7 -6v-235q49 20 108 20
q102 0 165.5 -66t63.5 -168q0 -128 -82 -200t-196 -72q-74 0 -137 20q-5 2 -5 9v692q0 6 6 6zM669 255q1 77 -41.5 122.5t-114.5 45.5q-53 0 -95 -17v-336q27 -8 66 -8q77 0 131 50.5t54 142.5z" />
    <glyph glyph-name="f_f" unicode="ff" horiz-adv-x="508" 
d="M9 419v62q0 5 5 5h65v44q0 78 22 122q39 75 129 75q32 0 45 -6q5 -3 5 -8v-61q0 -6 -6 -5q-14 6 -36 6q-37 0 -56.5 -25.5t-19.5 -92.5v-49h172v53q1 98 42.5 143t107.5 45q35 0 51 -8q4 -2 4 -8v-59q0 -7 -6 -5q-15 6 -38 6q-16 0 -27.5 -3.5t-24 -14.5t-19 -35.5
t-6.5 -62.5v-51h96q6 0 6 -5v-60q0 -7 -6 -7h-96v-407q0 -7 -6 -7h-71q-6 0 -6 7v407h-173v-407q0 -7 -6 -7h-71q-6 0 -6 7v407h-66q-4 0 -4 5z" />
    <glyph glyph-name="f_h" unicode="fh" horiz-adv-x="800" 
d="M79 414h-65q-5 0 -5 7v59q0 6 5 6h65v44q0 78 22 122q39 75 129 75q32 0 45 -6q5 -3 5 -8v-61q0 -6 -6 -5q-14 6 -36 6q-37 0 -56.5 -25.5t-19.5 -92.5v-49h96q6 0 6 -5v-60q0 -5 -6 -7h-96v-407q0 -7 -6 -7h-71q-6 0 -6 7v407zM417 367v-361q0 -6 -6 -6h-71q-6 0 -6 7
v704q0 6 6 6h72q5 0 5 -5l1 -274q63 58 148 58q30 0 56 -8.5t51.5 -28.5t40.5 -60t15 -96v-296q0 -7 -7 -7h-70q-7 0 -7 8v286q0 60 -26 94t-78 34q-74 0 -124 -55z" />
    <glyph glyph-name="f_i" unicode="fi" horiz-adv-x="488" 
d="M335 8v471q0 7 6 7h71q7 0 7 -6v-473q0 -7 -7 -7h-69q-8 0 -8 8zM377 583q-22 0 -35.5 13.5t-13.5 35.5t13.5 36t35.5 14q23 0 36 -14t13 -36q0 -21 -13.5 -35t-35.5 -14zM79 414h-65q-5 0 -5 7v59q0 6 5 6h65v44q0 78 22 122q39 75 129 75q32 0 45 -6q5 -3 5 -8v-61
q0 -6 -6 -5q-14 6 -36 6q-37 0 -56.5 -25.5t-19.5 -92.5v-49h96q6 0 6 -5v-60q0 -5 -6 -7h-96v-407q0 -7 -6 -7h-71q-6 0 -6 7v407z" />
    <glyph glyph-name="f_j" unicode="fj" horiz-adv-x="486" 
d="M79 414h-65q-5 0 -5 7v59q0 6 5 6h65v44q0 78 22 122q39 75 129 75q32 0 45 -6q5 -3 5 -8v-61q0 -6 -6 -5q-14 6 -36 6q-37 0 -56.5 -25.5t-19.5 -92.5v-49h96q6 0 6 -5v-60q0 -5 -6 -7h-96v-407q0 -7 -6 -7h-71q-6 0 -6 7v407zM341 486h71q6 0 6 -6v-485
q0 -76 -12 -114.5t-37 -66.5q-39 -43 -113 -43q-11 0 -17 1t-6 7v60q0 6 6 6q46 2 71 27.5t25 102.5v505q0 6 6 6zM377 582q-23 0 -37 14t-14 37t14 37t37 14t36.5 -14.5t13.5 -36.5q0 -23 -14 -37t-36 -14z" />
    <glyph glyph-name="f_k" unicode="fk" horiz-adv-x="730" 
d="M79 486v44q0 78 22 122q39 75 129 75q32 0 45 -6q5 -3 5 -8v-61q0 -6 -6 -5q-14 6 -36 6q-37 0 -56.5 -25.5t-19.5 -92.5v-49h96q6 0 6 -5v-60q0 -5 -6 -7h-96v-407q0 -7 -6 -7h-71q-6 0 -6 7v407h-65q-5 0 -5 7v59q0 6 5 6h65zM639 486h79q10 0 4 -8q-30 -32 -216 -213
q-2 -2 0 -4l247 -254q2 -2 1 -4.5t-5 -2.5h-95q-7 0 -10 5l-226 237v-235q0 -7 -6 -7h-71q-7 0 -7 7v704q0 6 7 6h71q6 0 6 -6v-448l211 218q4 5 10 5z" />
    <glyph glyph-name="f_l" unicode="fl" horiz-adv-x="506" 
d="M79 414h-65q-5 0 -5 7v59q0 6 5 6h65v44q0 78 22 122q39 75 129 75q32 0 45 -6q5 -3 5 -8v-61q0 -6 -6 -5q-14 6 -36 6q-37 0 -56.5 -25.5t-19.5 -92.5v-49h96q6 0 6 -5v-60q0 -5 -6 -7h-96v-407q0 -7 -6 -7h-71q-6 0 -6 7v407zM335 101v610q0 6 7 6h70q7 0 7 -6v-603
q0 -28 9.5 -38t29.5 -10q6 0 20 3q4 0 4 -6v-52q0 -5 -5 -8q-16 -7 -46 -7q-44 0 -70 23.5t-26 87.5z" />
    <glyph glyph-name="f_t" unicode="ft" horiz-adv-x="548" 
d="M162 486h174q0 87 9 128q1 5 6 7l68 10q7 2 7 -3q-5 -44 -7 -142h106q6 0 6 -7v-59q0 -6 -6 -6h-106v-281q0 -72 61 -72q23 0 50 10q6 2 6 -4v-51q0 -8 -5 -10q-31 -16 -76 -16q-120 0 -120 131v293h-173v-407q0 -7 -6 -7h-71q-6 0 -6 7v407h-64q-6 0 -6 6v61q0 5 6 5h64
v44q0 78 22 122q39 75 130 75q31 0 47 -7q5 -2 5 -8v-61q0 -7 -6 -5q-17 7 -38 7q-38 0 -57.5 -25t-19.5 -92v-50z" />
    <glyph glyph-name="f_f_b" unicode="ffb" horiz-adv-x="1046" 
d="M162 486h172v53q1 98 42.5 143t107.5 45q35 0 51 -8q4 -2 4 -8v-59q0 -7 -6 -5q-15 6 -38 6q-16 0 -27.5 -3.5t-24 -14.5t-19 -35.5t-6.5 -62.5v-51h96q6 0 6 -5v-60q0 -7 -6 -7h-96v-407q0 -7 -6 -7h-71q-6 0 -6 7v407h-173v-407q0 -7 -6 -7h-71q-6 0 -6 7v407h-66
q-4 0 -4 5v62q0 5 5 5h65v44q0 78 22 122q39 75 129 75q32 0 45 -6q5 -3 5 -8v-61q0 -6 -6 -5q-14 6 -36 6q-37 0 -56.5 -25.5t-19.5 -92.5v-49zM597 717h70q7 0 7 -6l1 -236q48 20 107 20q103 0 166 -65.5t63 -168.5q0 -127 -82 -199t-196 -72q-74 0 -137 20q-5 2 -5 8v693
q0 6 6 6zM926 254q0 77 -42.5 122.5t-114.5 45.5q-53 0 -94 -17v-336q30 -8 65 -8q77 0 131.5 50.5t54.5 142.5z" />
    <glyph glyph-name="f_f_h" unicode="ffh" horiz-adv-x="1056" 
d="M162 486h172v53q1 98 42.5 143t107.5 45q35 0 51 -8q4 -2 4 -8v-59q0 -7 -6 -5q-15 6 -38 6q-16 0 -27.5 -3.5t-24 -14.5t-19 -35.5t-6.5 -62.5v-51h96q6 0 6 -5v-60q0 -7 -6 -7h-96v-407q0 -7 -6 -7h-71q-6 0 -6 7v407h-173v-407q0 -7 -6 -7h-71q-6 0 -6 7v407h-66
q-4 0 -4 5v62q0 5 5 5h65v44q0 78 22 122q39 75 129 75q32 0 45 -6q5 -3 5 -8v-61q0 -6 -6 -5q-14 6 -36 6q-37 0 -56.5 -25.5t-19.5 -92.5v-49zM674 367v-361q0 -6 -6 -6h-71q-7 0 -7 7v704q0 6 6 6h72q6 0 6 -5v-274q64 58 149 58q29 0 55 -8.5t51.5 -28.5t40.5 -60
t15 -96v-296q0 -7 -7 -7h-69q-8 0 -8 8v286q0 60 -26 94t-77 34q-75 0 -124 -55z" />
    <glyph glyph-name="f_f_i" unicode="ffi" horiz-adv-x="745" 
d="M162 486h171v53q1 98 42.5 143t106.5 45q36 0 52 -8q4 -2 4 -8v-59q0 -8 -6 -5q-16 6 -39 6q-16 0 -27.5 -3.5t-24 -14.5t-19 -35.5t-6.5 -62.5l1 -51h96q5 0 5 -5v-60q0 -7 -5 -7h-96v-407q0 -7 -7 -7h-70q-7 0 -7 7v407h-171v-407q0 -7 -6 -7h-71q-6 0 -6 7v407h-66
q-4 0 -4 5v62q0 5 5 5h65v44q0 78 22 122q39 75 129 75q32 0 45 -6q5 -3 5 -8v-61q0 -6 -6 -5q-14 6 -36 6q-37 0 -56.5 -25.5t-19.5 -92.5v-49zM590 8v471q0 7 6 7h72q6 0 6 -6v-473q0 -7 -7 -7h-69q-8 0 -8 8zM632 582q-23 0 -36.5 14t-13.5 37t14 37t37 14t36.5 -14.5
t13.5 -36.5q0 -23 -14 -37t-37 -14z" />
    <glyph glyph-name="f_f_j" unicode="ffj" horiz-adv-x="744" 
d="M162 486h172v53q1 98 42.5 143t107.5 45q35 0 51 -8q4 -2 4 -8v-59q0 -7 -6 -5q-15 6 -38 6q-16 0 -27.5 -3.5t-24 -14.5t-19 -35.5t-6.5 -62.5v-51h96q6 0 6 -5v-60q0 -7 -6 -7h-96v-407q0 -7 -6 -7h-71q-6 0 -6 7v407h-173v-407q0 -7 -6 -7h-71q-6 0 -6 7v407h-66
q-4 0 -4 5v62q0 5 5 5h65v44q0 78 22 122q39 75 129 75q32 0 45 -6q5 -3 5 -8v-61q0 -6 -6 -5q-14 6 -36 6q-37 0 -56.5 -25.5t-19.5 -92.5v-49zM597 486h71q6 0 6 -6v-485q0 -75 -12.5 -113.5t-37.5 -67.5q-38 -43 -113 -43q-10 0 -16 1t-6 7v60q0 6 6 6q46 2 70.5 28
t24.5 102v505q0 6 7 6zM632 582q-23 0 -36.5 14t-13.5 37t14 37t37 14t36.5 -14.5t13.5 -36.5q0 -23 -14 -37t-37 -14z" />
    <glyph glyph-name="f_f_k" unicode="ffk" horiz-adv-x="986" 
d="M334 486v53q1 98 42.5 143t107.5 45q35 0 51 -8q4 -2 4 -8v-59q0 -7 -6 -5q-15 6 -38 6q-16 0 -27.5 -3.5t-24 -14.5t-19 -35.5t-6.5 -62.5v-51h96q6 0 6 -5v-60q0 -7 -6 -7h-96v-407q0 -7 -6 -7h-71q-6 0 -6 7v407h-173v-407q0 -7 -6 -7h-71q-6 0 -6 7v407h-66
q-4 0 -4 5v62q0 5 5 5h65v44q0 78 22 122q39 75 129 75q32 0 45 -6q5 -3 5 -8v-61q0 -6 -6 -5q-14 6 -36 6q-37 0 -56.5 -25.5t-19.5 -92.5v-49h172zM895 486h79q10 0 4 -8q-30 -32 -216 -213q-2 -2 0 -4l247 -254q2 -2 1 -4.5t-5 -2.5h-95q-7 0 -10 5l-226 237v-235
q0 -7 -6 -7h-71q-7 0 -7 7v704q0 6 7 6h71q6 0 6 -6v-448l211 218q4 5 10 5z" />
    <glyph glyph-name="f_f_l" unicode="ffl" horiz-adv-x="761" 
d="M162 486h171v53q1 98 42.5 143t107.5 45q35 0 51 -8q4 -2 4 -8v-59q0 -8 -6 -5q-16 6 -38 6q-17 0 -28.5 -3.5t-23.5 -14.5t-18.5 -35.5t-6.5 -62.5v-51h96q6 0 6 -5v-60q0 -7 -6 -7h-96v-407q0 -7 -6 -7h-71q-6 0 -6 7v407h-172v-407q0 -7 -6 -7h-71q-6 0 -6 7v407h-66
q-4 0 -4 5v62q0 5 5 5h65v44q0 78 22 122q39 75 129 75q32 0 45 -6q5 -3 5 -8v-61q0 -6 -6 -5q-14 6 -36 6q-37 0 -56.5 -25.5t-19.5 -92.5v-49zM590 101v610q0 6 8 6h69q7 0 7 -6v-603q0 -28 9.5 -38t29.5 -10q7 0 20 3q4 0 4 -6v-52q0 -6 -5 -8q-16 -7 -46 -7
q-44 0 -70 23.5t-26 87.5z" />
    <glyph glyph-name="f_f_t" unicode="fft" horiz-adv-x="796" 
d="M668 414v-281q0 -72 61 -72q24 0 47 8q6 2 6 -4v-51q0 -8 -5 -10q-34 -14 -76 -14q-117 0 -117 131v293h-48h-20h-99v-407q0 -7 -6 -7h-71q-6 0 -6 7v407h-172v-407q0 -7 -6 -7h-71q-6 0 -6 7v407h-66q-4 0 -4 5v62q0 5 5 5h65v44q0 78 22 122q39 75 129 75q32 0 45 -6
q5 -3 5 -8v-61q0 -6 -6 -5q-14 6 -36 6q-37 0 -56.5 -25.5t-19.5 -92.5v-49h171v53q1 98 42.5 143t107.5 45q35 0 51 -8q4 -2 4 -8v-59q0 -8 -6 -5q-16 6 -38 6q-17 0 -28.5 -3.5t-23.5 -14.5t-18.5 -35.5t-6.5 -62.5v-51h99h20h49q0 84 8 128q1 6 7 7l68 11q7 2 7 -4
q-5 -44 -7 -142h106q6 0 6 -7v-59q0 -6 -6 -6h-106z" />
    <glyph glyph-name="t_t" unicode="tt" horiz-adv-x="577" 
d="M365 414h-204v-281q0 -72 61 -72q22 0 51 10q5 2 5 -4v-51q0 -8 -5 -10q-31 -16 -79 -16q-117 0 -117 131v293h-66q-6 1 -6 8v57q0 7 6 7h67q0 87 9 128q1 5 6 7l68 10q7 2 7 -3q-5 -44 -7 -142h204q3 94 10 128q1 6 6 7l68 10q6 1 6 -3q-6 -70 -6 -142h106q6 0 6 -7v-59
q0 -6 -6 -6h-107v-281q0 -72 62 -72q23 0 50 10q6 2 6 -4v-51q0 -8 -5 -10q-32 -16 -80 -16q-116 0 -116 131v293z" />
    <glyph glyph-name=".notdef" horiz-adv-x="500" 
d="M0 0v700h500v-700h-500zM80 50h340l-170 255zM279 350l171 -255v510zM50 605v-510l170 255zM80 650l170 -255l170 255h-340z" />
    <glyph glyph-name=".null" horiz-adv-x="0" 
 />
    <glyph glyph-name="nonmarkingreturn" horiz-adv-x="333" 
 />
    <glyph glyph-name="space" unicode=" " horiz-adv-x="231" 
 />
    <glyph glyph-name="space" unicode="&#xa0;" horiz-adv-x="231" 
 />
    <glyph glyph-name="exclam" unicode="!" horiz-adv-x="266" 
d="M159 672q29 0 41 -7q5 -3 5 -8v-75q0 -55 -5.5 -198t-7.5 -176q0 -5 -6 -5h-55q-5 0 -5 5q-2 27 -7 170.5t-5 199.5v77q0 7 4 8q14 9 41 9zM158 -7q-23 0 -37 13.5t-14 35.5t14.5 36t36.5 14q24 0 38.5 -14t14.5 -36q0 -23 -14.5 -36t-38.5 -13z" />
    <glyph glyph-name="quotedbl" unicode="&#x22;" horiz-adv-x="316" 
d="M43 472v239q0 6 7 6h67q7 0 5 -6l-12 -240q0 -6 -5 -6h-55q-7 0 -7 7zM195 472v238q0 7 7 7h67q6 0 5 -7l-12 -239q0 -6 -6 -6h-55q-6 0 -6 7z" />
    <glyph glyph-name="numbersign" unicode="#" horiz-adv-x="503" 
d="M126 40h-46q-6 0 -4 6l38 168h-83q-5 0 -5 6v51q0 5 5 5h96l28 125h-75q-4 0 -4 4v53q0 4 5 4h88l34 151q3 6 7 6h46q5 0 4 -7l-34 -150h111l34 152q0 5 4 5h47q6 0 5 -6l-35 -151h82q6 0 6 -5v-52q0 -4 -5 -4h-96l-28 -125h72q5 0 5 -5v-52q0 -5 -5 -5h-84l-38 -169
q-3 -5 -7 -5h-45q-7 0 -5 6l38 168h-111l-40 -169q-2 -5 -5 -5zM211 401l-28 -125h112l28 125h-112z" />
    <glyph glyph-name="dollar" unicode="$" horiz-adv-x="483" 
d="M274 5v-86q0 -6 -5 -6h-59q-5 0 -5 7v81q-92 0 -158 38q-6 3 -6 13v71q0 3 2.5 4.5t4.5 -0.5q71 -54 174 -54q61 0 96 24.5t35 64.5q0 38 -28 64.5t-108 59.5q-99 40 -135.5 81.5t-36.5 103.5q0 63 44 108t117 55v82q0 5 5 5h60q5 0 5 -5l1 -80q88 -3 128 -34q4 -3 4 -8
v-69q0 -7 -7 -4q-59 45 -154 45q-62 0 -94 -26.5t-32 -61.5t26.5 -60t106.5 -58q104 -42 141.5 -86t37.5 -106q0 -71 -47.5 -113t-112.5 -50z" />
    <glyph glyph-name="percent" unicode="%" horiz-adv-x="816" 
d="M658 631l-436 -626q-2 -5 -10 -5h-56q-2 0 -3 2.5t1 4.5l437 625q4 5 10 5h55q4 -1 2 -6zM197 647q76 0 115.5 -50.5t39.5 -132.5q0 -76 -39.5 -130.5t-116.5 -54.5t-116.5 52t-39.5 131q0 83 45.5 134t111.5 51zM106 463q0 -54 24 -89t68 -35q41 0 64.5 33t23.5 92
q0 56 -23.5 90t-65.5 34q-40 0 -65.5 -33t-25.5 -92zM620 358q76 0 116 -50.5t40 -132.5q0 -74 -40 -129.5t-117 -55.5q-76 0 -116 52.5t-40 130.5q0 84 45 134.5t112 50.5zM529 174q0 -54 24 -89t68 -35q42 0 65 32.5t23 92.5q0 57 -23 90.5t-66 33.5q-40 0 -65.5 -33
t-25.5 -92z" />
    <glyph glyph-name="ampersand" unicode="&#x26;" horiz-adv-x="678" 
d="M604 325h-243q29 -25 70 -73.5t72 -94.5q34 -50 59.5 -69.5t58.5 -19.5q17 0 29 3q3 1 4 0t1 -5v-59q0 -8 -5 -10q-15 -7 -46 -7q-48 0 -84 24t-85 98q-51 79 -106.5 138.5t-80.5 71.5q-40 -1 -79.5 -34.5t-39.5 -91.5q0 -53 39 -90.5t106 -37.5q59 0 101 20q3 1 4 -0.5
t1 -4.5v-65q0 -5 -6 -8q-38 -20 -112 -20q-95 0 -156 54t-61 145q0 72 43.5 121.5t108.5 69.5q-68 66 -68 135q0 73 51 115t133 42q73 0 110 -21q4 -3 4 -10v-64q0 -7 -7 -4q-40 25 -105 25q-49 0 -76.5 -21t-27.5 -62q0 -56 84 -116h322q7 0 5 -6l-11 -62q-1 -6 -7 -6z" />
    <glyph glyph-name="quotesingle" unicode="'" horiz-adv-x="164" 
d="M42 471l1 240q0 6 6 6h69q6 0 4 -5l-13 -241q0 -5 -6 -5h-55q-6 0 -6 5z" />
    <glyph glyph-name="parenleft" unicode="(" horiz-adv-x="334" 
d="M49 296q0 148 48 264.5t116 195.5q4 5 8 5h71q9 0 4 -7q-169 -208 -169 -458t169 -458q4 -7 -4 -7h-71q-4 0 -8 4q-69 79 -116.5 196t-47.5 265z" />
    <glyph glyph-name="parenright" unicode=")" horiz-adv-x="329" 
d="M283 295q0 -266 -163 -460q-4 -4 -9 -4h-70q-10 0 -4 7q169 210 169 457q0 249 -169 459q-7 7 4 7h70q5 0 9 -5q68 -79 115.5 -195.5t47.5 -265.5z" />
    <glyph glyph-name="asterisk" unicode="*" horiz-adv-x="389" 
d="M226 479l94 -131q4 -4 0 -9l-45 -28q-6 -3 -7 3l-84 141l-108 -115q-4 -4 -7 0l-34 35q-5 5 0 8l117 104l-131 56q-7 0 -3 7l25 49q1 5 7 2l121 -73l12 152q0 5 6 5l59 -7q5 -1 4 -7l-34 -150l139 37q4 2 7 -3l9 -54q0 -5 -4 -6z" />
    <glyph glyph-name="plus" unicode="+" horiz-adv-x="556" 
d="M251 512h55q5 0 5 -6v-215h207q5 0 5 -6v-50q0 -6 -6 -6h-206v-217q0 -5 -6 -5h-54q-5 0 -5 5v217h-208q-6 0 -6 6v51q0 5 6 5h208v216q0 5 5 5z" />
    <glyph glyph-name="comma" unicode="," horiz-adv-x="171" 
d="M66 -146h-59q-8 0 -5 6q59 120 51 256q0 5 4 5h67q6 0 7 -7q10 -149 -57 -255q-2 -5 -8 -5z" />
    <glyph glyph-name="hyphen" unicode="-" horiz-adv-x="310" 
d="M267 216h-224q-5 0 -5 5v63q0 5 5 5h224q5 0 5 -5v-63q0 -5 -5 -5z" />
    <glyph glyph-name="period" unicode="." horiz-adv-x="171" 
d="M86 -10q-24 0 -39 15t-15 40q0 23 15 38.5t39 15.5t38.5 -15t14.5 -39q0 -25 -14 -40t-39 -15z" />
    <glyph glyph-name="slash" unicode="/" horiz-adv-x="351" 
d="M311 698l-203 -736q-2 -3 -6 -3h-58q-5 0 -4 5l203 736q1 4 6 4h58q5 0 4 -6z" />
    <glyph glyph-name="zero" unicode="0" horiz-adv-x="527" 
d="M263 574q-60 0 -97 -64t-37 -188q0 -118 35 -188t103 -70q131 0 131 255t-135 255zM266 -10q-111 0 -166 92t-55 238q0 142 57.5 234.5t162.5 92.5q51 0 90.5 -21t63 -53t38 -77t20 -87t5.5 -89q0 -65 -11 -120.5t-34.5 -104.5t-67 -77t-103.5 -28z" />
    <glyph glyph-name="one" unicode="1" horiz-adv-x="320" 
d="M218 0h-72q-6 0 -6 6v545q-51 -31 -119 -48q-7 -1 -7 6v58q0 6 5 7q73 21 138 63q4 4 14 4h48q4 0 4 -6v-629q0 -6 -5 -6z" />
    <glyph glyph-name="two" unicode="2" horiz-adv-x="472" 
d="M420 0h-394q-6 0 -6 7v45q0 6 4 10q102 80 183 160q68 65 93.5 115.5t25.5 102.5q0 58 -33 94t-99 36q-72 0 -148 -44q-7 -5 -7 3v64q0 6 4 9q78 45 167 45q98 0 149 -57t51 -141q0 -62 -26.5 -119.5t-92.5 -122.5q-62 -64 -149 -137q34 3 157 3h138q4 0 5.5 -1t0.5 -4
l-15 -62q-2 -6 -8 -6z" />
    <glyph glyph-name="three" unicode="3" horiz-adv-x="484" 
d="M186 298h-42q-7 0 -7 6v63q0 7 6 7h37q67 0 104.5 25.5t37.5 72.5q0 45 -31 72t-94 27q-75 0 -144 -40q-6 -2 -6 3v64q0 6 4 9q70 39 160 39q91 0 142 -45.5t51 -118.5q0 -54 -32 -89.5t-73 -49.5q54 -12 95.5 -51.5t41.5 -109.5q0 -90 -66 -141t-170 -51q-99 0 -162 36
q-4 2 -4 10v69q0 8 6 4q76 -44 159 -44q77 0 114.5 33t37.5 84q0 58 -44 87t-121 29z" />
    <glyph glyph-name="four" unicode="4" horiz-adv-x="502" 
d="M322 166h-291q-6 0 -6 4v55q0 4 3 10l272 396q4 6 11 6h85q6 0 6 -6v-396h81q5 0 4 -6l-9 -59q-1 -4 -8 -4h-68v-160q0 -6 -6 -6h-68q-6 0 -6 6v160zM322 235v123q0 119 5 202h-1q-10 -19 -55.5 -88.5l-96.5 -144.5t-61 -92h209z" />
    <glyph glyph-name="five" unicode="5" horiz-adv-x="480" 
d="M385 562h-214q-15 -51 -38 -149q154 -16 226 -70.5t72 -150.5q0 -90 -63.5 -146t-168.5 -56q-91 0 -153 31q-4 3 -4 10v69q0 6 5 4q72 -39 152 -39q75 0 111.5 35t36.5 86q0 72 -67 110t-220 51q-7 0 -7 6l-1 34q2 10 33.5 126t31.5 118q2 6 7 6h283q6 0 4 -6l-18 -63
q-1 -6 -8 -6z" />
    <glyph glyph-name="six" unicode="6" horiz-adv-x="527" 
d="M266 337q-74 0 -135 -49q-3 -18 -3 -44q0 -83 39.5 -131.5t103.5 -48.5q60 0 94.5 38.5t34.5 97.5q0 63 -35.5 99.5t-98.5 37.5zM429 641v-62q0 -5 -4 -5q-103 -18 -176.5 -74t-101.5 -141q62 46 142 46q85 0 140.5 -55t55.5 -146q0 -88 -58 -151t-159 -63
q-103 0 -163 72t-60 183q0 158 108 267t272 135q4 0 4 -6z" />
    <glyph glyph-name="seven" unicode="7" horiz-adv-x="435" 
d="M21 637h397q4 0 4 -5v-47q0 -2 -2 -12l-261 -568q-3 -5 -7 -5h-79q-5 0 -4 6l266 556h-326q-5 0 -5 6l11 65q1 4 6 4z" />
    <glyph glyph-name="eight" unicode="8" horiz-adv-x="510" 
d="M255 575q-52 0 -81 -29.5t-29 -75.5q0 -58 42 -94q9 -8 23 -8h92q14 0 25 10q37 35 37 89q0 51 -30.5 79.5t-78.5 28.5zM257 62q60 0 93 33t34 84q1 73 -57 109q-13 8 -24 8h-93q-10 0 -20 -6q-64 -35 -64 -107q0 -55 37.5 -88t93.5 -33zM256 646q88 0 137.5 -50.5
t49.5 -121.5q0 -83 -70 -139q94 -53 94 -160q0 -83 -60 -134t-155 -51q-96 0 -152.5 53t-56.5 134q0 49 26 89t69 65q-74 53 -74 144q0 70 51.5 120.5t140.5 50.5z" />
    <glyph glyph-name="nine" unicode="9" horiz-adv-x="519" 
d="M108 -3v61q0 5 5 6q97 24 162.5 78t92.5 126q-55 -32 -124 -32q-91 0 -147 54t-56 144q0 87 59.5 150t156.5 63t156 -70t59 -188q0 -82 -29.5 -152.5t-79.5 -120t-113.5 -82t-134.5 -44.5q-4 -1 -5.5 1t-1.5 6zM264 305q72 0 121 37q3 36 3 48q0 84 -36 134t-99 50
q-59 0 -93.5 -39.5t-34.5 -96.5q0 -67 39 -100t100 -33z" />
    <glyph glyph-name="colon" unicode=":" horiz-adv-x="227" 
d="M113 337q-23 0 -38 14.5t-15 39.5q0 24 14.5 39.5t38.5 15.5t39 -15.5t15 -39.5t-14.5 -39t-39.5 -15zM113 -10q-24 0 -38.5 15t-14.5 40q0 24 14.5 39t38.5 15t39 -15t15 -39q0 -25 -14.5 -40t-39.5 -15z" />
    <glyph glyph-name="semicolon" unicode=";" horiz-adv-x="227" 
d="M113 337q-24 0 -38.5 15t-14.5 40q0 23 14.5 38.5t38.5 15.5t39 -15.5t15 -38.5q0 -25 -14.5 -40t-39.5 -15zM88 -146h-59q-8 0 -5 6q59 120 51 256q0 5 4 5h67q6 0 7 -7q10 -149 -57 -255q-2 -5 -8 -5z" />
    <glyph glyph-name="less" unicode="&#x3c;" horiz-adv-x="544" 
d="M57 236v49q0 4 4 7l419 219q7 3 7 -3v-57q0 -3 -6 -7l-353 -183v-1l354 -184q5 -2 5 -7v-55q0 -6 -6 -5l-420 220q-4 3 -4 7z" />
    <glyph glyph-name="equal" unicode="=" horiz-adv-x="548" 
d="M30 380q0 5 7 5h475q5 0 5 -5v-50q0 -7 -8 -7h-473q-6 0 -6 6v51zM30 191q0 6 6 6h475q6 0 6 -6v-49q0 -6 -8 -6h-473q-6 0 -6 6v49z" />
    <glyph glyph-name="greater" unicode="&#x3e;" horiz-adv-x="544" 
d="M487 285v-47q0 -6 -5 -8l-420 -221q-5 -2 -5 4v55q0 6 4 7l353 184v2l-352 184q-5 1 -5 6v57q0 6 5 3l420 -219q5 -2 5 -7z" />
    <glyph glyph-name="question" unicode="?" horiz-adv-x="402" 
d="M202 671q80 0 125.5 -43.5t45.5 -110.5q0 -74 -65 -141l-12.5 -12.5l-13 -13l-11.5 -12t-11.5 -13t-9.5 -11.5t-8.5 -12l-6 -11.5t-4.5 -12t-1 -11.5q0 -30 20 -61q4 -6 -4 -6h-60q-6 0 -10 3q-24 29 -24 72q0 23 12.5 46.5t25 37.5t44.5 46q29 30 41.5 52t12.5 50
q0 39 -25 62t-74 23q-66 0 -123 -34q-6 -4 -6 3v67q0 6 3 8q55 35 139 35zM211 -10q-23 0 -37 13.5t-14 37.5q0 23 14 37t37 14t37 -14t14 -37t-13.5 -37t-37.5 -14z" />
    <glyph glyph-name="at" unicode="@" horiz-adv-x="831" 
d="M489 61l18 313q-17 5 -41 5q-68 0 -109 -47t-41 -118q0 -69 36.5 -112.5t105.5 -43.5q18 0 31 3zM581 421l-21 -353q22 4 45 16.5t48.5 36.5t42 67t16.5 99q0 124 -75 196.5t-194 72.5q-138 0 -229.5 -89.5t-91.5 -246.5q0 -220 187 -316q5 -4 5 -9l-2 -66q0 -5 -5 -4
q-121 47 -191 150t-70 241q0 178 112 292t288 114q146 0 242.5 -89t96.5 -240q0 -145 -91.5 -223.5t-227.5 -78.5q-102 0 -162.5 56t-60.5 161q0 104 67.5 169.5t165.5 65.5q64 0 100 -16q5 -1 5 -6z" />
    <glyph glyph-name="A" unicode="A" horiz-adv-x="586" 
d="M416 208h-254l-72 -202q-2 -6 -8 -6h-68q-8 0 -6 8l218 607q6 16 7 41q0 5 5 5h98q5 0 6 -5l235 -649q3 -7 -4 -7h-76q-5 0 -8 5zM185 285h208l-30.5 88l-45 130.5t-28.5 89.5h-1q-11 -43 -103 -308z" />
    <glyph glyph-name="B" unicode="B" horiz-adv-x="558" 
d="M80 7v645q0 7 5 8q111 3 173 3q57 0 100 -12.5t67 -30.5t38.5 -42.5t18.5 -44.5t4 -41q0 -90 -71 -138q41 -18 73 -56.5t32 -101.5q0 -96 -74 -147t-192 -51q-92 0 -168 2q-6 1 -6 7zM162 312v-240q44 -2 85 -2q86 -2 136.5 29.5t50.5 94.5q0 87 -91 111q-26 7 -79 7
h-102zM162 589v-204h93q62 0 94 -6q55 36 55 102q0 110 -151 110q-53 0 -91 -2z" />
    <glyph glyph-name="B" unicode="&#xe000;" horiz-adv-x="558" 
d="M80 7v645q0 7 5 8q111 3 173 3q57 0 100 -12.5t67 -30.5t38.5 -42.5t18.5 -44.5t4 -41q0 -90 -71 -138q41 -18 73 -56.5t32 -101.5q0 -96 -74 -147t-192 -51q-92 0 -168 2q-6 1 -6 7zM162 312v-240q44 -2 85 -2q86 -2 136.5 29.5t50.5 94.5q0 87 -91 111q-26 7 -79 7
h-102zM162 589v-204h93q62 0 94 -6q55 36 55 102q0 110 -151 110q-53 0 -91 -2z" />
    <glyph glyph-name="C" unicode="C" horiz-adv-x="551" 
d="M518 80v-61q0 -9 -5 -10q-45 -19 -135 -19q-65 0 -123.5 19.5t-107.5 59t-78 107.5t-29 156q0 151 96 245t255 94q92 0 128 -18q5 -2 5 -8v-67q0 -7 -7 -5q-43 23 -128 23q-119 0 -191.5 -71.5t-72.5 -190.5q0 -60 17.5 -108t44.5 -77t62.5 -48.5t69.5 -27t68 -7.5
q77 0 125 18q6 2 6 -4z" />
    <glyph glyph-name="D" unicode="D" horiz-adv-x="649" 
d="M80 8v644q0 7 6 8q75 3 175 3q166 0 257 -87.5t91 -233.5q0 -73 -21.5 -132.5t-56 -98t-82 -65t-97 -37.5t-101.5 -11q-96 0 -166 2q-5 0 -5 8zM163 587v-513q40 -2 85 -2q125 0 200 68.5t76 200.5q0 120 -73.5 184t-191.5 64q-38 0 -96 -2z" />
    <glyph glyph-name="E" unicode="E" horiz-adv-x="509" 
d="M486 70l-11 -64q-1 -6 -7 -6h-380q-8 0 -8 8v646q0 7 7 7h365q6 0 7 -6l8 -63q2 -7 -5 -7h-299v-209h270q6 0 6 -6v-64q0 -6 -6 -6h-270v-224h318q7 0 5 -6z" />
    <glyph glyph-name="E" unicode="&#xe001;" horiz-adv-x="509" 
d="M486 70l-11 -64q-1 -6 -7 -6h-380q-8 0 -8 8v646q0 7 7 7h365q6 0 7 -6l8 -63q2 -7 -5 -7h-299v-209h270q6 0 6 -6v-64q0 -6 -6 -6h-270v-224h318q7 0 5 -6z" />
    <glyph glyph-name="F" unicode="F" horiz-adv-x="487" 
d="M163 288v-281q0 -7 -6 -7h-72q-5 0 -5 7v648q0 6 6 6h367q5 0 7 -6l7 -63q1 -7 -6 -7h-298v-221h266q7 0 7 -6v-64q0 -6 -7 -6h-266z" />
    <glyph glyph-name="G" unicode="G" horiz-adv-x="636" 
d="M494 279l-139 2q-7 1 -7 7v61q0 5 6 5h217q7 0 7 -6v-317q1 -5 -5 -8q-83 -33 -186 -33q-165 0 -256 94.5t-91 242.5q0 156 99.5 250t260.5 94q106 0 159 -25q5 -2 5 -10v-66q0 -8 -6 -4q-57 29 -156 29q-128 2 -202 -69.5t-74 -195.5q0 -115 69.5 -190.5t195.5 -75.5
q65 0 103 16v199z" />
    <glyph glyph-name="H" unicode="H" horiz-adv-x="659" 
d="M573 0h-71q-7 0 -7 6v302h-331v-301q0 -7 -7 -7h-70q-7 0 -7 7v647q0 7 7 7h70q7 0 7 -6v-271h331v271q0 6 6 6h73q5 0 5 -6v-649q0 -6 -6 -6z" />
    <glyph glyph-name="I" unicode="I" horiz-adv-x="244" 
d="M163 655v-648q0 -7 -6 -7h-70q-7 0 -7 7v647q0 7 6 7h71q6 0 6 -6z" />
    <glyph glyph-name="J" unicode="J" horiz-adv-x="289" 
d="M131 166v489q0 6 7 6h71q6 0 6 -6v-481q0 -55 -7 -90q-31 -137 -178 -137q-24 0 -39 4q-5 1 -5 9v62q0 7 7 6q12 -2 29 -2q55 0 82 31.5t27 108.5z" />
    <glyph glyph-name="K" unicode="K" horiz-adv-x="560" 
d="M473 661h79q12 0 5 -9l-293 -307q-3 -3 0 -7l316 -329q2 -3 1 -6t-5 -3h-88q-7 0 -13 6l-307 319q-8 8 0 15l295 316q5 5 10 5zM163 654v-647q0 -7 -6 -7h-70q-7 0 -7 8v647q0 6 6 6h71q6 0 6 -7z" />
    <glyph glyph-name="L" unicode="L" horiz-adv-x="479" 
d="M458 0h-370q-8 0 -8 8v646q0 7 6 7h72q5 0 5 -6v-579h310q7 0 5 -6l-12 -64q-1 -6 -8 -6z" />
    <glyph glyph-name="M" unicode="M" horiz-adv-x="828" 
d="M112 655q1 6 7 6h111q5 0 8 -6q162 -490 176 -549h1q13 48 97.5 286t92.5 263q1 6 7 6h108q5 0 6 -5l34 -650q2 -6 -6 -6h-74q-7 0 -7 5q-19 486 -19 597h-1q-11 -40 -50.5 -157.5l-87 -255.5l-62.5 -183q-1 -6 -8 -6h-70q-8 0 -9 6q-156 489 -185 597h-2q0 -31 -30 -597
q0 -6 -7 -6h-68q-6 0 -6 6z" />
    <glyph glyph-name="N" unicode="N" horiz-adv-x="671" 
d="M153 0h-66q-7 0 -7 7v648q0 6 6 6h99q4 0 9 -6q277 -468 319 -550h1q-3 41 -3 152v397q0 7 7 7h66q7 0 7 -8v-646q0 -7 -9 -7h-89q-9 0 -11 6q-13 24 -160 276t-166 295h-1q4 -78 4 -176v-394q0 -7 -6 -7z" />
    <glyph glyph-name="O" unicode="O" horiz-adv-x="683" 
d="M341 671q137 0 218.5 -95.5t82.5 -241.5q1 -158 -83 -251t-216 -93q-140 0 -221.5 95.5t-81.5 246.5q0 150 85 244.5t216 94.5zM125 332q0 -114 58 -190.5t162 -76.5q99 0 155.5 73t55.5 194q0 117 -59 190.5t-157 73.5q-94 0 -154.5 -70t-60.5 -194z" />
    <glyph glyph-name="P" unicode="P" horiz-adv-x="541" 
d="M80 6v647q0 7 5 7q96 3 165 3q126 0 190.5 -60.5t64.5 -151.5q0 -109 -74.5 -166t-190.5 -57q-24 0 -46.5 0.5t-30.5 0.5v-222q0 -7 -6 -7h-71q-6 0 -6 6zM163 587v-283q17 -1 76 -1q81 0 132 35t51 111q0 67 -46.5 103.5t-124.5 36.5q-56 0 -88 -2z" />
    <glyph glyph-name="Q" unicode="Q" horiz-adv-x="683" 
d="M128 332q0 -114 58 -190.5t162 -76.5q99 0 155.5 73t55.5 194q0 117 -59 190.5t-157 73.5q-94 0 -154.5 -70t-60.5 -194zM669 -137h-108q-5 0 -12 5l-146 127q-30 -5 -57 -5q-140 0 -221.5 95.5t-81.5 246.5q0 150 85 244.5t216 94.5q137 0 218.5 -95.5t82.5 -241.5
q1 -109 -40 -188t-113 -120l179 -157q2 -4 -2 -6z" />
    <glyph glyph-name="R" unicode="R" horiz-adv-x="564" 
d="M156 0h-70q-6 0 -6 6v646q0 8 6 8q84 3 174 3q113 0 179 -48.5t66 -142.5q0 -66 -39 -111.5t-99 -65.5l101.5 -147t92.5 -140q4 -8 -3 -8h-84q-7 0 -11 4l-164 252q-11 16 -23 16h-114v-266q0 -6 -6 -6zM162 345h107q71 0 112 33.5t41 89.5q0 57 -42.5 89t-122.5 32
q-55 0 -95 -2v-242z" />
    <glyph glyph-name="S" unicode="S" horiz-adv-x="478" 
d="M212 -10q-105 0 -169 38q-6 2 -6 12v72q0 8 7 3q73 -49 171 -49q69 0 104.5 28t35.5 75q0 37 -26 65t-92 58l-44 18q-86 37 -119 82t-33 101q0 79 57.5 128.5t157.5 49.5q99 0 148 -27q5 -2 5 -10v-67q0 -9 -8 -4q-53 33 -147 33q-71 0 -101.5 -29t-30.5 -67
q0 -35 25.5 -62.5t89.5 -54.5l43 -18q88 -37 123.5 -83t35.5 -106q0 -83 -60 -134.5t-167 -51.5z" />
    <glyph glyph-name="S" unicode="&#xe002;" horiz-adv-x="478" 
d="M212 -10q-105 0 -169 38q-6 2 -6 12v72q0 8 7 3q73 -49 171 -49q69 0 104.5 28t35.5 75q0 37 -26 65t-92 58l-44 18q-86 37 -119 82t-33 101q0 79 57.5 128.5t157.5 49.5q99 0 148 -27q5 -2 5 -10v-67q0 -9 -8 -4q-53 33 -147 33q-71 0 -101.5 -29t-30.5 -67
q0 -35 25.5 -62.5t89.5 -54.5l43 -18q88 -37 123.5 -83t35.5 -106q0 -83 -60 -134.5t-167 -51.5z" />
    <glyph glyph-name="T" unicode="T" horiz-adv-x="518" 
d="M217 7v578h-214q-6 0 -5 7l10 63q2 6 8 6h489q7 0 8 -7l7 -62q1 -7 -5 -7h-214v-577q0 -8 -7 -8h-69q-8 0 -8 7z" />
    <glyph glyph-name="U" unicode="U" horiz-adv-x="641" 
d="M154 655v-411q0 -84 44 -131.5t125 -47.5q164 0 164 181v408q0 7 6 7h71q7 0 7 -7v-409q0 -131 -68.5 -193t-182.5 -62q-116 0 -182.5 63.5t-66.5 185.5v415q0 7 6 7h71q6 0 6 -6z" />
    <glyph glyph-name="V" unicode="V" horiz-adv-x="593" 
d="M302 82h2q50 170 196 573q2 6 8 6h73q6 0 5 -7l-238 -648q-2 -6 -9 -6h-79q-6 0 -9 5l-243 649q-4 7 5 7h77q6 0 7 -5q175 -466 205 -574z" />
    <glyph glyph-name="W" unicode="W" horiz-adv-x="852" 
d="M483 655q122 -502 135 -559h1q23 105 133 559q2 6 8 6h71q7 0 6 -7l-174 -649q-1 -5 -8 -5h-80q-7 0 -9 5l-41.5 174.5l-58 242t-34.5 149.5h-1q-18 -92 -150 -563q-2 -8 -8 -8h-77q-6 0 -9 7l-171 647q-1 7 5 7h75q6 0 9 -5q127 -511 135 -560h1q5 23 19 76l49 188
l76 295q2 6 9 6h82q6 0 7 -6z" />
    <glyph glyph-name="X" unicode="X" horiz-adv-x="522" 
d="M511 653l-198 -313l213 -331q4 -9 -4 -9h-83q-8 0 -12 6l-174 278h-1l-164 -278q-4 -6 -10 -6h-79q-9 0 -4 8l204 326l-199 320q-5 7 4 7h82q6 0 10 -5l92.5 -155l70.5 -116h1l162 270q3 6 10 6h76q8 0 3 -8z" />
    <glyph glyph-name="Y" unicode="Y" horiz-adv-x="517" 
d="M209 271l-220 383q-2 3 0 5t5 2h81q4 0 8 -4q167 -301 179 -329q24 49 176 328q2 5 8 5h79q7 0 3 -6l-221 -386q-8 -12 -8 -26v-236q0 -7 -7 -7h-68q-9 0 -9 7v239q0 16 -6 25z" />
    <glyph glyph-name="Z" unicode="Z" 
d="M499 0h-479q-7 0 -7 6v46q0 4 3 10l383 523h-368q-6 0 -5 7l11 63q1 6 8 6h455q6 0 6 -5v-48q0 -7 -5 -12l-379 -520h392q6 0 5 -7l-13 -63q-2 -6 -7 -6z" />
    <glyph glyph-name="bracketleft" unicode="[" horiz-adv-x="300" 
d="M133 691v-791l133 -3q4 0 4 -5v-52q-1 -5 -5 -5h-193q-7 0 -7 8v903q0 7 8 7h191q5 0 5 -4v-52q0 -4 -5 -4z" />
    <glyph glyph-name="backslash" unicode="\" horiz-adv-x="347" 
d="M237 -36l-197 734q-2 6 5 6h56q5 0 7 -5l199 -733q2 -7 -5 -7h-57q-5 0 -8 5z" />
    <glyph glyph-name="bracketright" unicode="]" horiz-adv-x="309" 
d="M175 -102v791l-133 3q-4 0 -4 4v53q1 4 5 4h193q7 0 7 -7v-903q0 -8 -8 -8h-191q-5 0 -5 5v52q0 5 5 5z" />
    <glyph glyph-name="a" unicode="a" horiz-adv-x="474" 
d="M323 75v157q-28 4 -66 4q-144 0 -144 -89q0 -38 29 -63.5t90 -25.5q50 0 91 17zM404 308v-223q0 -32 2 -48q0 -3 -2 -4q-91 -43 -187 -43q-83 0 -134.5 40.5t-51.5 116.5t62 114.5t161 38.5q47 0 69 -2v24q0 14 -4.5 29t-15 32t-35 28t-58.5 11q-72 0 -127 -30
q-7 -2 -7 5v61q0 5 5 8q62 30 142 30q91 0 136 -52t45 -136z" />
    <glyph glyph-name="b" unicode="b" horiz-adv-x="525" 
d="M77 717h70q7 0 7 -6v-235q49 20 108 20q102 0 165 -66t63 -168q0 -128 -81.5 -200t-195.5 -72q-76 0 -137 20q-6 2 -6 9v692q0 6 7 6zM405 255q0 77 -42 122.5t-114 45.5q-53 0 -95 -17v-336q25 -8 66 -8q77 0 131 50.5t54 142.5z" />
    <glyph glyph-name="b" unicode="&#xe003;" horiz-adv-x="525" 
d="M77 717h70q7 0 7 -6v-235q49 20 108 20q102 0 165 -66t63 -168q0 -128 -81.5 -200t-195.5 -72q-76 0 -137 20q-6 2 -6 9v692q0 6 7 6zM405 255q0 77 -42 122.5t-114 45.5q-53 0 -95 -17v-336q25 -8 66 -8q77 0 131 50.5t54 142.5z" />
    <glyph glyph-name="c" unicode="c" horiz-adv-x="420" 
d="M395 75v-62q0 -6 -4 -7q-41 -16 -109 -16q-117 0 -182 72t-65 179q0 111 72.5 183t188.5 72q65 0 95 -13q4 -2 4 -9v-63q0 -6 -7 -4q-37 15 -92 15q-78 0 -127 -48.5t-49 -129.5q0 -86 51 -132.5t125 -46.5q58 0 93 14q6 1 6 -4z" />
    <glyph glyph-name="d" unicode="d" horiz-adv-x="524" 
d="M282 -10q-109 0 -178 65t-69 184q0 112 75.5 184.5t196.5 72.5q25 0 63 -6v221q0 6 6 6h72q6 0 6 -5v-630q0 -31 2 -48q0 -4 -5 -7q-78 -37 -169 -37zM370 76v338q-23 10 -65 10q-84 0 -134.5 -51t-50.5 -130q0 -91 48.5 -135.5t121.5 -44.5q50 0 80 13z" />
    <glyph glyph-name="e" unicode="e" horiz-adv-x="482" 
d="M337 233h-218q-1 -75 42 -122.5t125 -47.5q70 0 125 27q5 3 5 -4v-57q0 -7 -5 -10q-58 -29 -141 -29q-62 0 -109 21.5t-73.5 58t-39.5 79t-13 90.5q0 109 60 183t161 74q51 0 90.5 -19t61 -50t32.5 -64.5t11 -67.5t-4 -52q0 -6 -7 -6q-20 -4 -103 -4zM120 295h186
q58 0 64 2q1 3 1 11q0 16 -5.5 34.5t-18 38.5t-37 33t-57.5 13q-58 0 -92 -38t-41 -94z" />
    <glyph glyph-name="f" unicode="f" horiz-adv-x="251" 
d="M79 414h-65q-6 0 -6 7v59q0 6 6 6h65v36q0 80 23 126q41 79 131 79q31 0 46 -7q5 -1 5 -8v-59q0 -7 -6 -5q-14 5 -35 5q-39 0 -60 -27t-21 -95v-45h96q6 0 6 -5v-60q0 -5 -6 -7h-96v-407q0 -7 -6 -7h-71q-6 0 -6 7v407z" />
    <glyph glyph-name="g" unicode="g" horiz-adv-x="490" 
d="M279 10l-106 5q-29 -21 -48 -48t-19 -45q0 -37 40.5 -65t106.5 -28q77 0 118 30.5t41 71.5q0 72 -133 79zM236 432q-47 0 -75.5 -28.5t-28.5 -76.5q0 -47 27 -76t76 -29q47 0 74.5 27t27.5 76q0 47 -25.5 77t-75.5 30zM194 87l102 -5q194 -9 194 -139q0 -77 -67 -128
t-175 -51q-104 0 -162.5 45.5t-58.5 106.5q0 55 98 137q-24 33 -24 75q0 34 17 63q-68 45 -68 135q0 72 50.5 121t136.5 49q39 0 75 -8q9 -2 21 -2h141q6 0 6 -6v-57q0 -6 -6 -6q-44 0 -92 4q35 -37 35 -97q0 -79 -51.5 -122t-129.5 -43q-28 0 -55 6q-8 -19 -5 -37
q3 -23 18 -41z" />
    <glyph glyph-name="h" unicode="h" horiz-adv-x="536" 
d="M153 367v-361q0 -6 -6 -6h-70q-7 0 -7 7v704q0 6 6 6h72q5 0 5 -5l1 -274q63 58 148 58q30 0 56 -8.5t51.5 -28.5t40.5 -60t15 -96v-296q0 -7 -7 -7h-70q-7 0 -7 8v286q0 60 -26 94t-77 34q-75 0 -125 -55z" />
    <glyph glyph-name="i" unicode="i" horiz-adv-x="225" 
d="M70 8v471q0 7 7 7h71q6 0 6 -6v-473q0 -7 -7 -7h-69q-8 0 -8 8zM112 582q-23 0 -36.5 14t-13.5 37t14 37t37 14t36.5 -14.5t13.5 -36.5q0 -23 -14 -37t-37 -14z" />
    <glyph glyph-name="j" unicode="j" horiz-adv-x="226" 
d="M78 486h71q6 0 6 -6v-485q0 -76 -12 -114.5t-37 -66.5q-39 -43 -113 -43q-11 0 -17 1t-6 7v60q0 6 6 6q46 2 71 27.5t25 102.5v505q0 6 6 6zM114 582q-23 0 -36.5 14t-13.5 37t14 37t36 14q23 0 36.5 -14.5t13.5 -36.5q0 -23 -14 -37t-36 -14z" />
    <glyph glyph-name="k" unicode="k" horiz-adv-x="465" 
d="M374 486h80q4 0 5 -2.5t-2 -5.5q-21 -23 -216 -213v-4l247 -254q2 -2 1 -4.5t-5 -2.5h-95q-5 0 -10 5l-226 237v-235q0 -7 -6 -7h-70q-7 0 -7 7v704q0 6 7 6h70q6 0 6 -6v-448l211 218q5 5 10 5z" />
    <glyph glyph-name="l" unicode="l" horiz-adv-x="241" 
d="M70 101v610q0 6 7 6h70q6 0 6 -6v-603q0 -27 10 -37.5t30 -10.5q7 0 20 3q4 0 4 -6v-52q0 -5 -5 -8q-16 -7 -46 -7q-44 0 -70 23.5t-26 87.5z" />
    <glyph glyph-name="m" unicode="m" horiz-adv-x="832" 
d="M147 0h-71q-6 0 -6 7v374q0 61 -4 99q0 6 6 6h63q5 0 8 -5q4 -13 6 -48q67 63 150 63q92 0 133 -73q75 73 167 73q30 0 57 -9t51.5 -29t39 -59.5t14.5 -93.5v-299q0 -6 -7 -6h-69q-7 0 -7 7v292q0 54 -25.5 88.5t-76.5 34.5q-71 0 -123 -58q5 -20 5 -64v-293q0 -7 -7 -7
h-70q-7 0 -7 7v295q0 57 -26 88.5t-74 31.5q-65 0 -121 -56v-360q0 -6 -6 -6z" />
    <glyph glyph-name="n" unicode="n" horiz-adv-x="535" 
d="M70 7v366q0 73 -4 107q0 6 6 6h62q6 0 9 -6q2 -6 6 -50q66 66 153 66q30 0 56 -8.5t51.5 -28.5t40.5 -60t15 -96v-296q0 -7 -7 -7h-70q-7 0 -7 8v287q0 59 -26 93t-77 34q-74 0 -125 -61v-354q0 -7 -6 -7h-71q-6 0 -6 7z" />
    <glyph glyph-name="o" unicode="o" horiz-adv-x="527" 
d="M265 496q104 0 166 -71t62 -181q0 -114 -63.5 -184t-164.5 -70q-58 0 -103.5 22t-72.5 58.5t-40.5 80.5t-13.5 92q0 108 63.5 180.5t166.5 72.5zM261 424q-63 0 -102.5 -49.5t-39.5 -129.5q0 -79 39.5 -131t108.5 -52q58 0 99.5 46.5t41.5 133.5q0 77 -37 129.5
t-110 52.5z" />
    <glyph glyph-name="p" unicode="p" horiz-adv-x="525" 
d="M256 496q108 0 171 -66.5t63 -169.5q0 -87 -42.5 -150t-106 -91.5t-137.5 -28.5q-23 0 -51 4v-200q0 -6 -5 -7q-63 -5 -73 -8q-5 0 -5 6v623q0 18 -2 44q0 3 2 4q108 40 186 40zM246 423q-48 0 -93 -16v-339q20 -6 57 -6q80 0 137.5 49.5t57.5 143.5q0 77 -42 122.5
t-117 45.5z" />
    <glyph glyph-name="q" unicode="q" horiz-adv-x="526" 
d="M275 -10q-102 0 -171 65.5t-69 181.5q0 113 75 186t197 73q86 0 148 -27q3 -1 3 -5q-3 -26 -3 -47v-624q0 -5 -6 -6q-67 -8 -73 -8q-5 0 -5 6v221q-47 -16 -96 -16zM371 78v336q-30 10 -72 10q-82 0 -130.5 -50t-48.5 -132q0 -86 49.5 -132t117.5 -46q50 0 84 14z" />
    <glyph glyph-name="r" unicode="r" horiz-adv-x="318" 
d="M70 486h64q6 0 9 -7q6 -17 8 -69q27 37 71 61.5t90 24.5q7 0 7 -7v-72q0 -6 -7 -6q-50 1 -93.5 -20.5t-63.5 -52.5l-1 -332q0 -6 -6 -6h-71q-7 0 -7 7v345q0 81 -5 128q0 6 5 6z" />
    <glyph glyph-name="s" unicode="s" horiz-adv-x="378" 
d="M317 398q-48 29 -116 29q-46 0 -67 -18t-21 -44q0 -24 19.5 -41.5t73.5 -39.5q77 -30 109.5 -64t32.5 -87q0 -67 -49.5 -105t-129.5 -38q-85 0 -134 29q-5 3 -5 9v67q0 9 6 5q57 -40 135 -40q46 0 70.5 18t24.5 47q0 28 -20 47t-71 39q-76 29 -109 63t-33 87
q0 57 45.5 96t124.5 39t117 -22q5 -2 5 -10v-61q0 -10 -8 -5z" />
    <glyph glyph-name="s" unicode="&#xe004;" horiz-adv-x="378" 
d="M317 398q-48 29 -116 29q-46 0 -67 -18t-21 -44q0 -24 19.5 -41.5t73.5 -39.5q77 -30 109.5 -64t32.5 -87q0 -67 -49.5 -105t-129.5 -38q-85 0 -134 29q-5 3 -5 9v67q0 9 6 5q57 -40 135 -40q46 0 70.5 18t24.5 47q0 28 -20 47t-71 39q-76 29 -109 63t-33 87
q0 57 45.5 96t124.5 39t117 -22q5 -2 5 -10v-61q0 -10 -8 -5z" />
    <glyph glyph-name="t" unicode="t" horiz-adv-x="293" 
d="M279 65v-51q0 -8 -6 -10q-32 -14 -75 -14q-117 0 -117 131v293h-68q-7 1 -7 8v57q0 7 7 7h68q2 92 9 128q1 6 7 7l68 11q6 2 6 -4q-6 -70 -6 -142h106q6 0 6 -7v-59q0 -6 -6 -6h-106v-281q0 -72 61 -72q24 0 47 8q6 2 6 -4z" />
    <glyph glyph-name="u" unicode="u" horiz-adv-x="528" 
d="M457 480v-374q0 -56 6 -100q0 -6 -6 -6h-64q-5 0 -8 5q-4 15 -6 43q-57 -58 -145 -58q-72 0 -118.5 43.5t-46.5 144.5v302q0 6 7 6h71q5 0 5 -6v-292q0 -59 27 -91.5t79 -32.5q70 0 116 51v365q0 6 7 6h70q6 0 6 -6z" />
    <glyph glyph-name="v" unicode="v" horiz-adv-x="457" 
d="M267 0h-81q-6 0 -9 5l-168 474q-2 7 4 7h77q5 0 8 -6q119 -359 131 -403h2q11 37 137 404q2 5 8 5h69q7 0 4 -7l-50.5 -137l-76.5 -210.5t-46 -125.5q-3 -6 -9 -6z" />
    <glyph glyph-name="w" unicode="w" horiz-adv-x="715" 
d="M548 0h-79q-8 0 -9 7q-71 256 -104 395h-1q-18 -80 -111 -395q-2 -7 -10 -7h-77q-10 0 -11 7l-130 472q-4 7 5 7h75q6 0 7 -5q69 -255 98 -402h2q33 141 111 400q1 7 7 7h81q6 0 7 -6q77 -277 103 -402h2q52 223 104 403q2 5 7 5h70q7 0 5 -6l-143 -474q-3 -6 -9 -6z" />
    <glyph glyph-name="x" unicode="x" horiz-adv-x="428" 
d="M158 243l-155 235q-6 8 3 8h82q7 0 10 -6l117 -188h1l122 189q2 5 8 5h74q8 0 3 -7q-123 -183 -159 -232q96 -144 166 -240q2 -2 1 -4.5t-5 -2.5h-84q-7 0 -10 6l-123 192h-1l-124 -193q-2 -5 -8 -5h-74q-9 0 -4 7l78 115.5z" />
    <glyph glyph-name="y" unicode="y" horiz-adv-x="459" 
d="M11 486h79q5 0 7 -5q115 -304 138 -379l63 177.5l72 201.5q3 5 8 5h71q7 0 4 -7q-109 -320 -272 -687q-3 -6 -11 -7l-75 -6q-6 0 -3 8q55 116 99 221q3 5 0 13l-42.5 104l-75.5 186.5l-67 168.5q-3 6 5 6z" />
    <glyph glyph-name="y" unicode="&#xe006;" horiz-adv-x="459" 
d="M11 486h79q5 0 7 -5q115 -304 138 -379l63 177.5l72 201.5q3 5 8 5h71q7 0 4 -7q-109 -320 -272 -687q-3 -6 -11 -7l-75 -6q-6 0 -3 8q55 116 99 221q3 5 0 13l-42.5 104l-75.5 186.5l-67 168.5q-3 6 5 6z" />
    <glyph glyph-name="z" unicode="z" horiz-adv-x="396" 
d="M374 0h-359q-4 0 -4 7v39q0 3 2 9q39 57 147 201.5l118 158.5q-18 -1 -102 -1h-152q-7 0 -6 8l11 58q1 6 7 6h337q5 0 5 -6v-42q0 -5 -4 -12l-100.5 -141l-107.5 -145l-52 -69h32.5h45.5h44h152q7 0 5 -6l-12 -59q-1 -6 -7 -6z" />
    <glyph glyph-name="braceleft" unicode="{" horiz-adv-x="368" 
d="M29 258q-4 0 -4 5v58q0 5 4 5q69 0 95 23.5t27 75.5q0 22 -3.5 73t-3.5 72q0 30 8 56.5t27 53.5t58 45.5t94 23.5q5 0 5 -4v-51q0 -5 -4 -6q-69 -12 -93 -43.5t-24 -78.5q0 -22 3 -70.5t3 -70.5q0 -55 -22 -87t-71 -45v-3q96 -20 96 -135q0 -26 -4.5 -78.5t-4.5 -77.5
q0 -49 27.5 -77t90.5 -39q4 -1 4 -6v-52q0 -4 -5 -4q-97 9 -142.5 55t-45.5 117q0 26 5 77.5t5 76.5q0 54 -26.5 82.5t-98.5 28.5z" />
    <glyph glyph-name="bar" unicode="|" horiz-adv-x="205" 
d="M138 -196h-72v980h72v-980z" />
    <glyph glyph-name="braceright" unicode="}" horiz-adv-x="368" 
d="M335 325q4 0 4 -5v-59q0 -4 -4 -4q-69 0 -95 -23.5t-27 -75.5q0 -22 3 -79t3 -79q0 -29 -7.5 -54t-26 -52t-57.5 -46t-95 -26q-5 -2 -5 3v53q0 4 4 5q70 13 93.5 44.5t23.5 77.5q0 21 -3 76t-3 77q0 55 22 87t71 45v3q-96 20 -96 135q0 25 4.5 71.5t4.5 70.5
q0 49 -27.5 77.5t-90.5 37.5q-4 1 -4 6v53q0 5 4 5q98 -8 143 -54.5t45 -118.5q0 -28 -4.5 -72t-4.5 -68q0 -54 26.5 -82.5t98.5 -28.5z" />
    <glyph glyph-name="exclamdown" unicode="&#xa1;" horiz-adv-x="226" 
d="M101 -188q-29 0 -41 6q-4 2 -4 8v76q0 59 5.5 204t7.5 170q0 5 5 5h55q5 0 5 -5q2 -28 7 -171.5t5 -199.5v-76q0 -7 -4 -9q-16 -8 -41 -8zM102 491q23 0 37.5 -13.5t14.5 -35.5t-15 -36.5t-37 -14.5q-24 0 -38.5 14t-14.5 37t14.5 36t38.5 13z" />
    <glyph glyph-name="cent" unicode="&#xa2;" horiz-adv-x="467" 
d="M328 84v-93q0 -5 -5 -5h-59q-5 0 -5 6v93q-94 13 -147 76t-53 155q0 96 58 159t143 76v92q0 4 5 4h58q5 0 5 -5v-87q52 2 85 -15q4 -2 4 -8v-66q0 -7 -6 -4q-38 19 -98 19q-76 0 -122.5 -44t-46.5 -117q0 -80 51.5 -121t118.5 -41q58 0 98 16q5 2 5 -4v-62q0 -5 -5 -8
q-32 -16 -84 -16z" />
    <glyph glyph-name="sterling" unicode="&#xa3;" horiz-adv-x="464" 
d="M444 0h-421q-5 0 -5 4v54q0 4 5 6q107 40 107 199v7.5v9.5v12h-86q-5 0 -5 6v49q0 5 6 5h83q0 14 -0.5 30.5t-0.5 23.5q0 117 54.5 179t146.5 62q61 0 90 -16q7 -4 7 -11v-63q0 -8 -7 -5q-37 19 -85 19q-122 0 -122 -160q0 -35 1 -59h147q5 0 5 -5v-50q0 -5 -5 -5h-148
q1 -80 -16.5 -130t-59.5 -86h321q6 0 5 -6l-11 -65q-1 -5 -6 -5z" />
    <glyph glyph-name="currency" unicode="&#xa4;" horiz-adv-x="521" 
d="M141 318q0 -65 36.5 -98.5t82.5 -33.5q50 0 84.5 31t34.5 99q0 54 -31.5 94t-89.5 40q-53 0 -85 -37t-32 -95zM75 317q0 63 36 112l-70 69q-4 4 0 8l34 34q2 4 8 0l69 -68q46 36 107 36q62 0 110 -36l71 67q3 5 8 0l32 -34q4 -3 0 -7l-70 -69q36 -47 36 -113t-34 -110
l68 -68q4 -4 0 -7l-33 -33q-5 -4 -9 0l-65 67q-47 -37 -113 -37q-67 0 -112 36l-64 -66q-4 -4 -8 -1l-33 33q-4 3 -1 8l67 67q-34 46 -34 112z" />
    <glyph glyph-name="yen" unicode="&#xa5;" horiz-adv-x="483" 
d="M274 0h-68q-7 1 -7 7v161h-131q-6 0 -6 6v44q0 5 6 5h131v68h-130q-7 0 -7 7v41q0 6 7 6h115l-178 287q-2 5 4 5h81q5 0 7 -4q131 -227 146 -264h2q6 15 141 263q2 5 8 5h78q6 0 3 -6l-175 -286h115q5 0 5 -5v-44q0 -5 -5 -5h-135v-68h134q6 0 6 -4v-45q0 -6 -7 -6h-133
v-162q-1 -6 -7 -6z" />
    <glyph glyph-name="brokenbar" unicode="&#xa6;" horiz-adv-x="205" 
d="M138 -196h-72v392h72v-392zM138 784v-392h-72v392h72z" />
    <glyph glyph-name="section" unicode="&#xa7;" horiz-adv-x="490" 
d="M324 -12q54 51 54 131q0 50 -27 103t-96 125q-77 80 -99.5 118t-21.5 78q-40 -55 -39 -123q1 -49 28 -95t100 -129q60 -68 84.5 -115t16.5 -93zM57 -82v67q0 7 6 3q59 -42 135 -42q66 0 66 40q0 32 -17.5 61t-81.5 100q-74 84 -104 140.5t-30 121.5q0 109 71.5 185.5
t174.5 76.5q76 0 112 -25q3 -3 3 -7v-64q0 -8 -7 -3q-49 31 -114 31q-77 0 -77 -49q0 -21 17.5 -47t84.5 -94q76 -78 112.5 -138.5t36.5 -140.5q0 -110 -73.5 -185.5t-174.5 -75.5q-44 0 -81 10.5t-54 24.5q-5 3 -5 10z" />
    <glyph glyph-name="dieresis" unicode="&#xa8;" horiz-adv-x="389" 
d="M102 587q-20 0 -32.5 12.5t-12.5 33.5t13 34t34 13q19 0 31 -13t12 -34t-13 -33.5t-32 -12.5zM285 587q-20 0 -32.5 12.5t-12.5 33.5t13.5 34t32.5 13q20 0 32 -13t12 -34q0 -20 -12.5 -33t-32.5 -13z" />
    <glyph glyph-name="copyright" unicode="&#xa9;" horiz-adv-x="768" 
d="M52 331q0 143 95 239t237 96t236.5 -96t94.5 -239q0 -146 -94 -241t-237 -95t-237.5 95.5t-94.5 240.5zM102 331q0 -126 81 -207t201 -81q126 0 204 81t77 207q-1 125 -82 207t-200 82q-124 0 -202.5 -83t-78.5 -206zM515 220v-48q0 -3 -5 -7q-41 -22 -103 -22
q-92 0 -144.5 54.5t-52.5 132.5q0 83 56.5 137t146.5 54q58 0 94 -18q4 -1 4 -8v-48q0 -7 -6 -4q-37 20 -87 20q-64 0 -102.5 -36t-38.5 -94q0 -63 40 -97t100 -34q53 0 92 21q6 2 6 -3z" />
    <glyph glyph-name="ordfeminine" unicode="&#xaa;" horiz-adv-x="338" 
d="M160 584q63 0 97 -33.5t33 -88.5v-174q0 -5 -5 -7q-63 -21 -123 -21q-61 0 -100 25.5t-39 75.5q0 42 31.5 67t75.5 32t98 3v8q0 59 -77 59q-49 0 -91 -21q-6 -2 -6 4v44q0 3 3 4q48 23 103 23zM85 363q0 -53 81 -53q33 0 62 9v99q-143 10 -143 -55z" />
    <glyph glyph-name="guillemotleft" unicode="&#xab;" horiz-adv-x="540" 
d="M55 223v43q0 6 4 7l201 174q8 3 8 -5v-65q0 -5 -5 -9l-139 -124l140 -125q4 -3 4 -9v-68q0 -9 -8 -4l-201 177q-4 3 -4 8zM270 223v43q0 4 5 6l201 175q7 3 7 -5v-65q0 -5 -5 -9l-139 -124l139 -124q4 -4 4 -10v-68q0 -8 -7 -4l-201 177q-4 4 -4 8z" />
    <glyph glyph-name="logicalnot" unicode="&#xac;" horiz-adv-x="551" 
d="M34 386h479q6 0 6 -6v-257q0 -5 -5 -5h-55q-5 0 -5 5v200h-419q-5 0 -5 6v52q0 5 4 5z" />
    <glyph glyph-name="uni00AD" unicode="&#xad;" horiz-adv-x="310" 
d="M267 216h-224q-5 0 -5 5v63q0 5 5 5h224q5 0 5 -5v-63q0 -5 -5 -5z" />
    <glyph glyph-name="registered" unicode="&#xae;" horiz-adv-x="227" 
d="M123 413q-55 0 -92 37t-37 92q0 54 37 91.5t92 37.5q54 0 91 -37.5t37 -91.5q0 -55 -36.5 -92t-91.5 -37zM125 439q45 0 72 29t27 74q0 44 -29 74t-73 30t-72 -29t-28 -75q0 -44 29 -73.5t74 -29.5zM100 530v-47q0 -3 -2 -3h-20q-3 0 -3 3v125q0 3 3 3h42q53 0 53 -39
q0 -25 -28 -35q2 -4 18.5 -25.5t20.5 -27.5q1 -1 1 -2.5t-2 -1.5h-23q-4 0 -6 3l-33 44q-1 3 -6 3h-15zM100 589v-38h17q29 0 29 19t-27 19h-19z" />
    <glyph glyph-name="macron" unicode="&#xaf;" horiz-adv-x="389" 
d="M66 661h259q5 0 5 -6v-51q0 -5 -5 -5h-259q-5 0 -5 6v51q0 5 5 5z" />
    <glyph glyph-name="degree" unicode="&#xb0;" horiz-adv-x="272" 
d="M137 647q51 0 85 -35t34 -88q0 -54 -33.5 -89.5t-85.5 -35.5t-86.5 36t-34.5 89q0 52 34.5 87.5t86.5 35.5zM137 601q-30 0 -50.5 -22.5t-20.5 -54.5q0 -34 20.5 -56t50.5 -22q31 0 51 22t20 56q0 32 -21 54.5t-50 22.5z" />
    <glyph glyph-name="plusminus" unicode="&#xb1;" horiz-adv-x="556" 
d="M251 609h55q5 0 5 -6v-206h207q5 0 5 -6v-50q0 -6 -6 -6h-206v-211q0 -5 -6 -5h-54q-5 0 -5 5v211h-208q-6 0 -6 6v51q0 5 6 5h208v207q0 5 5 5zM38 62h480q5 0 5 -6v-50q0 -6 -6 -6h-479q-6 0 -6 6v51q0 5 6 5z" />
    <glyph glyph-name="twosuperior" unicode="&#xb2;" horiz-adv-x="326" 
d="M289 427h-258q-4 0 -4 4v36q0 2 3 5q103 75 132 102q55 55 56 100q0 31 -19 51t-59 20q-55 0 -99 -27q-6 -4 -6 3v48q0 5 5 7q47 28 111 28q63 0 96.5 -34.5t33.5 -86.5q0 -54 -37.5 -98.5t-111.5 -99.5h168q3 0 3 -4l-9 -50q-1 -4 -5 -4z" />
    <glyph glyph-name="threesuperior" unicode="&#xb3;" horiz-adv-x="323" 
d="M100 597v43q0 4 3 4h34q74 0 74 52t-75 52q-49 0 -93 -26q-5 -2 -5 3v47q0 3 3 6q44 26 108 26q57 0 89.5 -27t32.5 -69q0 -59 -54 -82v-1q30 -9 51 -31.5t21 -60.5q0 -53 -41.5 -82t-104.5 -29q-64 0 -107 24q-4 3 -4 7v50q0 5 4 3q49 -29 105 -29q43 0 64.5 16t21.5 41
q0 59 -91 59h-33q-3 0 -3 4z" />
    <glyph glyph-name="acute" unicode="&#xb4;" horiz-adv-x="389" 
d="M152 561l104 142q3 7 8 7h80q9 0 4 -7l-118 -143q-3 -4 -9 -4h-66q-5 0 -3 5z" />
    <glyph glyph-name="uni00B5" unicode="&#xb5;" horiz-adv-x="546" 
d="M475 -10q-16 0 -29 3t-27 11t-23 26.5t-11 46.5v24q-44 -111 -150 -111q-58 0 -86 38q4 -73 2 -235q0 -6 -5 -7q-47 -7 -70 -7q-6 0 -6 7v694q0 6 7 6h70q6 0 6 -6v-322q0 -44 23 -69.5t63 -25.5q61 0 98.5 52t37.5 149v216q0 6 5 6h73q5 0 5 -6v-361q0 -34 9.5 -46.5
t30.5 -12.5q6 0 20 3q3 0 3 -6v-52q0 -6 -4 -8q-17 -7 -42 -7z" />
    <glyph glyph-name="paragraph" unicode="&#xb6;" horiz-adv-x="576" 
d="M310 661h169q5 0 5 -5q-3 -18 -3 -53l-2 -484q0 -154 5 -186q1 -5 -5 -5h-39q-6 0 -7 4q-7 34 -7 218v451l-71 -1v-451q0 -185 -8 -218q-1 -4 -6 -4h-40q-5 0 -4 6q5 45 5 185v196q-72 -3 -130.5 12t-99.5 56.5t-41 106.5q0 172 279 172z" />
    <glyph glyph-name="periodcentered" unicode="&#xb7;" horiz-adv-x="221" 
d="M111 198q-24 0 -39 15t-15 40q0 23 15 38.5t39 15.5t39 -15.5t15 -38.5q0 -25 -14.5 -40t-39.5 -15z" />
    <glyph glyph-name="cedilla" unicode="&#xb8;" horiz-adv-x="389" 
d="M178 5h55l-35 -50q86 -24 86 -91q0 -39 -30 -63.5t-76 -24.5q-41 0 -69 14q-4 3 -4 8v37q0 7 6 5q27 -14 62 -14q49 0 49 36q0 42 -94 55q-2 1 -2.5 8.5t1.5 10.5z" />
    <glyph glyph-name="onesuperior" unicode="&#xb9;" horiz-adv-x="254" 
d="M173 427h-57q-4 0 -4 5v303q-29 -12 -70 -24q-5 -1 -5 4v44q0 5 3 5q45 14 84 31q4 3 9 3h41q4 0 4 -4v-362q0 -5 -5 -5z" />
    <glyph glyph-name="ordmasculine" unicode="&#xba;" horiz-adv-x="370" 
d="M187 584q71 0 114 -45.5t43 -117.5q0 -74 -44 -117.5t-113 -43.5q-78 0 -119.5 48.5t-41.5 113.5q0 72 44.5 117t116.5 45zM186 531q-42 0 -66.5 -29.5t-24.5 -78.5q0 -45 24.5 -77.5t68.5 -32.5q38 0 64 27.5t26 80.5q0 43 -23 76.5t-69 33.5z" />
    <glyph glyph-name="guillemotright" unicode="&#xbb;" horiz-adv-x="540" 
d="M485 262v-44q0 -4 -4 -7l-201 -173q-8 -5 -8 4v65q0 6 5 10l139 124l-139 124q-5 5 -5 9v68q0 8 8 5l201 -177q4 -3 4 -8zM270 262v-44q0 -3 -5 -5l-201 -175q-6 -4 -6 4v65q0 7 4 10l139 124l-139 124q-4 4 -4 9v68q0 8 7 5l201 -177q4 -4 4 -8z" />
    <glyph glyph-name="onequarter" unicode="&#xbc;" horiz-adv-x="697" 
d="M173 -10h-50q-7 0 -4 5l362 647q2 3 5 3h52q5 0 3 -4l-361 -646q-2 -5 -7 -5zM173 266h-57q-4 0 -4 5v303q-29 -12 -70 -24q-5 -1 -5 4v44q0 5 3 5q45 14 84 31q4 3 9 3h41q4 0 4 -4v-362q0 -5 -5 -5zM597 0h-49q-4 0 -4 5v89h-172q-5 0 -5 4v32q0 4 3 8l168 229q4 4 8 4
h51q4 0 4 -5v-223h63q4 0 4 -5l-6 -40q-1 -4 -5 -4h-56v-89q0 -5 -4 -5zM427 142h117q0 128 2 168h-1q-4 -7 -118 -168z" />
    <glyph glyph-name="onehalf" unicode="&#xbd;" horiz-adv-x="733" 
d="M163 -10h-50q-5 0 -4 6l362 646q2 3 6 3h52q6 0 2 -4l-360 -646q-3 -5 -8 -5zM175 266h-57q-5 0 -5 5v303q-33 -14 -70 -24q-5 -2 -5 4v44q0 5 3 5q39 11 85 31q4 3 8 3h42q3 0 3 -4v-362q0 -5 -4 -5zM686 0h-257q-4 0 -4 4v36q0 3 2 5q106 76 137 107q51 51 51 95
q0 71 -78 71q-55 0 -98 -27q-6 -4 -6 3v48q0 4 4 7q48 28 112 28q63 0 96.5 -35t33.5 -86q0 -54 -37 -97.5t-113 -100.5h169q3 0 3 -4l-9 -50q-1 -4 -6 -4z" />
    <glyph glyph-name="threequarters" unicode="&#xbe;" horiz-adv-x="730" 
d="M229 -10h-50q-7 0 -4 6l362 646q2 3 5 3h52q5 0 3 -4l-361 -646q-3 -5 -7 -5zM635 0h-48q-4 0 -4 5v89h-173q-4 0 -4 4v32q0 4 3 8l77 105l91 124q4 4 7 4h51q5 0 5 -5v-223h63q5 0 3 -5l-6 -40q-1 -4 -5 -4h-55v-89q0 -5 -5 -5zM466 142h117q0 128 2 168h-1
q-9 -16 -62 -89.5t-56 -78.5zM103 436v43q0 4 4 4h34q74 0 74 52t-76 52q-50 0 -92 -26q-5 -3 -5 3v47q0 3 3 6q44 26 107 26q58 0 90.5 -27t32.5 -69q0 -59 -54 -82v-1q30 -9 51 -31.5t21 -60.5q0 -53 -41.5 -82t-104.5 -29q-64 0 -107 24q-4 2 -4 7v50q0 5 4 3
q49 -29 105 -29q42 0 63.5 16t21.5 41q0 59 -90 59h-33q-4 0 -4 4z" />
    <glyph glyph-name="questiondown" unicode="&#xbf;" horiz-adv-x="353" 
d="M196 -190q-80 0 -125.5 43.5t-45.5 110.5q0 76 65 141l12.5 12.5l13 13l11.5 12t11.5 13t9.5 11.5t8.5 12l6 11.5t4.5 12t1 11.5q0 30 -20 61q-5 7 4 7h60q6 0 10 -4q24 -29 24 -71q0 -23 -13 -47.5t-24 -36.5l-45 -47q-29 -30 -41.5 -52t-12.5 -50q0 -39 25 -62t74 -23
q67 0 123 35q6 2 6 -4v-67q0 -6 -3 -8q-59 -35 -139 -35zM187 491q23 0 37 -13.5t14 -37.5q0 -22 -14 -36.5t-37 -14.5t-37 14.5t-14 36.5q0 23 13.5 37t37.5 14z" />
    <glyph glyph-name="Agrave" unicode="&#xc0;" horiz-adv-x="586" 
d="M416 208h-254l-72 -202q-2 -6 -8 -6h-68q-8 0 -6 8l218 607q6 16 7 41q0 5 5 5h98q5 0 6 -5l235 -649q3 -7 -4 -7h-76q-5 0 -8 5zM185 285h208l-30.5 88l-45 130.5t-28.5 89.5h-1q-11 -43 -103 -308zM214 838l120 -108q4 -7 -4 -7h-72q-7 0 -12 4l-134 108q-3 2 -2 4.5
t5 2.5h89q6 0 10 -4z" />
    <glyph glyph-name="Aacute" unicode="&#xc1;" horiz-adv-x="586" 
d="M416 208h-254l-72 -202q-2 -6 -8 -6h-68q-8 0 -6 8l218 607q6 16 7 41q0 5 5 5h98q5 0 6 -5l235 -649q3 -7 -4 -7h-76q-5 0 -8 5zM185 285h208l-30.5 88l-45 130.5t-28.5 89.5h-1q-11 -43 -103 -308zM234 727l124 111q3 3 9 3h88q8 0 3 -7l-135 -108q-4 -5 -11 -5h-75
q-7 0 -3 6z" />
    <glyph glyph-name="Acircumflex" unicode="&#xc2;" horiz-adv-x="586" 
d="M416 208h-254l-72 -202q-2 -6 -8 -6h-68q-8 0 -6 8l218 607q6 16 7 41q0 5 5 5h98q5 0 6 -5l235 -649q3 -7 -4 -7h-76q-5 0 -8 5zM185 285h208l-30.5 88l-45 130.5t-28.5 89.5h-1q-11 -43 -103 -308zM360 717l-74 75l-72 -75q-3 -5 -9 -5h-64q-2 0 -3 1.5t-0.5 3t1.5 3.5
l107 111q4 3 8 3h68q6 0 10 -4l112 -113q3 -5 -4 -5h-69q-6 0 -11 5z" />
    <glyph glyph-name="Adieresis" unicode="&#xc4;" horiz-adv-x="586" 
d="M416 208h-254l-72 -202q-2 -6 -8 -6h-68q-8 0 -6 8l218 607q6 16 7 41q0 5 5 5h98q5 0 6 -5l235 -649q3 -7 -4 -7h-76q-5 0 -8 5zM185 285h208l-30.5 88l-45 130.5t-28.5 89.5h-1q-11 -43 -103 -308zM192 725q-21 0 -34 12.5t-13 32.5t14 33t35 13t34 -13.5t13 -32.5
q0 -20 -13.5 -32.5t-35.5 -12.5zM384 725q-20 0 -33.5 12.5t-13.5 32.5q0 19 14.5 32.5t34.5 13.5t33.5 -13t13.5 -33q0 -21 -13 -33t-36 -12z" />
    <glyph glyph-name="Aring" unicode="&#xc5;" horiz-adv-x="586" 
d="M416 208h-254l-72 -202q-2 -6 -8 -6h-68q-8 0 -6 8l218 607q6 16 7 41q0 5 5 5h98q5 0 6 -5l235 -649q3 -7 -4 -7h-76q-5 0 -8 5zM185 285h208l-30.5 88l-45 130.5t-28.5 89.5h-1q-11 -43 -103 -308zM185 780q0 39 29 62.5t74 23.5q46 0 74.5 -24t28.5 -62
q0 -39 -29 -63.5t-74 -24.5q-47 0 -75 24t-28 64zM235 780q0 -21 15 -34t38 -13q24 0 39 12.5t15 34.5q0 21 -15 33.5t-39 12.5t-38.5 -12.5t-14.5 -33.5z" />
    <glyph glyph-name="AE" unicode="&#xc6;" horiz-adv-x="799" 
d="M71 0h-77q-8 0 -4 7l317 610q12 29 15 40q1 4 6 4h415q6 0 6 -6l5 -65q1 -5 -5 -5h-287l16 -210h257q5 0 4 -5l-2 -67q-1 -4 -6 -4h-247l18 -223h280q5 0 5 -6l-13 -65q-2 -5 -7 -5h-338q-5 0 -4 4l-18 222h-215l-113 -221q-4 -5 -8 -5zM226 301h176l-15 194
q-5 65 -8 109h-2q-9 -21 -30.5 -66.5t-23.5 -50.5z" />
    <glyph glyph-name="Ccedilla" unicode="&#xc7;" horiz-adv-x="551" 
d="M278 -64l43 58q-121 17 -201 101t-80 237q0 151 96 245t255 94q92 0 128 -18q5 -2 5 -8v-67q0 -7 -7 -5q-43 23 -128 23q-119 0 -191.5 -71.5t-72.5 -190.5q0 -60 17.5 -108t44.5 -77t62.5 -48.5t69.5 -27t68 -7.5q77 0 125 18q6 2 6 -4v-61q0 -9 -5 -10
q-45 -19 -135 -19h-4l-25 -35q86 -24 86 -91q0 -40 -30 -64t-76 -24q-41 0 -69 14q-4 1 -4 7v39q0 5 5 4q27 -14 63 -14q49 0 49 36q0 42 -94 55q-2 1 -2.5 8.5t1.5 10.5z" />
    <glyph glyph-name="Egrave" unicode="&#xc8;" horiz-adv-x="509" 
d="M486 70l-11 -64q-1 -6 -7 -6h-380q-8 0 -8 8v646q0 7 7 7h365q6 0 7 -6l8 -63q2 -7 -5 -7h-299v-209h270q6 0 6 -6v-64q0 -6 -6 -6h-270v-224h318q7 0 5 -6zM206 836l120 -107q4 -7 -4 -7h-72q-7 0 -12 4l-134 108q-3 2 -2 4.5t5 2.5h89q6 0 10 -5z" />
    <glyph glyph-name="Eacute" unicode="&#xc9;" horiz-adv-x="509" 
d="M486 70l-11 -64q-1 -6 -7 -6h-380q-8 0 -8 8v646q0 7 7 7h365q6 0 7 -6l8 -63q2 -7 -5 -7h-299v-209h270q6 0 6 -6v-64q0 -6 -6 -6h-270v-224h318q7 0 5 -6zM206 728l124 110q4 4 10 4h88q3 0 3.5 -2.5t-1.5 -4.5l-134 -109q-5 -4 -11 -4h-75q-8 0 -4 6z" />
    <glyph glyph-name="Ecircumflex" unicode="&#xca;" horiz-adv-x="509" 
d="M486 70l-11 -64q-1 -6 -7 -6h-380q-8 0 -8 8v646q0 7 7 7h365q6 0 7 -6l8 -63q2 -7 -5 -7h-299v-209h270q6 0 6 -6v-64q0 -6 -6 -6h-270v-224h318q7 0 5 -6zM338 723l-74 75l-72 -75q-3 -5 -9 -5h-65q-2 0 -3 3t1 5l107 111q4 3 8 3h68q8 0 10 -4l112 -113q3 -5 -3 -5
h-70q-7 0 -10 5z" />
    <glyph glyph-name="Edieresis" unicode="&#xcb;" horiz-adv-x="509" 
d="M486 70l-11 -64q-1 -6 -7 -6h-380q-8 0 -8 8v646q0 7 7 7h365q6 0 7 -6l8 -63q2 -7 -5 -7h-299v-209h270q6 0 6 -6v-64q0 -6 -6 -6h-270v-224h318q7 0 5 -6zM169 733q-21 0 -34.5 12.5t-13.5 32.5q0 19 14.5 32t34.5 13q21 0 34.5 -13t13.5 -32q0 -20 -14 -32.5
t-35 -12.5zM361 733q-21 0 -34 12.5t-13 32.5q0 19 14 32t34 13q21 0 34.5 -12.5t13.5 -32.5q0 -21 -13.5 -33t-35.5 -12z" />
    <glyph glyph-name="Iacute" unicode="&#xcd;" horiz-adv-x="244" 
d="M163 655v-648q0 -7 -6 -7h-70q-7 0 -7 7v647q0 7 6 7h71q6 0 6 -6zM72 728l124 110q3 4 9 4h88q8 0 3 -7l-135 -108q-4 -5 -11 -5h-75q-9 0 -3 6z" />
    <glyph glyph-name="Icircumflex" unicode="&#xce;" horiz-adv-x="244" 
d="M163 655v-648q0 -7 -6 -7h-70q-7 0 -7 7v647q0 7 6 7h71q6 0 6 -6zM191 713l-74 75l-72 -75q-3 -5 -9 -5h-64q-3 0 -3.5 3t1.5 5l107 111q3 3 7 3h69q7 0 10 -4l111 -113q2 -1 1 -3t-4 -2h-70q-7 0 -10 5z" />
    <glyph glyph-name="Idieresis" unicode="&#xcf;" horiz-adv-x="244" 
d="M163 655v-648q0 -7 -6 -7h-70q-7 0 -7 7v647q0 7 6 7h71q6 0 6 -6zM25 727q-21 0 -34.5 12.5t-13.5 32.5q0 19 14.5 32t34.5 13q21 0 34.5 -13t13.5 -32q0 -20 -14 -32.5t-35 -12.5zM217 727q-21 0 -34 12t-13 33q0 19 14 32t34 13q21 0 34.5 -12.5t13.5 -32.5
q0 -21 -13.5 -33t-35.5 -12z" />
    <glyph glyph-name="Ntilde" unicode="&#xd1;" horiz-adv-x="671" 
d="M153 0h-66q-7 0 -7 7v648q0 6 6 6h99q4 0 9 -6q277 -468 319 -550h1q-3 41 -3 152v397q0 7 7 7h66q7 0 7 -8v-646q0 -7 -9 -7h-89q-9 0 -11 6q-13 24 -160 276t-166 295h-1q4 -78 4 -176v-394q0 -7 -6 -7zM239 725h-48q-6 0 -6 5q1 50 27 79.5t65 29.5q34 0 72.5 -27
t53.5 -27q30 0 35 47q1 4 6 4h48q5 0 5 -4q-7 -108 -88 -108q-31 0 -69.5 26.5t-56.5 26.5q-15 0 -26 -12t-13 -35q0 -5 -5 -5z" />
    <glyph glyph-name="Oacute" unicode="&#xd3;" horiz-adv-x="683" 
d="M341 671q137 0 218.5 -95.5t82.5 -241.5q1 -158 -83 -251t-216 -93q-140 0 -221.5 95.5t-81.5 246.5q0 150 85 244.5t216 94.5zM125 332q0 -114 58 -190.5t162 -76.5q99 0 155.5 73t55.5 194q0 117 -59 190.5t-157 73.5q-94 0 -154.5 -70t-60.5 -194zM277 734l123 110
q4 3 10 3h88q3 0 3.5 -2.5t-1.5 -4.5l-134 -108q-4 -5 -11 -5h-75q-3 0 -4 2.5t1 4.5z" />
    <glyph glyph-name="Ocircumflex" unicode="&#xd4;" horiz-adv-x="683" 
d="M341 671q137 0 218.5 -95.5t82.5 -241.5q1 -158 -83 -251t-216 -93q-140 0 -221.5 95.5t-81.5 246.5q0 150 85 244.5t216 94.5zM125 332q0 -114 58 -190.5t162 -76.5q99 0 155.5 73t55.5 194q0 117 -59 190.5t-157 73.5q-94 0 -154.5 -70t-60.5 -194zM410 727l-74 75
l-72 -75q-3 -5 -9 -5h-64q-2 0 -3 1.5t-0.5 3t1.5 3.5l107 111q4 3 8 3h68q7 0 10 -4l111 -113q5 -5 -3 -5h-69q-6 0 -11 5z" />
    <glyph glyph-name="Odieresis" unicode="&#xd6;" horiz-adv-x="683" 
d="M341 671q137 0 218.5 -95.5t82.5 -241.5q1 -158 -83 -251t-216 -93q-140 0 -221.5 95.5t-81.5 246.5q0 150 85 244.5t216 94.5zM125 332q0 -114 58 -190.5t162 -76.5q99 0 155.5 73t55.5 194q0 117 -59 190.5t-157 73.5q-94 0 -154.5 -70t-60.5 -194zM244 738
q-21 0 -34 12.5t-13 32.5q0 19 14 32t35 13t34 -13t13 -32q0 -20 -13.5 -32.5t-35.5 -12.5zM436 738q-20 0 -33.5 12.5t-13.5 32.5q0 19 14.5 32t34.5 13t33.5 -13t13.5 -32q0 -21 -13.5 -33t-35.5 -12z" />
    <glyph glyph-name="Oslash" unicode="&#xd8;" horiz-adv-x="683" 
d="M505 517l-288 -414q54 -40 128 -40q101 0 158.5 73.5t57.5 195.5q0 113 -56 185zM179 141l289 415q-54 42 -128 42q-95 0 -157 -70.5t-62 -195.5q0 -116 58 -191zM601 655l-49 -71q88 -93 90 -250q1 -158 -83 -251t-216 -93q-97 0 -170 49l-25 -35q-3 -4 -7 -4h-53
q-7 0 -3 6l47 68q-92 94 -92 258q0 150 85 244.5t216 94.5q99 0 171 -52l27 39q3 3 7 3h51q7 0 4 -6z" />
    <glyph glyph-name="Ugrave" unicode="&#xd9;" horiz-adv-x="641" 
d="M154 655v-411q0 -84 44 -131.5t125 -47.5q164 0 164 181v408q0 7 6 7h71q7 0 7 -7v-409q0 -131 -68.5 -193t-182.5 -62q-116 0 -182.5 63.5t-66.5 185.5v415q0 7 6 7h71q6 0 6 -6zM264 841l120 -108q5 -7 -4 -7h-72q-6 0 -12 5l-134 107q-5 7 3 7h89q7 0 10 -4z" />
    <glyph glyph-name="Uacute" unicode="&#xda;" horiz-adv-x="641" 
d="M154 655v-411q0 -84 44 -131.5t125 -47.5q164 0 164 181v408q0 7 6 7h71q7 0 7 -7v-409q0 -131 -68.5 -193t-182.5 -62q-116 0 -182.5 63.5t-66.5 185.5v415q0 7 6 7h71q6 0 6 -6zM255 729l123 110q4 3 10 3h88q3 0 3.5 -2.5t-1.5 -4.5l-134 -108q-4 -5 -11 -5h-75
q-3 0 -4 2.5t1 4.5z" />
    <glyph glyph-name="Ucircumflex" unicode="&#xdb;" horiz-adv-x="641" 
d="M154 655v-411q0 -84 44 -131.5t125 -47.5q164 0 164 181v408q0 7 6 7h71q7 0 7 -7v-409q0 -131 -68.5 -193t-182.5 -62q-116 0 -182.5 63.5t-66.5 185.5v415q0 7 6 7h71q6 0 6 -6zM392 724l-74 75l-72 -75q-3 -4 -9 -4h-64q-5 1 -2 7l107 111q3 3 8 3h68q7 0 10 -4
l111 -112q5 -5 -3 -5h-69q-7 0 -11 4z" />
    <glyph glyph-name="Udieresis" unicode="&#xdc;" horiz-adv-x="641" 
d="M154 655v-411q0 -84 44 -131.5t125 -47.5q164 0 164 181v408q0 7 6 7h71q7 0 7 -7v-409q0 -131 -68.5 -193t-182.5 -62q-116 0 -182.5 63.5t-66.5 185.5v415q0 7 6 7h71q6 0 6 -6zM224 732q-21 0 -34 12.5t-13 32.5q0 19 14 32t35 13t34 -13t13 -32q0 -20 -13.5 -32.5
t-35.5 -12.5zM416 732q-21 0 -34 12t-13 33q0 19 14.5 32t34.5 13t34 -13t14 -32q0 -21 -13.5 -33t-36.5 -12z" />
    <glyph glyph-name="Yacute" unicode="&#xdd;" horiz-adv-x="517" 
d="M209 271l-220 383q-2 3 0 5t5 2h81q4 0 8 -4q167 -301 179 -329q24 49 176 328q2 5 8 5h79q7 0 3 -6l-221 -386q-8 -12 -8 -26v-236q0 -7 -7 -7h-68q-9 0 -9 7v239q0 16 -6 25zM197 728l124 110q3 4 9 4h89q7 0 2 -7l-134 -108q-5 -5 -11 -5h-75q-8 0 -4 6z" />
    <glyph glyph-name="germandbls" unicode="&#xdf;" horiz-adv-x="553" 
d="M157 0h-73q-5 0 -5 6v408h-66q-4 0 -4 7v59q0 6 5 6h65v12q0 100 54 164.5t157 64.5q102 0 150.5 -66t38.5 -157q-72 -18 -102.5 -45t-30.5 -53q0 -17 14.5 -33t52.5 -42q66 -48 88 -87t22 -89q0 -72 -53.5 -118.5t-143.5 -46.5q-69 0 -107 22q-5 2 -5 11v64q0 6 5 3
q47 -27 109 -27q48 0 80 22.5t33 61.5q1 30 -17.5 58t-70.5 64q-51 36 -71 63.5t-20 62.5q0 46 38.5 84.5t98.5 60.5q0 47 -29.5 81.5t-80.5 34.5q-126 0 -126 -172l-1 -478q0 -6 -5 -6z" />
    <glyph glyph-name="agrave" unicode="&#xe0;" horiz-adv-x="474" 
d="M323 75v157q-28 4 -66 4q-144 0 -144 -89q0 -38 29 -63.5t90 -25.5q50 0 91 17zM404 308v-223q0 -32 2 -48q0 -3 -2 -4q-91 -43 -187 -43q-83 0 -134.5 40.5t-51.5 116.5t62 114.5t161 38.5q47 0 69 -2v24q0 14 -4.5 29t-15 32t-35 28t-58.5 11q-72 0 -127 -30
q-7 -2 -7 5v61q0 5 5 8q62 30 142 30q91 0 136 -52t45 -136zM183 705l107 -144q4 -6 -4 -6h-68q-4 0 -7 5l-123 142q-4 7 3 7h84q4 0 8 -4z" />
    <glyph glyph-name="aacute" unicode="&#xe1;" horiz-adv-x="474" 
d="M323 75v157q-28 4 -66 4q-144 0 -144 -89q0 -38 29 -63.5t90 -25.5q50 0 91 17zM404 308v-223q0 -32 2 -48q0 -3 -2 -4q-91 -43 -187 -43q-83 0 -134.5 40.5t-51.5 116.5t62 114.5t161 38.5q47 0 69 -2v24q0 14 -4.5 29t-15 32t-35 28t-58.5 11q-72 0 -127 -30
q-7 -2 -7 5v61q0 5 5 8q62 30 142 30q91 0 136 -52t45 -136zM177 561l104 142q3 7 8 7h80q9 0 4 -7l-118 -143q-3 -4 -9 -4h-66q-5 0 -3 5z" />
    <glyph glyph-name="acircumflex" unicode="&#xe2;" horiz-adv-x="474" 
d="M323 75v157q-28 4 -66 4q-144 0 -144 -89q0 -38 29 -63.5t90 -25.5q50 0 91 17zM404 308v-223q0 -32 2 -48q0 -3 -2 -4q-91 -43 -187 -43q-83 0 -134.5 40.5t-51.5 116.5t62 114.5t161 38.5q47 0 69 -2v24q0 14 -4.5 29t-15 32t-35 28t-58.5 11q-72 0 -127 -30
q-7 -2 -7 5v61q0 5 5 8q62 30 142 30q91 0 136 -52t45 -136zM298 559l-71 102l-69 -103q-2 -3 -8 -3h-54q-8 0 -3 7l97 138q2 4 6 4h65q7 0 8 -4l100 -139q4 -6 -3 -6h-60q-5 0 -8 4z" />
    <glyph glyph-name="adieresis" unicode="&#xe4;" horiz-adv-x="474" 
d="M323 75v157q-28 4 -66 4q-144 0 -144 -89q0 -38 29 -63.5t90 -25.5q50 0 91 17zM404 308v-223q0 -32 2 -48q0 -3 -2 -4q-91 -43 -187 -43q-83 0 -134.5 40.5t-51.5 116.5t62 114.5t161 38.5q47 0 69 -2v24q0 14 -4.5 29t-15 32t-35 28t-58.5 11q-72 0 -127 -30
q-7 -2 -7 5v61q0 5 5 8q62 30 142 30q91 0 136 -52t45 -136zM145 588q-20 0 -32.5 12.5t-12.5 33.5t13 34t34 13q19 0 31 -13t12 -34t-13 -33.5t-32 -12.5zM328 588q-20 0 -32.5 12.5t-12.5 33.5t13.5 34t32.5 13q20 0 32 -13t12 -34q0 -20 -12.5 -33t-32.5 -13z" />
    <glyph glyph-name="aring" unicode="&#xe5;" horiz-adv-x="474" 
d="M323 75v157q-28 4 -66 4q-144 0 -144 -89q0 -38 29 -63.5t90 -25.5q50 0 91 17zM404 308v-223q0 -32 2 -48q0 -3 -2 -4q-91 -43 -187 -43q-83 0 -134.5 40.5t-51.5 116.5t62 114.5t161 38.5q47 0 69 -2v24q0 14 -4.5 29t-15 32t-35 28t-58.5 11q-72 0 -127 -30
q-7 -2 -7 5v61q0 5 5 8q62 30 142 30q91 0 136 -52t45 -136zM137 634q0 40 27 65t71 25t72 -25t28 -65q0 -41 -28.5 -66.5t-71.5 -25.5q-44 0 -71 24.5t-27 67.5zM185 634q0 -23 14 -36t36 -13q21 0 35.5 13t14.5 36q0 22 -14.5 35.5t-35.5 13.5q-22 0 -36 -13t-14 -36z" />
    <glyph glyph-name="ae" unicode="&#xe6;" horiz-adv-x="771" 
d="M114 145q0 -41 28.5 -63.5t77.5 -22.5q76 0 131 54q-21 50 -21 118h-75q-141 0 -141 -86zM31 140q0 73 60 112.5t164 39.5h75v28q0 39 -24.5 70.5t-88.5 31.5q-71 0 -135 -37q-6 -3 -6 5v63q0 4 3 7q72 36 152 36q115 0 148 -88q60 88 169 88q64 0 109 -32t63.5 -75
t18.5 -90q0 -59 -8 -63q-18 -6 -107 -6h-216q1 -76 43 -121t123 -46q73 0 125 28q6 4 6 -4v-60q0 -5 -5 -8q-51 -29 -138 -29q-112 0 -174 71q-84 -71 -185 -71q-71 0 -121.5 38t-50.5 112zM541 426q-57 0 -94 -37t-38 -98h204q39 0 45 3q2 3 2 19q0 41 -28.5 77t-90.5 36z
" />
    <glyph glyph-name="ccedilla" unicode="&#xe7;" horiz-adv-x="420" 
d="M395 474v-63q0 -6 -7 -4q-37 15 -92 15q-78 0 -127 -48.5t-49 -129.5q0 -86 51 -132.5t125 -46.5q58 0 93 14q6 1 6 -4v-62q0 -6 -4 -7q-41 -16 -102 -16l-25 -35q86 -24 86 -91q0 -39 -30 -63.5t-76 -24.5q-41 0 -69 14q-4 3 -4 8v37q0 7 6 5q27 -14 62 -14q49 0 49 36
q0 42 -94 55q-2 1 -2.5 8.5t1.5 10.5l42 57q-95 14 -147.5 83.5t-52.5 164.5q0 111 72.5 183t188.5 72q65 0 95 -13q4 -2 4 -9z" />
    <glyph glyph-name="egrave" unicode="&#xe8;" horiz-adv-x="482" 
d="M337 233h-218q-1 -75 42 -122.5t125 -47.5q70 0 125 27q5 3 5 -4v-57q0 -7 -5 -10q-58 -29 -141 -29q-62 0 -109 21.5t-73.5 58t-39.5 79t-13 90.5q0 109 60 183t161 74q51 0 90.5 -19t61 -50t32.5 -64.5t11 -67.5t-4 -52q0 -6 -7 -6q-20 -4 -103 -4zM120 295h186
q58 0 64 2q1 3 1 11q0 16 -5.5 34.5t-18 38.5t-37 33t-57.5 13q-58 0 -92 -38t-41 -94zM202 705l107 -144q4 -6 -4 -6h-67q-6 0 -8 5l-123 142q-3 7 3 7h84q5 0 8 -4z" />
    <glyph glyph-name="eacute" unicode="&#xe9;" horiz-adv-x="482" 
d="M337 233h-218q-1 -75 42 -122.5t125 -47.5q70 0 125 27q5 3 5 -4v-57q0 -7 -5 -10q-58 -29 -141 -29q-62 0 -109 21.5t-73.5 58t-39.5 79t-13 90.5q0 109 60 183t161 74q51 0 90.5 -19t61 -50t32.5 -64.5t11 -67.5t-4 -52q0 -6 -7 -6q-20 -4 -103 -4zM120 295h186
q58 0 64 2q1 3 1 11q0 16 -5.5 34.5t-18 38.5t-37 33t-57.5 13q-58 0 -92 -38t-41 -94zM197 561l104 142q3 7 8 7h80q9 0 4 -7l-118 -143q-3 -4 -9 -4h-66q-5 0 -3 5z" />
    <glyph glyph-name="ecircumflex" unicode="&#xea;" horiz-adv-x="482" 
d="M337 233h-218q-1 -75 42 -122.5t125 -47.5q70 0 125 27q5 3 5 -4v-57q0 -7 -5 -10q-58 -29 -141 -29q-62 0 -109 21.5t-73.5 58t-39.5 79t-13 90.5q0 109 60 183t161 74q51 0 90.5 -19t61 -50t32.5 -64.5t11 -67.5t-4 -52q0 -6 -7 -6q-20 -4 -103 -4zM120 295h186
q58 0 64 2q1 3 1 11q0 16 -5.5 34.5t-18 38.5t-37 33t-57.5 13q-58 0 -92 -38t-41 -94zM317 559l-71 102l-70 -103q-2 -3 -7 -3h-55q-3 0 -3.5 2.5t1.5 4.5l96 138q3 4 7 4h65q5 0 8 -4l100 -139q4 -6 -4 -6h-59q-7 0 -8 4z" />
    <glyph glyph-name="edieresis" unicode="&#xeb;" horiz-adv-x="482" 
d="M337 233h-218q-1 -75 42 -122.5t125 -47.5q70 0 125 27q5 3 5 -4v-57q0 -7 -5 -10q-58 -29 -141 -29q-62 0 -109 21.5t-73.5 58t-39.5 79t-13 90.5q0 109 60 183t161 74q51 0 90.5 -19t61 -50t32.5 -64.5t11 -67.5t-4 -52q0 -6 -7 -6q-20 -4 -103 -4zM120 295h186
q58 0 64 2q1 3 1 11q0 16 -5.5 34.5t-18 38.5t-37 33t-57.5 13q-58 0 -92 -38t-41 -94zM155 587q-20 0 -32.5 12.5t-12.5 33.5t13 34t34 13q19 0 31 -13t12 -34t-13 -33.5t-32 -12.5zM338 587q-20 0 -32.5 12.5t-12.5 33.5t13.5 34t32.5 13q20 0 32 -13t12 -34
q0 -20 -12.5 -33t-32.5 -13z" />
    <glyph glyph-name="iacute" unicode="&#xed;" horiz-adv-x="225" 
d="M70 8v471q0 7 7 7h71q6 0 6 -6v-473q0 -7 -7 -7h-69q-8 0 -8 8zM70 561l104 142q3 7 8 7h80q9 0 4 -7l-118 -143q-3 -4 -9 -4h-66q-5 0 -3 5z" />
    <glyph glyph-name="icircumflex" unicode="&#xee;" horiz-adv-x="225" 
d="M70 8v471q0 7 7 7h71q6 0 6 -6v-473q0 -7 -7 -7h-69q-8 0 -8 8zM180 559l-71 102l-69 -103q-2 -3 -7 -3h-55q-8 0 -3 7l97 138q3 4 7 4h65q5 0 8 -4l99 -139q6 -6 -3 -6h-59q-6 0 -9 4z" />
    <glyph glyph-name="idieresis" unicode="&#xef;" horiz-adv-x="225" 
d="M70 8v471q0 7 7 7h71q6 0 6 -6v-473q0 -7 -7 -7h-69q-8 0 -8 8zM21 587q-20 0 -32.5 12.5t-12.5 33.5t13 34t34 13q19 0 31 -13t12 -34t-13 -33.5t-32 -12.5zM204 587q-20 0 -32.5 12.5t-12.5 33.5t13.5 34t32.5 13q20 0 32 -13t12 -34q0 -20 -12.5 -33t-32.5 -13z" />
    <glyph glyph-name="ntilde" unicode="&#xf1;" horiz-adv-x="535" 
d="M70 7v366q0 73 -4 107q0 6 6 6h62q6 0 9 -6q2 -6 6 -50q66 66 153 66q30 0 56 -8.5t51.5 -28.5t40.5 -60t15 -96v-296q0 -7 -7 -7h-70q-7 0 -7 8v287q0 59 -26 93t-77 34q-74 0 -125 -61v-354q0 -7 -6 -7h-71q-6 0 -6 7zM152 568h-47q-6 0 -6 7q2 53 27.5 81.5t66.5 28.5
q34 0 79.5 -27t59.5 -27q32 0 37 47q0 5 5 5h48q5 0 5 -4q-5 -113 -89 -113q-30 0 -74.5 27.5t-65.5 27.5q-35 0 -42 -48q0 -5 -4 -5z" />
    <glyph glyph-name="oacute" unicode="&#xf3;" horiz-adv-x="527" 
d="M265 496q104 0 166 -71t62 -181q0 -114 -63.5 -184t-164.5 -70q-58 0 -103.5 22t-72.5 58.5t-40.5 80.5t-13.5 92q0 108 63.5 180.5t166.5 72.5zM261 424q-63 0 -102.5 -49.5t-39.5 -129.5q0 -79 39.5 -131t108.5 -52q58 0 99.5 46.5t41.5 133.5q0 77 -37 129.5
t-110 52.5zM208 561l104 142q3 7 8 7h80q9 0 4 -7l-118 -143q-3 -4 -9 -4h-66q-5 0 -3 5z" />
    <glyph glyph-name="ocircumflex" unicode="&#xf4;" horiz-adv-x="527" 
d="M265 496q104 0 166 -71t62 -181q0 -114 -63.5 -184t-164.5 -70q-58 0 -103.5 22t-72.5 58.5t-40.5 80.5t-13.5 92q0 108 63.5 180.5t166.5 72.5zM261 424q-63 0 -102.5 -49.5t-39.5 -129.5q0 -79 39.5 -131t108.5 -52q58 0 99.5 46.5t41.5 133.5q0 77 -37 129.5
t-110 52.5zM330 559l-71 102l-70 -103q-1 -3 -7 -3h-55q-3 0 -3.5 2.5t1.5 4.5l96 138q3 4 7 4h65q5 0 8 -4l100 -139q4 -6 -4 -6h-59q-5 0 -8 4z" />
    <glyph glyph-name="odieresis" unicode="&#xf6;" horiz-adv-x="527" 
d="M265 496q104 0 166 -71t62 -181q0 -114 -63.5 -184t-164.5 -70q-58 0 -103.5 22t-72.5 58.5t-40.5 80.5t-13.5 92q0 108 63.5 180.5t166.5 72.5zM261 424q-63 0 -102.5 -49.5t-39.5 -129.5q0 -79 39.5 -131t108.5 -52q58 0 99.5 46.5t41.5 133.5q0 77 -37 129.5
t-110 52.5zM170 587q-20 0 -32.5 12.5t-12.5 33.5t13 34t34 13q19 0 31 -13t12 -34t-13 -33.5t-32 -12.5zM353 587q-20 0 -32.5 12.5t-12.5 33.5t13.5 34t32.5 13q20 0 32 -13t12 -34q0 -20 -12.5 -33t-32.5 -13z" />
    <glyph glyph-name="oslash" unicode="&#xf8;" horiz-adv-x="527" 
d="M382 359l-201 -271q36 -28 86 -28q60 0 101.5 47t41.5 135q0 68 -28 117zM148 124l203 272q-36 30 -90 30q-64 0 -104.5 -50.5t-40.5 -130.5q0 -71 32 -121zM472 480l-41 -55q62 -70 62 -181q0 -114 -63.5 -184t-164.5 -70q-75 0 -130 37l-20 -27q-3 -4 -9 -4h-46
q-7 0 -2 7l42 56q-65 71 -65 184q0 108 63.5 180.5t166.5 72.5q77 0 131 -40l20 27q4 4 7 4h46q8 0 3 -7z" />
    <glyph glyph-name="ugrave" unicode="&#xf9;" horiz-adv-x="528" 
d="M457 480v-374q0 -56 6 -100q0 -6 -6 -6h-64q-5 0 -8 5q-4 15 -6 43q-57 -58 -145 -58q-72 0 -118.5 43.5t-46.5 144.5v302q0 6 7 6h71q5 0 5 -6v-292q0 -59 27 -91.5t79 -32.5q70 0 116 51v365q0 6 7 6h70q6 0 6 -6zM213 705l107 -144q4 -6 -3 -6h-68q-3 0 -8 5l-122 142
q-3 7 3 7h84q4 0 7 -4z" />
    <glyph glyph-name="uacute" unicode="&#xfa;" horiz-adv-x="528" 
d="M457 480v-374q0 -56 6 -100q0 -6 -6 -6h-64q-5 0 -8 5q-4 15 -6 43q-57 -58 -145 -58q-72 0 -118.5 43.5t-46.5 144.5v302q0 6 7 6h71q5 0 5 -6v-292q0 -59 27 -91.5t79 -32.5q70 0 116 51v365q0 6 7 6h70q6 0 6 -6zM215 561l104 142q3 7 8 7h80q9 0 4 -7l-118 -143
q-3 -4 -9 -4h-66q-5 0 -3 5z" />
    <glyph glyph-name="ucircumflex" unicode="&#xfb;" horiz-adv-x="528" 
d="M457 480v-374q0 -56 6 -100q0 -6 -6 -6h-64q-5 0 -8 5q-4 15 -6 43q-57 -58 -145 -58q-72 0 -118.5 43.5t-46.5 144.5v302q0 6 7 6h71q5 0 5 -6v-292q0 -59 27 -91.5t79 -32.5q70 0 116 51v365q0 6 7 6h70q6 0 6 -6zM332 560l-71 102l-70 -103q-3 -3 -7 -3h-55q-3 0 -4 3
t1 4l97 139q4 4 7 4h65q5 0 8 -5l100 -139q4 -6 -4 -6h-59q-6 0 -8 4z" />
    <glyph glyph-name="udieresis" unicode="&#xfc;" horiz-adv-x="528" 
d="M457 480v-374q0 -56 6 -100q0 -6 -6 -6h-64q-5 0 -8 5q-4 15 -6 43q-57 -58 -145 -58q-72 0 -118.5 43.5t-46.5 144.5v302q0 6 7 6h71q5 0 5 -6v-292q0 -59 27 -91.5t79 -32.5q70 0 116 51v365q0 6 7 6h70q6 0 6 -6zM175 587q-20 0 -32.5 12.5t-12.5 33.5t13 34t34 13
q19 0 31 -13t12 -34t-13 -33.5t-32 -12.5zM358 587q-20 0 -32.5 12.5t-12.5 33.5t13.5 34t32.5 13q20 0 32 -13t12 -34q0 -20 -12.5 -33t-32.5 -13z" />
    <glyph glyph-name="yacute" unicode="&#xfd;" horiz-adv-x="459" 
d="M11 486h79q5 0 7 -5q115 -304 138 -379l63 177.5l72 201.5q3 5 8 5h71q7 0 4 -7q-109 -320 -272 -687q-3 -6 -11 -7l-75 -6q-6 0 -3 8q55 116 99 221q3 5 0 13l-42.5 104l-75.5 186.5l-67 168.5q-3 6 5 6zM182 561l104 142q3 7 8 7h80q9 0 4 -7l-118 -143q-3 -4 -9 -4
h-66q-5 0 -3 5z" />
    <glyph glyph-name="ydieresis" unicode="&#xff;" horiz-adv-x="459" 
d="M11 486h79q5 0 7 -5q115 -304 138 -379l63 177.5l72 201.5q3 5 8 5h71q7 0 4 -7q-109 -320 -272 -687q-3 -6 -11 -7l-75 -6q-6 0 -3 8q55 116 99 221q3 5 0 13l-42.5 104l-75.5 186.5l-67 168.5q-3 6 5 6zM141 588q-20 0 -32.5 12.5t-12.5 33.5t13 34t33 13
q19 0 31.5 -13t12.5 -34t-13 -33.5t-32 -12.5zM323 588q-19 0 -31.5 12.5t-12.5 33.5t13 34t32 13q20 0 32.5 -13t12.5 -34q0 -20 -13 -33t-33 -13z" />
    <glyph glyph-name="Aogonek" unicode="&#x104;" horiz-adv-x="586" 
d="M184 285h209l-30.5 87.5l-45.5 132t-28 89.5h-1q-16 -60 -104 -309zM487 12l-71 196h-255l-71 -202q-2 -6 -8 -6h-68q-8 0 -6 8l218 607q6 16 7 41q0 5 5 5h98q5 0 6 -5l234 -644q3 -9 -3 -12q-85 -53 -85 -107q0 -24 17 -38.5t47 -14.5q28 0 51 9q7 1 7 -4v-46
q0 -8 -6 -11q-29 -15 -78 -15q-47 0 -82.5 24.5t-35.5 74.5q0 69 87 131q-3 1 -8 9z" />
    <glyph glyph-name="aogonek" unicode="&#x105;" horiz-adv-x="474" 
d="M328 78v155q-20 4 -68 4q-70 0 -108 -23.5t-38 -66.5q0 -38 29.5 -63.5t91.5 -25.5q50 0 93 20zM219 -10q-85 0 -136.5 39t-51.5 116t63 116t163 39q51 0 71 -2v23q0 15 -4 30t-14.5 32t-34 28t-57.5 11q-72 0 -135 -37q-2 -2 -4.5 -0.5t-2.5 4.5v62q0 5 5 8
q67 37 151 37q88 0 132.5 -52.5t44.5 -135.5v-220q0 -34 2 -51q1 -6 -4 -8q-127 -72 -127 -133q0 -25 17 -39.5t46 -14.5q34 0 56 9q7 1 7 -4v-45q0 -8 -6 -12q-27 -15 -80 -15q-47 0 -82.5 24.5t-35.5 74.5q0 66 86 122q-29 -6 -69 -6z" />
    <glyph glyph-name="Cacute" unicode="&#x106;" horiz-adv-x="551" 
d="M518 80v-61q0 -9 -5 -10q-45 -19 -135 -19q-65 0 -123.5 19.5t-107.5 59t-78 107.5t-29 156q0 151 96 245t255 94q92 0 128 -18q5 -2 5 -8v-67q0 -7 -7 -5q-43 23 -128 23q-119 0 -191.5 -71.5t-72.5 -190.5q0 -60 17.5 -108t44.5 -77t62.5 -48.5t69.5 -27t68 -7.5
q77 0 125 18q6 2 6 -4zM279 743l123 110q3 3 10 3h88q3 0 3.5 -2.5t-1.5 -4.5l-134 -108q-3 -4 -11 -4h-75q-9 0 -3 6z" />
    <glyph glyph-name="cacute" unicode="&#x107;" horiz-adv-x="420" 
d="M395 75v-62q0 -6 -4 -7q-41 -16 -109 -16q-117 0 -182 72t-65 179q0 111 72.5 183t188.5 72q65 0 95 -13q4 -2 4 -9v-63q0 -6 -7 -4q-37 15 -92 15q-78 0 -127 -48.5t-49 -129.5q0 -86 51 -132.5t125 -46.5q58 0 93 14q6 1 6 -4zM202 561l104 142q3 7 8 7h80q9 0 4 -7
l-118 -143q-3 -4 -9 -4h-66q-5 0 -3 5z" />
    <glyph glyph-name="Ccaron" unicode="&#x10c;" horiz-adv-x="551" 
d="M518 80v-61q0 -9 -5 -10q-45 -19 -135 -19q-65 0 -123.5 19.5t-107.5 59t-78 107.5t-29 156q0 151 96 245t255 94q92 0 128 -18q5 -2 5 -8v-67q0 -7 -7 -5q-43 23 -128 23q-119 0 -191.5 -71.5t-72.5 -190.5q0 -60 17.5 -108t44.5 -77t62.5 -48.5t69.5 -27t68 -7.5
q77 0 125 18q6 2 6 -4zM269 845l74 -76l72 75q3 5 9 5h64q5 -1 2 -7l-107 -112q-5 -3 -7 -3h-69q-6 0 -10 4l-111 113q-5 5 3 5h69q5 0 11 -4z" />
    <glyph glyph-name="ccaron" unicode="&#x10d;" horiz-adv-x="420" 
d="M395 75v-62q0 -6 -4 -7q-41 -16 -109 -16q-117 0 -182 72t-65 179q0 111 72.5 183t188.5 72q65 0 95 -13q4 -2 4 -9v-63q0 -6 -7 -4q-37 15 -92 15q-78 0 -127 -48.5t-49 -129.5q0 -86 51 -132.5t125 -46.5q58 0 93 14q6 1 6 -4zM188 701l71 -102l69 103q2 3 8 3h54
q8 0 3 -7l-97 -138q-2 -4 -6 -4h-65q-7 0 -8 4l-100 139q-2 2 -0.5 4t3.5 2h59q6 0 9 -4z" />
    <glyph glyph-name="Dcaron" unicode="&#x10e;" horiz-adv-x="649" 
d="M80 8v644q0 7 6 8q75 3 175 3q166 0 257 -87.5t91 -233.5q0 -73 -21.5 -132.5t-56 -98t-82 -65t-97 -37.5t-101.5 -11q-96 0 -166 2q-5 0 -5 8zM163 587v-513q40 -2 85 -2q125 0 200 68.5t76 200.5q0 120 -73.5 184t-191.5 64q-38 0 -96 -2zM216 841l74 -75l72 75
q5 5 9 5h64q3 0 3.5 -3t-1.5 -5l-107 -111q-3 -3 -8 -3h-68q-7 0 -10 4l-111 113q-2 1 -1 3t4 2h69q6 0 11 -5z" />
    <glyph glyph-name="dcaron" unicode="&#x10f;" horiz-adv-x="571" 
d="M521 486l1 226q0 6 5 6h55q6 0 6 -6l-11 -225q-1 -7 -7 -7h-43q-6 0 -6 6zM284 -10q-109 0 -178.5 65t-69.5 184q0 111 76 184t197 73q23 0 63 -6v221q0 6 6 6h72q5 0 5 -5v-630q0 -22 3 -48q0 -4 -5 -7q-78 -37 -169 -37zM372 76v338q-24 10 -66 10q-83 0 -133.5 -51
t-50.5 -130q0 -91 48.5 -135.5t121.5 -44.5q50 0 80 13z" />
    <glyph glyph-name="Eogonek" unicode="&#x118;" horiz-adv-x="509" 
d="M468 0h-40q-78 -55 -78 -105q0 -24 17 -38.5t47 -14.5q28 0 56 8q6 2 6 -4v-47q0 -6 -5 -9q-30 -16 -79 -16q-48 0 -83.5 24.5t-35.5 74.5q0 67 85 127h-270q-8 0 -8 8v646q0 7 7 7h365q6 0 7 -6l8 -63q2 -7 -5 -7h-299v-209h270q6 0 6 -6v-64q0 -6 -6 -6h-270v-224h318
q7 0 5 -6l-11 -64q-1 -6 -7 -6z" />
    <glyph glyph-name="eogonek" unicode="&#x119;" horiz-adv-x="482" 
d="M120 295h185q58 0 64 2q1 3 1 13q0 40 -28 78t-90 38q-58 0 -91.5 -38t-40.5 -93zM286 -8q-69 -4 -120 16.5t-78 58t-40 80.5t-13 92q0 109 59.5 183t161.5 74q98 0 146 -61.5t48 -137.5q0 -35 -4 -51q0 -6 -7 -8q-30 -4 -103 -4h-217q-2 -76 41 -123t125 -47
q72 0 125 27q5 3 5 -4v-58q0 -7 -6 -11q-134 -61 -134 -125q0 -25 17 -39.5t48 -14.5q32 0 52 9q7 3 7 -5v-43q0 -8 -6 -11q-26 -15 -77 -15q-47 0 -81.5 24.5t-34.5 74.5q0 66 86 119z" />
    <glyph glyph-name="Ecaron" unicode="&#x11a;" horiz-adv-x="509" 
d="M486 70l-11 -64q-1 -6 -7 -6h-380q-8 0 -8 8v646q0 7 7 7h365q6 0 7 -6l8 -63q2 -7 -5 -7h-299v-209h270q6 0 6 -6v-64q0 -6 -6 -6h-270v-224h318q7 0 5 -6zM195 839l74 -75l72 75q3 5 9 5h64q3 0 3.5 -3t-1.5 -5l-107 -111q-5 -3 -7 -3h-69q-6 0 -10 4l-111 113
q-5 5 3 5h69q6 0 11 -5z" />
    <glyph glyph-name="ecaron" unicode="&#x11b;" horiz-adv-x="482" 
d="M337 233h-218q-1 -75 42 -122.5t125 -47.5q70 0 125 27q5 3 5 -4v-57q0 -7 -5 -10q-58 -29 -141 -29q-62 0 -109 21.5t-73.5 58t-39.5 79t-13 90.5q0 109 60 183t161 74q51 0 90.5 -19t61 -50t32.5 -64.5t11 -67.5t-4 -52q0 -6 -7 -6q-20 -4 -103 -4zM120 295h186
q58 0 64 2q1 3 1 11q0 16 -5.5 34.5t-18 38.5t-37 33t-57.5 13q-58 0 -92 -38t-41 -94zM175 701l71 -102l69 103q1 3 7 3h55q8 0 3 -7l-97 -138q-2 -4 -7 -4h-64q-6 0 -9 4l-99 139q-2 2 -1 4t4 2h59q6 0 9 -4z" />
    <glyph glyph-name="Lslash" unicode="&#x141;" horiz-adv-x="479" 
d="M163 76h310q7 0 5 -6l-12 -64q-1 -6 -8 -6h-370q-8 0 -8 8v265l-79 -37q-5 -3 -5 3v52q0 5 4 6l80 38v319q0 7 6 7h72q5 0 5 -6v-281l152 71q6 2 6 -5v-49q0 -7 -5 -8l-153 -71v-236z" />
    <glyph glyph-name="lslash" unicode="&#x142;" horiz-adv-x="251" 
d="M163 465l74 39q6 3 6 -3v-39q0 -13 -4 -15l-76 -40v-299q0 -27 10 -37.5t30 -10.5q7 0 20 3q4 0 4 -6v-52q0 -5 -5 -8q-16 -7 -46 -7q-44 0 -70 23.5t-26 87.5v262l-56 -30q-7 -2 -7 3v47q0 5 5 7l58 31v290q0 6 7 6h70q6 0 6 -6v-246z" />
    <glyph glyph-name="Nacute" unicode="&#x143;" horiz-adv-x="671" 
d="M153 0h-66q-7 0 -7 7v648q0 6 6 6h99q4 0 9 -6q277 -468 319 -550h1q-3 41 -3 152v397q0 7 7 7h66q7 0 7 -8v-646q0 -7 -9 -7h-89q-9 0 -11 6q-13 24 -160 276t-166 295h-1q4 -78 4 -176v-394q0 -7 -6 -7zM277 729l124 110q3 3 9 3h88q8 0 3 -7l-135 -108q-4 -5 -10 -5
h-76q-8 0 -3 7z" />
    <glyph glyph-name="nacute" unicode="&#x144;" horiz-adv-x="535" 
d="M70 7v366q0 73 -4 107q0 6 6 6h62q6 0 9 -6q2 -6 6 -50q66 66 153 66q30 0 56 -8.5t51.5 -28.5t40.5 -60t15 -96v-296q0 -7 -7 -7h-70q-7 0 -7 8v287q0 59 -26 93t-77 34q-74 0 -125 -61v-354q0 -7 -6 -7h-71q-6 0 -6 7zM219 561l104 142q3 7 8 7h80q9 0 4 -7l-118 -143
q-3 -4 -9 -4h-66q-5 0 -3 5z" />
    <glyph glyph-name="Ncaron" unicode="&#x147;" horiz-adv-x="671" 
d="M153 0h-66q-7 0 -7 7v648q0 6 6 6h99q4 0 9 -6q277 -468 319 -550h1q-3 41 -3 152v397q0 7 7 7h66q7 0 7 -8v-646q0 -7 -9 -7h-89q-9 0 -11 6q-13 24 -160 276t-166 295h-1q4 -78 4 -176v-394q0 -7 -6 -7zM265 830l74 -75l72 75q4 4 9 4h64q3 0 3.5 -3t-1.5 -4l-107 -111
q-2 -3 -7 -3h-69q-8 0 -9 4l-112 112q-5 5 3 5h70q7 0 10 -4z" />
    <glyph glyph-name="ncaron" unicode="&#x148;" horiz-adv-x="535" 
d="M70 7v366q0 73 -4 107q0 6 6 6h62q6 0 9 -6q2 -6 6 -50q66 66 153 66q30 0 56 -8.5t51.5 -28.5t40.5 -60t15 -96v-296q0 -7 -7 -7h-70q-7 0 -7 8v287q0 59 -26 93t-77 34q-74 0 -125 -61v-354q0 -7 -6 -7h-71q-6 0 -6 7zM193 701l70 -102l70 103q1 3 7 3h55q8 0 3 -7
l-97 -138q-3 -4 -7 -4h-65q-5 0 -8 4l-100 139q-4 6 4 6h59q6 0 9 -4z" />
    <glyph glyph-name="OE" unicode="&#x152;" horiz-adv-x="895" 
d="M465 72v514q-18 3 -76 3q-121 0 -192.5 -67.5t-71.5 -190.5q0 -130 71.5 -196t194.5 -66q55 0 74 3zM495 660h342q7 0 8 -5l8 -63q0 -8 -6 -8h-298v-209h269q6 0 6 -6v-64q0 -6 -6 -6h-269v-223h317q6 0 5 -7l-10 -63q-1 -6 -12 -6h-346q-47 -4 -121 -4
q-157 0 -249.5 88.5t-92.5 244.5q0 158 99 246t255 88q66 0 101 -3z" />
    <glyph glyph-name="oe" unicode="&#x153;" horiz-adv-x="855" 
d="M35 240q0 111 64 181.5t164 70.5q65 0 113.5 -30t73.5 -88q53 118 182 118q95 0 143.5 -61t48.5 -138q0 -50 -8 -54q-15 -6 -108 -6h-215q-2 -75 40.5 -122.5t125.5 -47.5q71 0 125 27q2 1 3.5 -0.5t1.5 -4.5v-54q0 -9 -4 -12q-48 -27 -141 -29q-146 0 -195 116
q-53 -116 -186 -116q-112 0 -170 75t-58 175zM262 420q-64 0 -103.5 -48t-39.5 -129q0 -78 38.5 -129.5t109.5 -51.5q58 0 99.5 44t41.5 134q0 77 -36 128.5t-110 51.5zM494 294h201q47 0 49 6v14q0 37 -28 73t-91 36q-57 0 -91 -36t-40 -93z" />
    <glyph glyph-name="Rcaron" unicode="&#x158;" horiz-adv-x="564" 
d="M156 0h-70q-6 0 -6 6v646q0 8 6 8q84 3 174 3q113 0 179 -48.5t66 -142.5q0 -66 -39 -111.5t-99 -65.5l101.5 -147t92.5 -140q4 -8 -3 -8h-84q-7 0 -11 4l-164 252q-11 16 -23 16h-114v-266q0 -6 -6 -6zM162 345h107q71 0 112 33.5t41 89.5q0 57 -42.5 89t-122.5 32
q-55 0 -95 -2v-242zM188 837l74 -76l72 75q3 5 9 5h64q3 0 3.5 -2.5t-1.5 -4.5l-107 -112q-5 -3 -7 -3h-69q-6 0 -10 4l-111 113q-5 5 3 5h69q7 0 11 -4z" />
    <glyph glyph-name="rcaron" unicode="&#x159;" horiz-adv-x="318" 
d="M70 486h64q6 0 9 -7q6 -17 8 -69q27 37 71 61.5t90 24.5q7 0 7 -7v-72q0 -6 -7 -6q-50 1 -93.5 -20.5t-63.5 -52.5l-1 -332q0 -6 -6 -6h-71q-7 0 -7 7v345q0 81 -5 128q0 6 5 6zM112 701l71 -102l69 103q3 3 8 3h54q4 0 4.5 -2.5t-1.5 -4.5l-97 -139q-3 -4 -6 -4h-65
q-6 0 -8 5l-100 139q-4 6 3 6h60q4 0 8 -4z" />
    <glyph glyph-name="Sacute" unicode="&#x15a;" horiz-adv-x="478" 
d="M212 -10q-105 0 -169 38q-6 2 -6 12v72q0 8 7 3q73 -49 171 -49q69 0 104.5 28t35.5 75q0 37 -26 65t-92 58l-44 18q-86 37 -119 82t-33 101q0 79 57.5 128.5t157.5 49.5q99 0 148 -27q5 -2 5 -10v-67q0 -9 -8 -4q-53 33 -147 33q-71 0 -101.5 -29t-30.5 -67
q0 -35 25.5 -62.5t89.5 -54.5l43 -18q88 -37 123.5 -83t35.5 -106q0 -83 -60 -134.5t-167 -51.5zM179 742l124 110q3 4 10 4h88q3 0 3.5 -2.5t-1.5 -4.5l-134 -108q-5 -5 -11 -5h-75q-8 0 -4 6z" />
    <glyph glyph-name="sacute" unicode="&#x15b;" horiz-adv-x="378" 
d="M317 398q-48 29 -116 29q-46 0 -67 -18t-21 -44q0 -24 19.5 -41.5t73.5 -39.5q77 -30 109.5 -64t32.5 -87q0 -67 -49.5 -105t-129.5 -38q-85 0 -134 29q-5 3 -5 9v67q0 9 6 5q57 -40 135 -40q46 0 70.5 18t24.5 47q0 28 -20 47t-71 39q-76 29 -109 63t-33 87
q0 57 45.5 96t124.5 39t117 -22q5 -2 5 -10v-61q0 -10 -8 -5zM132 561l104 142q3 7 8 7h80q9 0 4 -7l-118 -143q-3 -4 -9 -4h-66q-5 0 -3 5z" />
    <glyph glyph-name="Scaron" unicode="&#x160;" horiz-adv-x="478" 
d="M212 -10q-105 0 -169 38q-6 2 -6 12v72q0 8 7 3q73 -49 171 -49q69 0 104.5 28t35.5 75q0 37 -26 65t-92 58l-44 18q-86 37 -119 82t-33 101q0 79 57.5 128.5t157.5 49.5q99 0 148 -27q5 -2 5 -10v-67q0 -9 -8 -4q-53 33 -147 33q-71 0 -101.5 -29t-30.5 -67
q0 -35 25.5 -62.5t89.5 -54.5l43 -18q88 -37 123.5 -83t35.5 -106q0 -83 -60 -134.5t-167 -51.5zM168 844l74 -75l72 75q5 5 9 5h64q3 0 3.5 -3.5t-1.5 -4.5l-107 -111q-3 -3 -8 -3h-68q-7 0 -10 4l-112 113q-5 5 3 5h70q6 0 11 -5z" />
    <glyph glyph-name="scaron" unicode="&#x161;" horiz-adv-x="378" 
d="M317 398q-48 29 -116 29q-46 0 -67 -18t-21 -44q0 -24 19.5 -41.5t73.5 -39.5q77 -30 109.5 -64t32.5 -87q0 -67 -49.5 -105t-129.5 -38q-85 0 -134 29q-5 3 -5 9v67q0 9 6 5q57 -40 135 -40q46 0 70.5 18t24.5 47q0 28 -20 47t-71 39q-76 29 -109 63t-33 87
q0 57 45.5 96t124.5 39t117 -22q5 -2 5 -10v-61q0 -10 -8 -5zM118 701l71 -102l69 103q2 3 7 3h55q8 0 3 -7l-97 -138q-3 -4 -7 -4h-65q-5 0 -8 4l-99 139q-6 6 3 6h59q6 0 9 -4z" />
    <glyph glyph-name="Tcaron" unicode="&#x164;" horiz-adv-x="518" 
d="M217 7v578h-214q-6 0 -5 7l10 63q2 6 8 6h489q7 0 8 -7l7 -62q1 -7 -5 -7h-214v-577q0 -8 -7 -8h-69q-8 0 -8 7zM189 834l74 -75l72 75q3 5 9 5h65q2 0 3 -3t-1 -5l-108 -111q-2 -3 -7 -3h-68q-9 0 -10 4l-112 113q-5 5 3 5h70q7 0 10 -5z" />
    <glyph glyph-name="tcaron" unicode="&#x165;" horiz-adv-x="293" 
d="M235 586v175q0 8 7 8h56q8 0 8 -8l-14 -175q-1 -7 -8 -7h-43q-6 0 -6 7zM279 65v-51q0 -8 -6 -10q-32 -14 -75 -14q-117 0 -117 131v293h-68q-7 1 -7 8v57q0 7 7 7h68q2 92 9 128q1 6 7 7l68 11q6 2 6 -4q-6 -70 -6 -142h106q6 0 6 -7v-59q0 -6 -6 -6h-106v-281
q0 -72 61 -72q24 0 47 8q6 2 6 -4z" />
    <glyph glyph-name="Uring" unicode="&#x16e;" horiz-adv-x="641" 
d="M154 655v-411q0 -84 44 -131.5t125 -47.5q164 0 164 181v408q0 7 6 7h71q7 0 7 -7v-409q0 -131 -68.5 -193t-182.5 -62q-116 0 -182.5 63.5t-66.5 185.5v415q0 7 6 7h71q6 0 6 -6zM216 782q0 39 28.5 62.5t74.5 23.5t74 -24t28 -62q0 -39 -28.5 -63.5t-73.5 -24.5
q-47 0 -75 24t-28 64zM265 782q0 -21 15 -33.5t39 -12.5t38.5 12.5t14.5 33.5t-15 33.5t-38 12.5q-24 0 -39 -12.5t-15 -33.5z" />
    <glyph glyph-name="uring" unicode="&#x16f;" horiz-adv-x="528" 
d="M457 480v-374q0 -56 6 -100q0 -6 -6 -6h-64q-5 0 -8 5q-4 15 -6 43q-57 -58 -145 -58q-72 0 -118.5 43.5t-46.5 144.5v302q0 6 7 6h71q5 0 5 -6v-292q0 -59 27 -91.5t79 -32.5q70 0 116 51v365q0 6 7 6h70q6 0 6 -6zM167 635q0 41 27.5 66t71.5 25q43 0 71 -25.5
t28 -65.5q0 -41 -28 -66t-71 -25q-44 0 -71.5 24.5t-27.5 66.5zM216 635q0 -22 14.5 -35.5t35.5 -13.5t35.5 13.5t14.5 35.5q0 23 -14.5 36.5t-35.5 13.5q-22 0 -36 -13.5t-14 -36.5z" />
    <glyph glyph-name="Ydieresis" unicode="&#x178;" horiz-adv-x="517" 
d="M209 271l-220 383q-2 3 0 5t5 2h81q4 0 8 -4q167 -301 179 -329q24 49 176 328q2 5 8 5h79q7 0 3 -6l-221 -386q-8 -12 -8 -26v-236q0 -7 -7 -7h-68q-9 0 -9 7v239q0 16 -6 25zM166 720q-21 0 -34 12.5t-13 32.5q0 19 14 32t35 13t34 -13t13 -32q0 -20 -13.5 -32.5
t-35.5 -12.5zM358 720q-20 0 -33.5 12.5t-13.5 32.5q0 19 14.5 32t34.5 13t33.5 -13t13.5 -32q0 -21 -13 -33t-36 -12z" />
    <glyph glyph-name="Zacute" unicode="&#x179;" 
d="M499 0h-479q-7 0 -7 6v46q0 4 3 10l383 523h-368q-6 0 -5 7l11 63q1 6 8 6h455q6 0 6 -5v-48q0 -7 -5 -12l-379 -520h392q6 0 5 -7l-13 -63q-2 -6 -7 -6zM204 738l124 110q3 3 9 3h88q8 0 3 -7l-134 -108q-5 -5 -11 -5h-76q-8 0 -3 7z" />
    <glyph glyph-name="zacute" unicode="&#x17a;" horiz-adv-x="396" 
d="M374 0h-359q-4 0 -4 7v39q0 3 2 9q39 57 147 201.5l118 158.5q-18 -1 -102 -1h-152q-7 0 -6 8l11 58q1 6 7 6h337q5 0 5 -6v-42q0 -5 -4 -12l-100.5 -141l-107.5 -145l-52 -69h32.5h45.5h44h152q7 0 5 -6l-12 -59q-1 -6 -7 -6zM148 561l104 142q3 7 8 7h80q9 0 4 -7
l-118 -143q-3 -4 -9 -4h-66q-5 0 -3 5z" />
    <glyph glyph-name="Zdotaccent" unicode="&#x17b;" 
d="M499 0h-479q-7 0 -7 6v46q0 4 3 10l383 523h-368q-6 0 -5 7l11 63q1 6 8 6h455q6 0 6 -5v-48q0 -7 -5 -12l-379 -520h392q6 0 5 -7l-13 -63q-2 -6 -7 -6zM260 740q-23 0 -36 12.5t-13 32.5t13.5 32.5t36.5 12.5q22 0 35.5 -12.5t13.5 -32.5t-13.5 -32.5t-36.5 -12.5z" />
    <glyph glyph-name="zdotaccent" unicode="&#x17c;" horiz-adv-x="396" 
d="M374 0h-359q-4 0 -4 7v39q0 3 2 9q39 57 147 201.5l118 158.5q-18 -1 -102 -1h-152q-7 0 -6 8l11 58q1 6 7 6h337q5 0 5 -6v-42q0 -5 -4 -12l-100.5 -141l-107.5 -145l-52 -69h32.5h45.5h44h152q7 0 5 -6l-12 -59q-1 -6 -7 -6zM198 582q-23 0 -36.5 14t-13.5 37t14 37
t37 14t36.5 -14.5t13.5 -36.5q0 -23 -14 -37t-37 -14z" />
    <glyph glyph-name="Zcaron" unicode="&#x17d;" 
d="M499 0h-479q-7 0 -7 6v46q0 4 3 10l383 523h-368q-6 0 -5 7l11 63q1 6 8 6h455q6 0 6 -5v-48q0 -7 -5 -12l-379 -520h392q6 0 5 -7l-13 -63q-2 -6 -7 -6zM191 842l73 -76l72 75q5 5 9 5h65q5 -1 2 -7l-107 -112q-5 -3 -8 -3h-68q-8 0 -10 4l-112 113q-3 5 3 5h70
q5 0 11 -4z" />
    <glyph glyph-name="zcaron" unicode="&#x17e;" horiz-adv-x="396" 
d="M374 0h-359q-4 0 -4 7v39q0 3 2 9q39 57 147 201.5l118 158.5q-18 -1 -102 -1h-152q-7 0 -6 8l11 58q1 6 7 6h337q5 0 5 -6v-42q0 -5 -4 -12l-100.5 -141l-107.5 -145l-52 -69h32.5h45.5h44h152q7 0 5 -6l-12 -59q-1 -6 -7 -6zM132 701l71 -102l69 103q2 3 7 3h55
q8 0 3 -7l-97 -138q-3 -4 -7 -4h-65q-5 0 -8 4l-99 139q-6 6 3 6h59q6 0 9 -4z" />
    <glyph glyph-name="uni02BC" unicode="&#x2bc;" horiz-adv-x="261" 
d="M114 465h-58q-7 0 -4 6q37 98 37 177q0 35 -5 63q0 6 4 6h60q6 0 8 -6q6 -20 6 -64q0 -90 -42 -178q-3 -4 -6 -4z" />
    <glyph glyph-name="tilde" unicode="&#x2dc;" horiz-adv-x="389" 
d="M85 568h-47q-6 0 -6 7q2 53 27.5 81.5t66.5 28.5q34 0 79.5 -27t59.5 -27q32 0 37 47q0 5 5 5h48q5 0 5 -4q-5 -113 -89 -113q-29 0 -74 27.5t-66 27.5q-35 0 -42 -48q0 -5 -4 -5z" />
    <glyph glyph-name="upsilon" unicode="&#x3c5;" horiz-adv-x="509" 
d="M348 486h70q6 0 8 -5q14 -32 25.5 -90.5t11.5 -117.5q0 -47 -6.5 -87t-21.5 -77t-39 -62.5t-62 -41t-86 -15.5q-83 0 -132.5 45.5t-49.5 133.5v162q0 113 -9 149q-1 6 5 6h71q5 0 8 -5q9 -22 9 -92v-217q0 -59 30 -84.5t73 -25.5q64 0 95.5 49t31.5 160q0 114 -37 209
q-1 6 5 6z" />
    <glyph glyph-name="uni0417" unicode="&#x417;" horiz-adv-x="496" 
d="M42 564v65q0 5 5 8q68 34 164 34q105 0 160 -46t55 -122q0 -58 -30.5 -95t-76.5 -52q62 -16 100.5 -58.5t38.5 -109.5q0 -93 -72 -145.5t-184 -52.5q-107 0 -170 33q-5 1 -5 9v72q0 3 2.5 4t3.5 -1q67 -42 168 -42q79 0 125 34t46 90q0 122 -186 122h-63q-7 0 -7 6v64
q0 6 6 6h61q74 0 116.5 26.5t42.5 79.5q0 49 -36.5 76t-104.5 27q-85 0 -152 -36q-7 -4 -7 4z" />
    <glyph glyph-name="uni0422" unicode="&#x422;" horiz-adv-x="518" 
d="M217 7v578h-214q-6 0 -5 7l10 63q2 6 8 6h489q7 0 8 -7l7 -62q1 -7 -5 -7h-214v-577q0 -8 -7 -8h-69q-8 0 -8 7z" />
    <glyph glyph-name="uni04F3" unicode="&#x4f3;" horiz-adv-x="459" 
d="M11 486h79q5 0 7 -5q115 -304 138 -379l63 177.5l72 201.5q3 5 8 5h71q7 0 4 -7q-109 -320 -272 -687q-3 -6 -11 -7l-75 -6q-6 0 -3 8q55 116 99 221q3 5 0 13l-42.5 104l-75.5 186.5l-67 168.5q-3 6 5 6zM114 565l75 139q5 6 11 6h62q9 0 3 -8l-86 -141q-5 -6 -11 -6
h-50q-8 0 -4 10zM274 566l76 138q4 6 10 6h62q9 0 5 -8l-87 -140q-4 -6 -12 -6h-48q-9 0 -6 10z" />
    <glyph glyph-name="endash" unicode="&#x2013;" horiz-adv-x="570" 
d="M79 278q0 5 5 5h404q5 0 5 -5v-53q0 -5 -6 -5h-403q-5 0 -5 5v53z" />
    <glyph glyph-name="emdash" unicode="&#x2014;" horiz-adv-x="996" 
d="M79 275q0 6 5 6h828q5 0 5 -6v-52q0 -5 -5 -5h-826q-7 0 -7 4v53z" />
    <glyph glyph-name="quoteleft" unicode="&#x2018;" horiz-adv-x="162" 
d="M79 717h58q6 0 3 -6q-37 -102 -37 -176q0 -28 6 -64q0 -6 -5 -6h-60q-5 0 -8 7q-6 26 -6 64q0 87 42 177q3 4 7 4z" />
    <glyph glyph-name="quoteright" unicode="&#x2019;" horiz-adv-x="163" 
d="M84 465h-58q-7 0 -4 6q37 98 37 177q0 35 -5 63q0 6 4 6h60q6 0 8 -6q6 -20 6 -64q0 -90 -42 -178q-3 -4 -6 -4z" />
    <glyph glyph-name="quotedblleft" unicode="&#x201c;" horiz-adv-x="302" 
d="M222 717h54q6 0 4 -6q-37 -98 -37 -176q0 -34 5 -64q0 -6 -5 -6h-55q-7 0 -8 7q-7 24 -7 64q0 88 43 177q1 4 6 4zM79 717h54q5 0 4 -6q-37 -98 -37 -176q0 -34 5 -64q0 -6 -5 -6h-55q-7 0 -8 7q-7 24 -7 64q0 88 43 177q1 4 6 4z" />
    <glyph glyph-name="quotedblright" unicode="&#x201d;" horiz-adv-x="302" 
d="M80 465h-54q-7 0 -4 6q37 98 37 177q0 35 -5 63q0 6 4 6h56q6 0 8 -6q6 -26 6 -64q0 -90 -42 -178q-3 -4 -6 -4zM223 465h-54q-7 0 -4 6q37 102 37 177q0 35 -5 63q0 6 4 6h56q7 0 8 -6q6 -26 6 -64q0 -90 -42 -178q-3 -4 -6 -4z" />
    <glyph glyph-name="quotedblbase" unicode="&#x201e;" horiz-adv-x="305" 
d="M76 -137h-54q-6 0 -4 6q37 98 37 176q0 34 -5 64q0 6 5 6h55q7 0 8 -7q7 -24 7 -64q0 -87 -43 -177q-1 -4 -6 -4zM219 -137h-54q-5 0 -4 6q37 98 37 176q0 34 -5 64q0 6 5 6h55q7 0 8 -7q7 -24 7 -64q0 -87 -43 -177q-1 -4 -6 -4z" />
    <glyph glyph-name="bullet" unicode="&#x2022;" horiz-adv-x="320" 
d="M72 252q0 37 23.5 62t64.5 25q40 0 63.5 -25t23.5 -62t-23 -61.5t-64 -24.5q-40 0 -64 24.5t-24 61.5z" />
    <glyph glyph-name="ellipsis" unicode="&#x2026;" horiz-adv-x="799" 
d="M647 -10q-24 0 -39 15t-15 40q0 23 15 38.5t39 15.5t39 -15.5t15 -38.5q0 -25 -14.5 -40t-39.5 -15zM111 -10q-24 0 -38.5 15t-14.5 40q0 24 14.5 39t38.5 15t39 -15t15 -39q0 -25 -14.5 -40t-39.5 -15zM381 -10q-24 0 -39 15t-15 40q0 23 15 38.5t39 15.5t39 -15.5
t15 -38.5q0 -25 -14.5 -40t-39.5 -15z" />
    <glyph glyph-name="guilsinglleft" unicode="&#x2039;" horiz-adv-x="325" 
d="M55 223v43q0 6 4 7l201 174q8 3 8 -5v-65q0 -5 -5 -9l-139 -124l140 -125q4 -3 4 -9v-68q0 -9 -8 -4l-201 177q-4 3 -4 8z" />
    <glyph glyph-name="guilsinglright" unicode="&#x203a;" horiz-adv-x="325" 
d="M271 262v-44q0 -4 -5 -7l-201 -173q-7 -5 -7 4v65q0 7 5 10l139 124l-140 124q-4 4 -4 9v68q0 8 7 5l202 -177q4 -4 4 -8z" />
    <glyph glyph-name="Euro" unicode="&#x20ac;" horiz-adv-x="538" 
d="M486 77v-64q0 -6 -5 -8q-34 -15 -109 -15q-112 0 -185.5 72t-86.5 186h-49q-5 0 -5 5v37q0 5 4 5h45q0 50 1 60h-45q-5 0 -5 4v37q0 5 5 5h51q18 107 93 176.5t185 69.5q71 0 102 -14q5 -1 5 -9v-64q0 -8 -7 -4q-38 16 -99 16q-84 0 -135.5 -49t-62.5 -122h212q4 0 4 -4
v-38q0 -4 -5 -4h-216q-3 -28 -1 -60h217q5 0 5 -5v-36q0 -6 -5 -6h-212q11 -81 64.5 -131.5t134.5 -50.5q65 0 100 14q5 2 5 -3z" />
    <glyph glyph-name="ampersand.alt" horiz-adv-x="673" 
d="M251 66q74 0 138 79q-73 63 -168 170q-51 -32 -72 -63t-21 -70q0 -48 35.5 -82t87.5 -34zM567 387h78q8 0 3 -8q-54 -69 -153 -213q65 -57 139 -98q5 -2 5 -10v-67q0 -7 -8 -5q-69 17 -186 114q-52 -61 -98.5 -85.5t-105.5 -24.5q-93 0 -144 55t-51 128q0 55 30.5 99.5
t105.5 91.5q-61 75 -61 146t45.5 116t116.5 45q68 0 109.5 -40t41.5 -101q0 -50 -32 -90t-107 -85q65 -76 147 -147q94 145 115 173q5 6 10 6zM358 528q0 32 -19.5 56.5t-57.5 24.5t-60 -26t-22 -67q0 -58 57 -115q58 36 80 65.5t22 61.5z" />
    <glyph glyph-name="ampersand.alt2" horiz-adv-x="673" 
d="M251 66q74 0 138 79q-73 63 -168 170q-51 -32 -72 -63t-21 -70q0 -48 35.5 -82t87.5 -34zM465 189q89 -77 169 -121q5 -2 5 -10v-67q0 -7 -8 -5q-69 17 -186 114q-52 -61 -98.5 -85.5t-105.5 -24.5q-93 0 -144 55t-51 128q0 55 30.5 99.5t105.5 91.5q-61 75 -61 146
t45.5 116t116.5 45q68 0 109.5 -40t41.5 -101q0 -50 -32 -90t-107 -85q67 -78 170 -166zM358 528q0 32 -19.5 56.5t-57.5 24.5t-60 -26t-22 -67q0 -58 57 -115q58 36 80 65.5t22 61.5z" />
    <glyph glyph-name="i.dot" horiz-adv-x="225" 
d="M70 8v471q0 7 7 7h71q6 0 6 -6v-473q0 -7 -7 -7h-69q-8 0 -8 8zM112 582q-23 0 -36.5 14t-13.5 37t14 37t37 14t36.5 -14.5t13.5 -36.5q0 -23 -14 -37t-37 -14z" />
    <glyph glyph-name="g.alt" horiz-adv-x="522" 
d="M367 85v327q-31 12 -75 12q-81 0 -126 -52t-45 -130q0 -86 48 -129.5t112 -43.5q56 0 86 16zM450 416v-369q0 -63 -10 -115q-36 -168 -235 -168q-89 0 -140 26q-5 4 -5 9v73q0 6 5 3q59 -33 142 -33q87 0 122.5 41t36.5 121v8q-37 -17 -95 -17q-100 0 -168 64t-68 180
q0 112 72.5 184.5t192.5 72.5q87 0 151 -27q2 -1 2 -6q-3 -24 -3 -47z" />
    <glyph glyph-name="acute.cap" horiz-adv-x="389" 
d="M142 731l124 111q3 3 9 3h88q8 0 3 -7l-134 -108q-5 -5 -11 -5h-75q-8 0 -4 6z" />
    <glyph glyph-name="tilde.cap" horiz-adv-x="389" 
d="M94 722h-48q-6 0 -6 5q1 50 27 79.5t65 29.5q34 0 72.5 -27t53.5 -27q30 0 35 46q0 5 5 5h48q6 0 6 -5q-8 -108 -88 -108q-32 0 -70.5 27t-55.5 27q-15 0 -26 -12.5t-13 -35.5q0 -4 -5 -4z" />
    <glyph glyph-name="macron.cap" horiz-adv-x="389" 
d="M63 808h266q5 0 5 -6v-54q0 -6 -6 -6h-263q-7 0 -7 6v54q0 6 5 6z" />
    <glyph glyph-name="dieresis.cap" horiz-adv-x="389" 
d="M98 729q-21 0 -34 12.5t-13 32.5q0 19 14 32t34 13q21 0 34.5 -13t13.5 -32q0 -20 -14 -32.5t-35 -12.5zM290 729q-21 0 -34 12.5t-13 32.5q0 19 14 32t35 13q20 0 33.5 -13t13.5 -32q0 -21 -13.5 -33t-35.5 -12z" />
    <glyph glyph-name="cedilla.cap" horiz-adv-x="389" 
d="M178 5h55l-35 -50q86 -24 86 -91q0 -40 -30 -64t-76 -24q-41 0 -69 14q-4 1 -4 7v39q0 5 5 4q27 -14 63 -14q49 0 49 36q0 42 -94 55q-2 1 -2.5 8.5t1.5 10.5z" />
    <glyph glyph-name="a.sc" horiz-adv-x="502" 
d="M339 157h-187l-54 -152q-1 -5 -7 -5h-69q-7 0 -5 7l170 477q4 26 4 31q1 5 5 5h92q6 0 8 -5l189 -509q3 -6 -5 -6h-75q-7 0 -8 6zM169 229h152q-7 24 -38 110.5t-39 112.5h-1q-6 -21 -74 -223z" />
    <glyph glyph-name="b.sc" horiz-adv-x="498" 
d="M78 8v505q0 5 5 7q44 2 157 2q107 0 150 -42t43 -99q0 -67 -52 -106q32 -14 56 -43.5t24 -75.5q0 -79 -62 -118.5t-168 -39.5q-99 0 -147 2q-6 1 -6 8zM158 240v-173q30 -2 81 -2q137 0 137 89q0 86 -140 86h-78zM158 453v-145h80q46 0 84 -8q32 26 32 69q-2 85 -119 85
q-58 0 -77 -1z" />
    <glyph glyph-name="c.sc" horiz-adv-x="465" 
d="M430 6q-42 -16 -116 -16q-55 0 -103 16t-87.5 47.5t-62 85t-22.5 122.5q0 114 78 191.5t206 77.5q73 0 107 -14q4 -2 4 -8v-63q0 -7 -6 -5q-41 17 -102 17q-91 0 -147.5 -51.5t-56.5 -142.5q0 -56 19.5 -97t51 -62t63.5 -30.5t66 -9.5q65 0 108 16q5 2 5 -4v-62
q0 -6 -5 -8z" />
    <glyph glyph-name="d.sc" horiz-adv-x="554" 
d="M78 8v504q0 7 6 7q84 3 148 3q138 0 210.5 -73.5t72.5 -184.5q0 -72 -27.5 -126t-72.5 -83t-94 -43t-101 -14q-66 0 -136 2q-6 0 -6 8zM162 453v-385q28 -2 62 -2q93 0 149.5 50.5t56.5 146.5q0 94 -55 143t-140 49q-41 0 -73 -2z" />
    <glyph glyph-name="e.sc" horiz-adv-x="448" 
d="M409 0h-324q-7 0 -7 7v507q0 6 7 6h310q5 0 6 -5l7 -60q2 -7 -6 -7h-242v-148h218q6 0 6 -5v-60q0 -6 -7 -6h-217v-157h260q6 0 5 -6l-9 -61q-2 -5 -7 -5z" />
    <glyph glyph-name="f.sc" horiz-adv-x="436" 
d="M161 216v-210q0 -6 -6 -6h-71q-6 0 -6 6v508q0 6 6 6h314q6 0 7 -6l6 -59q1 -7 -6 -7h-244v-161h219q5 0 5 -5v-59q0 -7 -6 -7h-218z" />
    <glyph glyph-name="g.sc" horiz-adv-x="544" 
d="M288 283h192q6 0 6 -8v-247q0 -9 -5 -11q-67 -27 -162 -27q-138 0 -209 77t-71 191q0 127 85 199.5t207 72.5q95 0 141 -23q4 -1 4 -9v-64q0 -7 -7 -4q-47 27 -136 27q-97 0 -153 -54.5t-56 -143.5q0 -84 52 -140t145 -56q50 0 83 11v139l-116 1q-5 1 -5 7v57q0 5 5 5z
" />
    <glyph glyph-name="h.sc" horiz-adv-x="574" 
d="M490 0h-72q-6 0 -6 6v228h-250v-228q0 -6 -6 -6h-72q-6 0 -6 6v509q0 5 6 5h73q5 0 5 -5v-207h250v207q0 5 6 5h72q6 0 6 -6v-508q0 -6 -6 -6z" />
    <glyph glyph-name="i.sc" horiz-adv-x="240" 
d="M162 514v-508q0 -6 -6 -6h-72q-6 0 -6 7v507q0 6 6 6h72q6 0 6 -6z" />
    <glyph glyph-name="j.sc" horiz-adv-x="273" 
d="M202 162q0 -116 -45.5 -160.5t-124.5 -44.5q-18 0 -34 4q-6 2 -6 10v59q0 6 7 5q16 -2 29 -2q51 0 71 31t20 99v352q0 5 4 5h75q4 0 4 -5v-353z" />
    <glyph glyph-name="k.sc" horiz-adv-x="491" 
d="M256 267l252 -261q4 -6 -3 -6h-92q-7 0 -10 5l-241 252l-1 1v-253q0 -5 -5 -5h-72q-6 0 -6 6v509q0 5 6 5h72q5 0 5 -5v-247l1 1l234 247q4 4 9 4h80q7 0 2 -8l-231 -239q-3 -3 0 -6z" />
    <glyph glyph-name="l.sc" horiz-adv-x="407" 
d="M394 0h-310q-5 0 -5 6v509q0 5 5 5h73q5 0 5 -5v-444h244q5 0 4 -5l-9 -61q-1 -5 -7 -5z" />
    <glyph glyph-name="m.sc" horiz-adv-x="691" 
d="M63 7l28 507q0 6 7 6h106q5 0 7 -5q100 -286 135 -421q16 81 143 420q2 6 8 6h106q6 0 6 -7l18 -507q0 -6 -6 -6h-73q-7 0 -7 7q-2 88 -3 251.5t-2 201.5h-2q-8 -26 -64 -192l-87 -262q-1 -6 -8 -6h-68q-8 0 -9 6l-142 457h-1q0 -98 -15 -456q0 -7 -6 -7h-65q-6 0 -6 7z
" />
    <glyph glyph-name="n.sc" horiz-adv-x="582" 
d="M149 0h-65q-6 0 -6 6v508q0 6 6 6h94q6 0 8 -5q211 -344 243 -427h2q-4 58 -4 131v295q0 6 6 6h65q5 0 5 -6v-508q0 -6 -6 -6h-92q-7 0 -10 6q-216 359 -242 435h-2q4 -60 4 -140v-295q0 -6 -6 -6z" />
    <glyph glyph-name="o.sc" horiz-adv-x="572" 
d="M285 529q107 0 177.5 -75.5t70.5 -190.5q0 -126 -68.5 -199t-179.5 -73q-106 0 -176 72.5t-70 196.5q0 121 69.5 195t176.5 74zM124 262q0 -88 45.5 -143t117.5 -55q76 0 118.5 53t42.5 144q0 88 -46 141.5t-119 53.5q-67 0 -113 -50.5t-46 -143.5z" />
    <glyph glyph-name="p.sc" horiz-adv-x="472" 
d="M78 6v507q0 6 5 6q75 3 140 3q111 0 163.5 -47.5t52.5 -123.5q1 -88 -61.5 -132t-156.5 -44q-25 0 -59 2v-171q0 -6 -6 -6h-72q-6 0 -6 6zM162 453v-208q36 -2 62 -2q23 0 43.5 4t41.5 14.5t33.5 33t12.5 54.5q0 51 -33 78.5t-95 27.5q-41 0 -65 -2z" />
    <glyph glyph-name="q.sc" horiz-adv-x="572" 
d="M124 262q0 -88 45.5 -143t117.5 -55q76 0 118.5 53t42.5 144q0 88 -46 141.5t-119 53.5q-67 0 -113 -50.5t-46 -143.5zM548 -114h-96q-7 0 -11 4q-22 19 -111 104q-22 -3 -45 -3q-106 0 -176 72.5t-70 196.5q0 121 69.5 195t176.5 74t177.5 -75.5t70.5 -190.5
q0 -172 -121 -240q130 -124 137 -130q3 -2 2.5 -4.5t-3.5 -2.5z" />
    <glyph glyph-name="r.sc" horiz-adv-x="498" 
d="M154 0h-70q-6 0 -6 6v507q0 6 6 6q111 3 153 3q101 0 155.5 -41t54.5 -113q0 -101 -113 -136q7 -11 44 -64.5l69 -100t40 -60.5q5 -7 -4 -7h-84q-6 0 -9 5l-61 94l-67 103q-5 9 -16 9h-86v-205q0 -6 -6 -6zM160 278h79q124 0 124 86q0 43 -33 67t-92 24q-60 0 -78 -1
v-176z" />
    <glyph glyph-name="s.sc" horiz-adv-x="418" 
d="M191 -10q-85 0 -146 32q-5 4 -5 10v68q0 9 7 4q62 -43 147 -43q54 0 79 20t25 50q0 29 -23 51t-91 48q-80 31 -110 67.5t-29 88.5q0 62 48.5 102.5t131.5 40.5q82 0 126 -23q4 -2 4 -9v-64q0 -9 -7 -4q-50 30 -124 30q-53 0 -77 -21t-24 -49q0 -27 19.5 -46t74.5 -40
q97 -36 130 -74.5t33 -93.5q0 -63 -48.5 -104t-140.5 -41z" />
    <glyph glyph-name="t.sc" horiz-adv-x="444" 
d="M177 6v443h-165q-7 0 -6 7l9 59q1 5 6 5h403q5 0 6 -5l8 -60q1 -7 -5 -7h-173v-442q0 -6 -6 -6h-71q-6 0 -6 6z" />
    <glyph glyph-name="u.sc" horiz-adv-x="558" 
d="M154 514v-317q0 -63 33.5 -98t90.5 -35q54 0 90.5 30.5t36.5 101.5v318q0 6 6 6h72q5 0 5 -6v-324q0 -99 -59 -149.5t-154 -50.5q-96 0 -150.5 52t-54.5 146v326q0 6 6 6h72q6 0 6 -6z" />
    <glyph glyph-name="v.sc" horiz-adv-x="499" 
d="M255 76q29 96 153 439q1 5 8 5h70q8 0 4 -7l-188 -507q-2 -6 -8 -6h-84q-6 0 -9 6l-192 507q-5 7 4 7h76q7 0 8 -5q129 -348 158 -439z" />
    <glyph glyph-name="w.sc" horiz-adv-x="725" 
d="M417 515q83 -328 103 -439h2q2 9 10 53.5t28.5 142t54.5 243.5q2 5 7 5h74q6 0 4 -6l-129 -508q-3 -6 -9 -6h-83q-8 0 -9 7q-84 320 -105 434l-1 1q-16 -89 -114 -436q-1 -6 -9 -6h-80q-8 0 -9 7l-127 507q-1 6 5 6h77q5 0 6 -5q55 -227 97 -439h2q21 121 107 438
q1 6 8 6h83q6 0 7 -5z" />
    <glyph glyph-name="x.sc" horiz-adv-x="460" 
d="M444 514l-160 -249l171 -257q4 -8 -5 -8h-83q-7 0 -9 6l-132 211h-1l-130 -212q-3 -5 -9 -5h-77q-7 0 -3 7l165 255l-161 252q-4 6 4 6h83q6 0 8 -4l125 -206h1l126 205q3 5 9 5h74q8 0 4 -6z" />
    <glyph glyph-name="y.sc" horiz-adv-x="440" 
d="M258 0h-72q-6 0 -6 6v182q0 17 -6 28l-179 298q-4 6 3 6h83q7 0 9 -5l95 -166l42 -82h1l40 83l90 165q3 5 9 5h75q7 0 3 -6l-174 -298q-7 -12 -7 -26v-184q0 -6 -6 -6z" />
    <glyph glyph-name="z.sc" horiz-adv-x="441" 
d="M414 0h-389q-5 0 -5 5v45q0 5 4 10l291 388h-107h-173q-7 0 -6 6l11 60q2 6 7 6h363q6 0 6 -5v-48q0 -3 -4 -11l-286 -384q31 1 119 1h183q6 0 4 -7l-11 -62q-1 -4 -7 -4z" />
    <glyph glyph-name="ae.sc" horiz-adv-x="664" 
d="M76 0h-71q-5 0 -3 6l239 509q1 5 8 5h349q6 0 6 -5l9 -60q0 -6 -5 -6h-235l17 -151h210q5 0 5 -5v-62q0 -4 -5 -4h-201l19 -156h229q5 -1 5 -5l-11 -61q0 -5 -7 -5h-279q-7 0 -7 6l-19 152h-173l-73 -154q-2 -4 -7 -4zM183 230h138q-26 220 -28 242h-2q-6 -20 -108 -242z
" />
    <glyph glyph-name="lslash.sc" horiz-adv-x="416" 
d="M171 71h244q6 0 5 -5l-9 -61q-1 -5 -8 -5h-309q-6 0 -6 6v203l-64 -31q-6 -4 -6 3v43q0 4 4 7l66 32v252q0 5 5 5h73q5 0 5 -5v-211l126 61q7 2 7 -4v-43q0 -4 -5 -6l-128 -62v-179z" />
    <glyph glyph-name="oslash.sc" horiz-adv-x="572" 
d="M402 406l-199 -321q38 -24 84 -24q77 0 120 54t43 146q0 91 -48 145zM167 118l200 318q-37 23 -84 23q-68 0 -114.5 -51.5t-46.5 -145.5q0 -88 45 -144zM473 521l-30 -48q90 -76 90 -210q0 -127 -68 -199.5t-180 -72.5q-68 0 -122 30l-19 -31q-3 -4 -10 -4h-43q-6 0 -3 5
l36 58q-85 74 -85 211q0 121 69.5 195t176.5 74q66 0 121 -30l15 24q3 4 7 4h42q7 0 3 -6z" />
    <glyph glyph-name="oe.sc" horiz-adv-x="747" 
d="M377 68v384q-19 4 -59 4q-86 0 -140 -51.5t-54 -143.5q0 -94 53.5 -145t141.5 -51q40 0 58 3zM405 520h289q6 0 7 -5l6 -60q2 -7 -5 -7h-243v-148h218q6 0 6 -5v-60q0 -6 -7 -6h-217v-157h261q5 0 5 -6l-9 -61q-2 -5 -7 -5h-291q-3 0 -16.5 -0.5t-37.5 -1.5t-50 -1
q-128 0 -201.5 71t-73.5 191q0 124 78.5 194t199.5 70q58 0 88 -3z" />
    <glyph glyph-name="germandbls.sc" horiz-adv-x="836" 
d="M191 -10q-85 0 -146 32q-5 4 -5 10v68q0 9 7 4q62 -43 147 -43q54 0 79 20t25 50q0 29 -23 51t-91 48q-80 31 -110 67.5t-29 88.5q0 62 48.5 102.5t131.5 40.5q82 0 126 -23q4 -2 4 -9v-64q0 -9 -7 -4q-50 30 -124 30q-53 0 -77 -21t-24 -49q0 -27 19.5 -46t74.5 -40
q97 -36 130 -74.5t33 -93.5q0 -63 -48.5 -104t-140.5 -41zM609 -10q-85 0 -146 32q-5 4 -5 10v68q0 9 7 4q62 -43 147 -43q54 0 79 20t25 50q0 29 -23 51t-91 48q-80 31 -110 67.5t-29 88.5q0 62 48.5 102.5t131.5 40.5q82 0 126 -23q4 -2 4 -9v-64q0 -9 -7 -4
q-50 30 -124 30q-53 0 -77 -21t-24 -49q0 -27 19.5 -46t75.5 -40q96 -36 129 -74.5t33 -93.5q0 -63 -48.5 -104t-140.5 -41z" />
    <glyph glyph-name="aacute.sc" horiz-adv-x="502" 
d="M339 157h-187l-54 -152q-1 -5 -7 -5h-69q-7 0 -5 7l170 477q4 26 4 31q1 5 5 5h92q6 0 8 -5l189 -509q3 -6 -5 -6h-75q-7 0 -8 6zM169 229h152q-7 24 -38 110.5t-39 112.5h-1q-6 -21 -74 -223zM188 593l118 119q3 5 10 5h79q9 0 3 -8l-126 -118q-5 -5 -12 -5h-68
q-8 0 -4 7z" />
    <glyph glyph-name="acircumflex.sc" horiz-adv-x="502" 
d="M339 157h-187l-54 -152q-1 -5 -7 -5h-69q-7 0 -5 7l170 477q4 26 4 31q1 5 5 5h92q6 0 8 -5l189 -509q3 -6 -5 -6h-75q-7 0 -8 6zM169 229h152q-7 24 -38 110.5t-39 112.5h-1q-6 -21 -74 -223zM314 579l-71 75l-71 -76q-2 -2 -9 -2h-64q-3 0 -3.5 2t1.5 3l106 115
q3 2 7 2h66q6 0 9 -4l110 -114q4 -4 -3 -4h-69q-6 0 -9 3z" />
    <glyph glyph-name="adieresis.sc" horiz-adv-x="502" 
d="M339 157h-187l-54 -152q-1 -5 -7 -5h-69q-7 0 -5 7l170 477q4 26 4 31q1 5 5 5h92q6 0 8 -5l189 -509q3 -6 -5 -6h-75q-7 0 -8 6zM169 229h152q-7 24 -38 110.5t-39 112.5h-1q-6 -21 -74 -223zM156 597q-20 0 -32.5 12.5t-12.5 33.5t13 34t33 13t32 -13t12 -34t-13 -33.5
t-32 -12.5zM340 597q-20 0 -32.5 12.5t-12.5 33.5t13 34t32 13q20 0 32.5 -13t12.5 -34q0 -20 -12.5 -33t-32.5 -13z" />
    <glyph glyph-name="agrave.sc" horiz-adv-x="502" 
d="M339 157h-187l-54 -152q-1 -5 -7 -5h-69q-7 0 -5 7l170 477q4 26 4 31q1 5 5 5h92q6 0 8 -5l189 -509q3 -6 -5 -6h-75q-7 0 -8 6zM169 229h152q-7 24 -38 110.5t-39 112.5h-1q-6 -21 -74 -223zM171 714l116 -118q3 -8 -4 -8h-69q-7 0 -11 5l-127 119q-7 7 3 7h80
q8 0 12 -5z" />
    <glyph glyph-name="aring.sc" horiz-adv-x="502" 
d="M339 157h-187l-54 -152q-1 -5 -7 -5h-69q-7 0 -5 7l170 477q4 26 4 31q1 5 5 5h92q6 0 8 -5l189 -509q3 -6 -5 -6h-75q-7 0 -8 6zM169 229h152q-7 24 -38 110.5t-39 112.5h-1q-6 -21 -74 -223zM144 643q0 41 27.5 66t71.5 25q43 0 71 -25t28 -66t-28 -66t-71 -25
q-44 0 -71.5 24.5t-27.5 66.5zM193 643q0 -22 14 -35t36 -13q21 0 35.5 13t14.5 35q0 23 -14.5 36.5t-35.5 13.5q-22 0 -36 -13.5t-14 -36.5z" />
    <glyph glyph-name="ccedilla.sc" horiz-adv-x="465" 
d="M434 508v-63q0 -7 -6 -5q-41 17 -102 17q-91 0 -147.5 -51.5t-56.5 -142.5q0 -56 19.5 -97t51 -62t63.5 -30.5t66 -9.5q65 0 108 16q5 2 5 -4v-62q0 -6 -5 -8q-40 -16 -113 -16l-21 -30q86 -24 86 -89q0 -39 -30 -63.5t-76 -24.5q-43 0 -67 12q-4 3 -4 8v38q0 7 5 4
q29 -13 61 -13q49 0 49 37q0 39 -93 55q-2 2 -2 9t2 10l37 50q-99 15 -162 82t-63 186q0 114 78 191.5t206 77.5q73 0 107 -14q4 -2 4 -8z" />
    <glyph glyph-name="eacute.sc" horiz-adv-x="448" 
d="M409 0h-324q-7 0 -7 7v507q0 6 7 6h310q5 0 6 -5l7 -60q2 -7 -6 -7h-242v-148h218q6 0 6 -5v-60q0 -6 -7 -6h-217v-157h260q6 0 5 -6l-9 -61q-2 -5 -7 -5zM171 594l118 118q4 5 10 5h80q8 0 3 -7l-127 -119q-4 -5 -11 -5h-68q-8 0 -5 8z" />
    <glyph glyph-name="ecircumflex.sc" horiz-adv-x="448" 
d="M409 0h-324q-7 0 -7 7v507q0 6 7 6h310q5 0 6 -5l7 -60q2 -7 -6 -7h-242v-148h218q6 0 6 -5v-60q0 -6 -7 -6h-217v-157h260q6 0 5 -6l-9 -61q-2 -5 -7 -5zM300 589l-71 75l-71 -76q-2 -3 -9 -3h-64q-8 0 -2 6l106 114q5 3 7 3h66q6 0 9 -5l110 -113q3 -5 -3 -5h-69
q-6 0 -9 4z" />
    <glyph glyph-name="edieresis.sc" horiz-adv-x="448" 
d="M409 0h-324q-7 0 -7 7v507q0 6 7 6h310q5 0 6 -5l7 -60q2 -7 -6 -7h-242v-148h218q6 0 6 -5v-60q0 -6 -7 -6h-217v-157h260q6 0 5 -6l-9 -61q-2 -5 -7 -5zM144 603q-20 0 -32.5 12.5t-12.5 33.5t13 34t34 13q19 0 31 -13t12 -34t-13 -33.5t-32 -12.5zM328 603
q-20 0 -32.5 12.5t-12.5 33.5t13.5 34t32.5 13q20 0 32 -13t12 -34q0 -20 -12.5 -33t-32.5 -13z" />
    <glyph glyph-name="egrave.sc" horiz-adv-x="448" 
d="M409 0h-324q-7 0 -7 7v507q0 6 7 6h310q5 0 6 -5l7 -60q2 -7 -6 -7h-242v-148h218q6 0 6 -5v-60q0 -6 -7 -6h-217v-157h260q6 0 5 -6l-9 -61q-2 -5 -7 -5zM169 720l116 -119q3 -7 -4 -7h-69q-7 0 -11 5l-127 118q-6 8 3 8h80q9 0 12 -5z" />
    <glyph glyph-name="iacute.sc" horiz-adv-x="240" 
d="M162 514v-508q0 -6 -6 -6h-72q-6 0 -6 7v507q0 6 6 6h72q6 0 6 -6zM65 601l118 119q4 5 11 5h79q8 0 3 -8l-127 -118q-4 -5 -11 -5h-68q-8 0 -5 7z" />
    <glyph glyph-name="icircumflex.sc" horiz-adv-x="240" 
d="M162 514v-508q0 -6 -6 -6h-72q-6 0 -6 7v507q0 6 6 6h72q6 0 6 -6zM189 585l-71 76l-71 -77q-2 -2 -9 -2h-64q-8 0 -3 5l107 115q3 2 7 2h66q6 0 9 -4l110 -114q4 -4 -3 -4h-69q-8 0 -9 3z" />
    <glyph glyph-name="idieresis.sc" horiz-adv-x="240" 
d="M162 514v-508q0 -6 -6 -6h-72q-6 0 -6 7v507q0 6 6 6h72q6 0 6 -6zM28 594q-20 0 -32.5 13t-12.5 33q0 21 13.5 34t33.5 13q19 0 31.5 -13t12.5 -34t-13 -33.5t-33 -12.5zM212 594q-20 0 -32.5 12.5t-12.5 33.5t13.5 34t32.5 13q20 0 32 -13t12 -34q0 -20 -12.5 -33
t-32.5 -13z" />
    <glyph glyph-name="ntilde.sc" horiz-adv-x="582" 
d="M149 0h-65q-6 0 -6 6v508q0 6 6 6h94q6 0 8 -5q211 -344 243 -427h2q-4 58 -4 131v295q0 6 6 6h65q5 0 5 -6v-508q0 -6 -6 -6h-92q-7 0 -10 6q-216 359 -242 435h-2q4 -60 4 -140v-295q0 -6 -6 -6zM184 590h-47q-6 0 -6 6q2 53 27.5 82t66.5 29q34 0 79.5 -27t59.5 -27
q34 0 37 46q0 6 5 6h48q5 0 5 -5q-5 -112 -88 -112q-30 0 -75 27t-65 27q-36 0 -42 -47q0 -5 -5 -5z" />
    <glyph glyph-name="oacute.sc" horiz-adv-x="572" 
d="M285 529q107 0 177.5 -75.5t70.5 -190.5q0 -126 -68.5 -199t-179.5 -73q-106 0 -176 72.5t-70 196.5q0 121 69.5 195t176.5 74zM124 262q0 -88 45.5 -143t117.5 -55q76 0 118.5 53t42.5 144q0 88 -46 141.5t-119 53.5q-67 0 -113 -50.5t-46 -143.5zM214 602l118 119
q2 5 10 5h79q9 0 3 -8l-127 -118q-4 -5 -11 -5h-68q-8 0 -4 7z" />
    <glyph glyph-name="ocircumflex.sc" horiz-adv-x="572" 
d="M285 529q107 0 177.5 -75.5t70.5 -190.5q0 -126 -68.5 -199t-179.5 -73q-106 0 -176 72.5t-70 196.5q0 121 69.5 195t176.5 74zM124 262q0 -88 45.5 -143t117.5 -55q76 0 118.5 53t42.5 144q0 88 -46 141.5t-119 53.5q-67 0 -113 -50.5t-46 -143.5zM354 585l-71 75
l-71 -76q-1 -2 -9 -2h-64q-3 0 -3.5 2t1.5 3l106 114q3 3 7 3h67q5 0 8 -4l110 -114q4 -4 -3 -4h-69q-6 0 -9 3z" />
    <glyph glyph-name="odieresis.sc" horiz-adv-x="572" 
d="M285 529q107 0 177.5 -75.5t70.5 -190.5q0 -126 -68.5 -199t-179.5 -73q-106 0 -176 72.5t-70 196.5q0 121 69.5 195t176.5 74zM124 262q0 -88 45.5 -143t117.5 -55q76 0 118.5 53t42.5 144q0 88 -46 141.5t-119 53.5q-67 0 -113 -50.5t-46 -143.5zM194 597
q-20 0 -32.5 13t-12.5 33q0 21 13 34t33 13q19 0 31.5 -13t12.5 -34t-13 -33.5t-32 -12.5zM377 597q-19 0 -31.5 12.5t-12.5 33.5t13 34t32 13q20 0 32 -13t12 -34q0 -20 -12.5 -33t-32.5 -13z" />
    <glyph glyph-name="scaron.sc" horiz-adv-x="418" 
d="M191 -10q-85 0 -146 32q-5 4 -5 10v68q0 9 7 4q62 -43 147 -43q54 0 79 20t25 50q0 29 -23 51t-91 48q-80 31 -110 67.5t-29 88.5q0 62 48.5 102.5t131.5 40.5q82 0 126 -23q4 -2 4 -9v-64q0 -9 -7 -4q-50 30 -124 30q-53 0 -77 -21t-24 -49q0 -27 19.5 -46t74.5 -40
q97 -36 130 -74.5t33 -93.5q0 -63 -48.5 -104t-140.5 -41zM142 705l71 -76l70 77q4 2 9 2h64q3 0 3.5 -2t-1.5 -3l-106 -115q-2 -2 -7 -2h-66q-6 0 -9 4l-110 114q-4 4 3 4h70q6 0 9 -3z" />
    <glyph glyph-name="uacute.sc" horiz-adv-x="558" 
d="M154 514v-317q0 -63 33.5 -98t90.5 -35q54 0 90.5 30.5t36.5 101.5v318q0 6 6 6h72q5 0 5 -6v-324q0 -99 -59 -149.5t-154 -50.5q-96 0 -150.5 52t-54.5 146v326q0 6 6 6h72q6 0 6 -6zM215 587l118 119q3 5 10 5h79q9 0 3 -8l-126 -118q-5 -5 -12 -5h-68q-8 0 -4 7z" />
    <glyph glyph-name="ucircumflex.sc" horiz-adv-x="558" 
d="M154 514v-317q0 -63 33.5 -98t90.5 -35q54 0 90.5 30.5t36.5 101.5v318q0 6 6 6h72q5 0 5 -6v-324q0 -99 -59 -149.5t-154 -50.5q-96 0 -150.5 52t-54.5 146v326q0 6 6 6h72q6 0 6 -6zM348 579l-72 76l-71 -76q-1 -3 -9 -3h-64q-6 0 -2 6l106 114q4 3 7 3h67q6 0 9 -5
l110 -113q3 -5 -3 -5h-69q-7 0 -9 3z" />
    <glyph glyph-name="udieresis.sc" horiz-adv-x="558" 
d="M154 514v-317q0 -63 33.5 -98t90.5 -35q54 0 90.5 30.5t36.5 101.5v318q0 6 6 6h72q5 0 5 -6v-324q0 -99 -59 -149.5t-154 -50.5q-96 0 -150.5 52t-54.5 146v326q0 6 6 6h72q6 0 6 -6zM187 594q-20 0 -32.5 13t-12.5 33q0 21 13 34t34 13q19 0 31 -13t12 -34t-13 -33.5
t-32 -12.5zM371 594q-20 0 -32.5 12.5t-12.5 33.5t13.5 34t32.5 13q20 0 32 -13t12 -34q0 -20 -12.5 -33t-32.5 -13z" />
    <glyph glyph-name="ugrave.sc" horiz-adv-x="558" 
d="M154 514v-317q0 -63 33.5 -98t90.5 -35q54 0 90.5 30.5t36.5 101.5v318q0 6 6 6h72q5 0 5 -6v-324q0 -99 -59 -149.5t-154 -50.5q-96 0 -150.5 52t-54.5 146v326q0 6 6 6h72q6 0 6 -6zM219 707l116 -119q2 -7 -5 -7h-68q-8 0 -12 5l-127 118q-5 7 4 7h80q8 0 12 -4z" />
    <glyph glyph-name="yacute.sc" horiz-adv-x="440" 
d="M258 0h-72q-6 0 -6 6v182q0 17 -6 28l-179 298q-4 6 3 6h83q7 0 9 -5l95 -166l42 -82h1l40 83l90 165q3 5 9 5h75q7 0 3 -6l-174 -298q-7 -12 -7 -26v-184q0 -6 -6 -6zM162 581l118 119q2 5 10 5h79q10 0 3 -7l-126 -119q-5 -5 -12 -5h-68q-8 0 -4 7z" />
    <glyph glyph-name="ydieresis.sc" horiz-adv-x="440" 
d="M258 0h-72q-6 0 -6 6v182q0 17 -6 28l-179 298q-4 6 3 6h83q7 0 9 -5l95 -166l42 -82h1l40 83l90 165q3 5 9 5h75q7 0 3 -6l-174 -298q-7 -12 -7 -26v-184q0 -6 -6 -6zM130 593q-20 0 -32.5 13t-12.5 33q0 21 13.5 34t33.5 13q19 0 31.5 -13t12.5 -34t-13 -33.5
t-33 -12.5zM314 593q-20 0 -32.5 12.5t-12.5 33.5t13.5 34t32.5 13q20 0 32 -13t12 -34q0 -20 -12.5 -33t-32.5 -13z" />
    <glyph glyph-name="zcaron.sc" horiz-adv-x="441" 
d="M414 0h-389q-5 0 -5 5v45q0 5 4 10l291 388h-107h-173q-7 0 -6 6l11 60q2 6 7 6h363q6 0 6 -5v-48q0 -3 -4 -11l-286 -384q31 1 119 1h183q6 0 4 -7l-11 -62q-1 -4 -7 -4zM152 704l71 -76l71 77q2 2 8 2h64q8 0 3 -5l-107 -115q-2 -2 -6 -2h-67q-6 0 -9 4l-110 114
q-4 4 3 4h70q7 0 9 -3z" />
    <glyph glyph-name="aogonek.sc" horiz-adv-x="502" 
d="M171 231h149q-7 24 -37.5 109.5t-38.5 111.5h-1q-8 -28 -36.5 -114zM391 20l-52 137h-187l-54 -152q-1 -5 -7 -5h-69q-7 0 -5 7l170 477q4 26 4 31q1 5 5 5h92q6 0 8 -5l188 -506q3 -6 -2 -8q-90 -55 -90 -110q0 -24 17 -39.5t46 -15.5q27 0 52 11q7 1 7 -4v-43
q0 -8 -6 -11q-27 -15 -78 -15q-47 0 -81.5 24.5t-34.5 74.5q0 66 89 131q-8 1 -12 16z" />
    <glyph glyph-name="cacute.sc" horiz-adv-x="465" 
d="M430 6q-42 -16 -116 -16q-55 0 -103 16t-87.5 47.5t-62 85t-22.5 122.5q0 114 78 191.5t206 77.5q73 0 107 -14q4 -2 4 -8v-63q0 -7 -6 -5q-41 17 -102 17q-91 0 -147.5 -51.5t-56.5 -142.5q0 -56 19.5 -97t51 -62t63.5 -30.5t66 -9.5q65 0 108 16q5 2 5 -4v-62
q0 -6 -5 -8zM215 594l118 119q3 5 10 5h79q9 0 3 -8l-127 -118q-4 -5 -11 -5h-68q-8 0 -4 7z" />
    <glyph glyph-name="ccaron.sc" horiz-adv-x="465" 
d="M430 6q-42 -16 -116 -16q-55 0 -103 16t-87.5 47.5t-62 85t-22.5 122.5q0 114 78 191.5t206 77.5q73 0 107 -14q4 -2 4 -8v-63q0 -7 -6 -5q-41 17 -102 17q-91 0 -147.5 -51.5t-56.5 -142.5q0 -56 19.5 -97t51 -62t63.5 -30.5t66 -9.5q65 0 108 16q5 2 5 -4v-62
q0 -6 -5 -8zM220 705l71 -75l70 76q3 3 9 3h64q3 0 4 -2.5t-1 -3.5l-107 -114q-3 -3 -6 -3h-67q-6 0 -9 5l-110 113q-3 5 3 5h70q8 0 9 -4z" />
    <glyph glyph-name="dcaron.sc" horiz-adv-x="554" 
d="M78 8v504q0 7 6 7q84 3 148 3q138 0 210.5 -73.5t72.5 -184.5q0 -72 -27.5 -126t-72.5 -83t-94 -43t-101 -14q-66 0 -136 2q-6 0 -6 8zM162 453v-385q28 -2 62 -2q93 0 149.5 50.5t56.5 146.5q0 94 -55 143t-140 49q-41 0 -73 -2zM175 702l72 -76l70 77q4 2 9 2h64
q3 0 3.5 -1.5t-1.5 -3.5l-106 -115q-2 -2 -7 -2h-67q-5 0 -9 4l-109 114q-4 4 3 4h69q8 0 9 -3z" />
    <glyph glyph-name="ecaron.sc" horiz-adv-x="448" 
d="M409 0h-324q-7 0 -7 7v507q0 6 7 6h310q5 0 6 -5l7 -60q2 -7 -6 -7h-242v-148h218q6 0 6 -5v-60q0 -6 -7 -6h-217v-157h260q6 0 5 -6l-9 -61q-2 -5 -7 -5zM169 706l72 -76l70 76q3 3 9 3h64q3 0 3.5 -1.5t-1.5 -3.5l-106 -115q-2 -2 -7 -2h-66q-6 0 -9 4l-110 113
q-3 5 3 5h70q7 0 8 -3z" />
    <glyph glyph-name="eogonek.sc" horiz-adv-x="448" 
d="M409 0h-33q-82 -56 -82 -107q0 -25 17.5 -40.5t47.5 -15.5q28 0 54 11q5 2 5 -4v-47q0 -4 -4 -7q-28 -16 -80 -16q-47 0 -81 24.5t-34 74.5q0 66 86 127h-220q-7 0 -7 7v507q0 6 7 6h310q5 0 6 -5l7 -60q2 -7 -6 -7h-242v-148h218q6 0 6 -5v-60q0 -6 -7 -6h-217v-157h260
q6 0 5 -6l-9 -61q-2 -5 -7 -5z" />
    <glyph glyph-name="i.dotsc" horiz-adv-x="240" 
d="M162 514v-508q0 -6 -6 -6h-72q-6 0 -6 7v507q0 6 6 6h72q6 0 6 -6zM120 592q-22 0 -35 13t-13 34q0 20 13.5 33.5t35.5 13.5t35 -13t13 -34t-13.5 -34t-35.5 -13z" />
    <glyph glyph-name="nacute.sc" horiz-adv-x="582" 
d="M149 0h-65q-6 0 -6 6v508q0 6 6 6h94q6 0 8 -5q211 -344 243 -427h2q-4 58 -4 131v295q0 6 6 6h65q5 0 5 -6v-508q0 -6 -6 -6h-92q-7 0 -10 6q-216 359 -242 435h-2q4 -60 4 -140v-295q0 -6 -6 -6zM225 581l118 119q3 5 10 5h79q9 0 3 -8l-126 -118q-5 -5 -12 -5h-68
q-8 0 -4 7z" />
    <glyph glyph-name="ncaron.sc" horiz-adv-x="582" 
d="M149 0h-65q-6 0 -6 6v508q0 6 6 6h94q6 0 8 -5q211 -344 243 -427h2q-4 58 -4 131v295q0 6 6 6h65q5 0 5 -6v-508q0 -6 -6 -6h-92q-7 0 -10 6q-216 359 -242 435h-2q4 -60 4 -140v-295q0 -6 -6 -6zM223 695l72 -75l70 76q2 2 9 2h64q4 -1 2 -5l-106 -115q-3 -2 -7 -2h-67
q-6 0 -9 4l-110 114q-4 4 3 4h70q8 0 9 -3z" />
    <glyph glyph-name="rcaron.sc" horiz-adv-x="498" 
d="M154 0h-70q-6 0 -6 6v507q0 6 6 6q111 3 153 3q101 0 155.5 -41t54.5 -113q0 -101 -113 -136q7 -11 44 -64.5l69 -100t40 -60.5q5 -7 -4 -7h-84q-6 0 -9 5l-61 94l-67 103q-5 9 -16 9h-86v-205q0 -6 -6 -6zM160 278h79q124 0 124 86q0 43 -33 67t-92 24q-60 0 -78 -1
v-176zM165 699l71 -75l70 76q3 3 9 3h64q3 0 4 -2.5t-1 -3.5l-107 -114q-3 -3 -7 -3h-66q-6 0 -9 5l-110 113q-5 5 3 5h70q5 0 9 -4z" />
    <glyph glyph-name="sacute.sc" horiz-adv-x="418" 
d="M191 -10q-85 0 -146 32q-5 4 -5 10v68q0 9 7 4q62 -43 147 -43q54 0 79 20t25 50q0 29 -23 51t-91 48q-80 31 -110 67.5t-29 88.5q0 62 48.5 102.5t131.5 40.5q82 0 126 -23q4 -2 4 -9v-64q0 -9 -7 -4q-50 30 -124 30q-53 0 -77 -21t-24 -49q0 -27 19.5 -46t74.5 -40
q97 -36 130 -74.5t33 -93.5q0 -63 -48.5 -104t-140.5 -41zM144 603l118 119q2 5 10 5h80q8 0 3 -8l-127 -118q-5 -5 -12 -5h-68q-7 0 -4 7z" />
    <glyph glyph-name="tcaron.sc" horiz-adv-x="444" 
d="M177 6v443h-165q-7 0 -6 7l9 59q1 5 6 5h403q5 0 6 -5l8 -60q1 -7 -5 -7h-173v-442q0 -6 -6 -6h-71q-6 0 -6 6zM153 701l71 -75l70 76q4 2 9 2h64q8 0 3 -5l-107 -115q-2 -2 -7 -2h-66q-6 0 -9 4l-110 114q-4 4 3 4h70q6 0 9 -3z" />
    <glyph glyph-name="uring.sc" horiz-adv-x="558" 
d="M154 514v-317q0 -63 33.5 -98t90.5 -35q54 0 90.5 30.5t36.5 101.5v318q0 6 6 6h72q5 0 5 -6v-324q0 -99 -59 -149.5t-154 -50.5q-96 0 -150.5 52t-54.5 146v326q0 6 6 6h72q6 0 6 -6zM181 651q0 40 27 65t71 25t72 -25t28 -65q0 -41 -28.5 -66.5t-71.5 -25.5
q-44 0 -71 24.5t-27 67.5zM229 651q0 -23 14 -36t36 -13q21 0 35.5 13t14.5 36q0 22 -14.5 35.5t-35.5 13.5q-22 0 -36 -13t-14 -36z" />
    <glyph glyph-name="zacute.sc" horiz-adv-x="441" 
d="M414 0h-389q-5 0 -5 5v45q0 5 4 10l291 388h-107h-173q-7 0 -6 6l11 60q2 6 7 6h363q6 0 6 -5v-48q0 -3 -4 -11l-286 -384q31 1 119 1h183q6 0 4 -7l-11 -62q-1 -4 -7 -4zM157 595l118 119q4 5 11 5h79q9 0 3 -8l-127 -118q-4 -5 -11 -5h-68q-8 0 -5 7z" />
    <glyph glyph-name="zdotaccent.sc" horiz-adv-x="441" 
d="M414 0h-389q-5 0 -5 5v45q0 5 4 10l291 388h-107h-173q-7 0 -6 6l11 60q2 6 7 6h363q6 0 6 -5v-48q0 -3 -4 -11l-286 -384q31 1 119 1h183q6 0 4 -7l-11 -62q-1 -4 -7 -4zM220 592q-22 0 -35.5 13t-13.5 34t14 34t36 13t35 -13t13 -34t-13.5 -34t-35.5 -13z" />
    <glyph glyph-name="ampersand.sc" horiz-adv-x="577" 
d="M263 530q67 0 96 -18q4 -3 4 -8v-61q0 -7 -6 -3q-39 23 -86 23q-36 0 -57.5 -16.5t-21.5 -46.5q0 -42 71 -88h259q6 0 5 -5l-10 -55q-1 -6 -6 -6q-3 0 -90 0.5t-95 0.5q45 -34 103 -118q45 -64 94 -64q7 0 23 2q5 3 5 -4v-56q0 -7 -6 -10q-12 -6 -39 -6q-40 0 -72.5 21
t-72.5 83q-30 45 -63.5 81t-55 52.5t-28.5 16.5q-33 0 -61 -23.5t-28 -65.5q0 -40 30 -66.5t83 -26.5q46 0 82 16q2 1 3 -0.5t1 -4.5v-58q0 -5 -4 -8q-30 -17 -96 -17q-75 0 -128 41.5t-53 115.5q0 56 34 93.5t90 54.5q-57 48 -57 106q0 59 43 93.5t110 34.5z" />
    <glyph glyph-name="ampersand.scalt" horiz-adv-x="586" 
d="M214 59q63 0 105 50q-64 52 -134 129q-69 -42 -69 -93q0 -36 27 -61t71 -25zM481 316h72q2 0 3 -2t-1 -3q-36 -49 -128 -185q57 -44 114 -66q3 0 3 -6v-63q0 -3 -1 -4.5t-3 -0.5q-32 6 -79 30t-83 50q-70 -76 -171 -76q-81 0 -125 43.5t-44 100.5q0 46 25 79t88 70
q-46 55 -46 115q0 55 39.5 93.5t102.5 38.5t98.5 -34t35.5 -79q0 -43 -27 -74t-97 -68q49 -58 117 -111q87 135 98 148q3 4 9 4zM310 412q0 22 -17 40t-47 18t-48.5 -18.5t-18.5 -51.5q0 -42 44 -84q53 29 70 50t17 46z" />
    <glyph glyph-name="ampersand.scalt2" horiz-adv-x="586" 
d="M214 59q63 0 105 50q-64 52 -134 129q-69 -42 -69 -93q0 -36 27 -61t71 -25zM390 151q91 -68 151 -91q3 0 3 -6v-63q0 -3 -1 -4.5t-3 -0.5q-32 6 -79 30t-83 50q-70 -76 -171 -76q-81 0 -125 43.5t-44 100.5q0 46 25 79t88 70q-46 55 -46 115q0 55 39.5 93.5t102.5 38.5
t98.5 -34t35.5 -79q0 -43 -27 -74t-97 -68q50 -59 133 -124zM310 412q0 22 -17 40t-47 18t-48.5 -18.5t-18.5 -51.5q0 -42 44 -84q53 29 70 50t17 46z" />
    <glyph glyph-name="exclam.sc" horiz-adv-x="263" 
d="M153 562q29 0 41 -6q5 -2 5 -7v-76q0 -145 -15 -290q0 -4 -5 -4h-55q-4 0 -4 4q-3 28 -8 129t-5 157v77q0 6 4 9q14 7 42 7zM153 -9q-23 0 -37.5 14t-14.5 35t14 35.5t36 14.5q23 0 38 -14t15 -36t-14.5 -35.5t-36.5 -13.5z" />
    <glyph glyph-name="question.sc" horiz-adv-x="410" 
d="M219 563q71 0 115 -36.5t44 -96.5q0 -40 -17 -68.5t-66 -64.5q-59 -45 -59 -67q0 -20 21 -52q2 -6 -4 -6h-56q-5 0 -10 3q-28 31 -28 69q0 20 11 39t45 45q51 37 66 56t15 43q0 26 -22.5 45.5t-65.5 19.5q-75 0 -131 -38q-6 -3 -6 4v60q0 6 3 8q55 37 145 37zM223 -9
q-23 0 -37.5 14t-14.5 35t14 35.5t37 14.5t37.5 -14t14.5 -36t-14.5 -35.5t-36.5 -13.5z" />
    <glyph glyph-name="exclamdown.sc" horiz-adv-x="245" 
d="M113 -43q-30 0 -42 7q-4 3 -4 9v77q0 112 12 286q2 4 5 4h55q5 0 5 -4q3 -29 8.5 -131.5t5.5 -158.5v-76q0 -4 -4 -7q-12 -6 -41 -6zM112 528q23 0 37.5 -13.5t14.5 -35.5t-15 -36t-38 -14q-22 0 -36 14.5t-14 35.5t14 35t37 14z" />
    <glyph glyph-name="questiondown.sc" horiz-adv-x="383" 
d="M191 -43q-71 0 -114.5 36t-43.5 96q0 41 17 69.5t65 63.5q59 46 59 68q0 20 -21 52q-3 5 4 5h56q7 0 10 -3q28 -30 28 -69q0 -21 -10.5 -39.5t-45.5 -43.5q-51 -38 -66 -57t-15 -43q0 -26 22.5 -45t65.5 -19q74 0 131 37q6 5 6 -4v-59q0 -6 -2 -8q-58 -37 -146 -37z
M187 529q23 0 37.5 -14t14.5 -35q0 -22 -14 -36t-37 -14q-22 0 -37 14t-15 35q0 22 14.5 36t36.5 14z" />
    <glyph glyph-name="acute.sc" horiz-adv-x="389" 
d="M134 586l118 119q2 5 10 5h79q9 0 3 -8l-127 -118q-4 -5 -11 -5h-68q-8 0 -4 7z" />
    <glyph glyph-name="tilde.sc" horiz-adv-x="389" 
d="M85 587h-47q-6 0 -6 7q3 53 28.5 82t66.5 29q33 0 78.5 -27t59.5 -27q34 0 37 46q0 6 5 6h48q5 0 5 -5q-5 -112 -88 -112q-30 0 -75 27t-65 27q-36 0 -42 -48q0 -5 -5 -5z" />
    <glyph glyph-name="macron.sc" horiz-adv-x="389" 
d="M73 661h245q5 0 5 -6v-51q0 -6 -5 -6h-244q-7 0 -7 7v50q0 6 6 6z" />
    <glyph glyph-name="dieresis.sc" horiz-adv-x="389" 
d="M102 591q-20 0 -32.5 13t-12.5 33q0 21 13.5 34.5t33.5 13.5q19 0 31 -13t12 -35q0 -21 -13 -33.5t-32 -12.5zM286 591q-20 0 -32.5 12.5t-12.5 33.5t13.5 34.5t32.5 13.5t31.5 -13.5t12.5 -34.5q0 -20 -12.5 -33t-32.5 -13z" />
    <glyph glyph-name="cedilla.sc" horiz-adv-x="389" 
d="M177 5h56l-37 -52q86 -24 86 -89q0 -39 -30 -63.5t-76 -24.5q-39 0 -67 12q-4 3 -4 8v38q0 6 5 4q29 -13 61 -13q49 0 49 37q0 40 -93 55q-4 4 0 19z" />
    <glyph glyph-name="emdash.alt" horiz-adv-x="999" 
d="M-2 220v64h1004v-64h-1004z" />
    <glyph glyph-name="quoteright.fr" horiz-adv-x="261" 
d="M114 465h-58q-7 0 -4 6q37 98 37 177q0 35 -5 63q0 6 4 6h60q6 0 8 -6q6 -20 6 -64q0 -90 -42 -178q-3 -4 -6 -4z" />
    <glyph glyph-name="quoteright.greek" horiz-adv-x="201" 
d="M24 683v44q0 3 5 6q14 3 35 3q50 0 81 -27t31 -69q0 -40 -30 -67t-75 -33q-6 0 -6 5v42q0 3 5 5q39 15 39 44q0 48 -79 42q-4 0 -6 5z" />
    <glyph glyph-name="space.frac" horiz-adv-x="139" 
 />
    <glyph glyph-name="slash.frac" horiz-adv-x="102" 
d="M-107 -10h-51q-6 0 -3 6l361 646q2 3 6 3h52q6 0 2 -4l-360 -646q-3 -5 -7 -5z" />
    <glyph glyph-name="zero.slash" horiz-adv-x="532" 
d="M376 491l-194 -381q34 -45 88 -45q67 0 100.5 67t33.5 187q0 108 -28 172zM154 162l193 376q-33 35 -81 35q-61 0 -99 -63.5t-38 -187.5q0 -97 25 -160zM267 647q63 0 108.5 -30t68.5 -80.5t33 -103.5t10 -113q0 -65 -11.5 -121.5t-36 -104.5t-68 -76t-102.5 -28
q-111 0 -167.5 91.5t-56.5 237.5q0 143 58.5 235.5t163.5 92.5z" />
    <glyph glyph-name="zero.oldstyle" horiz-adv-x="569" 
d="M286 529q105 0 169 -75t64 -194q0 -121 -64.5 -195.5t-168.5 -74.5q-79 0 -134 41t-78.5 100t-23.5 128q0 117 65 193.5t171 76.5zM283 457q-66 0 -107.5 -53.5t-41.5 -141.5q0 -85 41 -142t113 -57q60 0 103.5 49.5t43.5 145.5q0 84 -38 141.5t-114 57.5z" />
    <glyph glyph-name="one.oldstyle" horiz-adv-x="297" 
d="M134 7v426q-45 -27 -105 -42q-7 -1 -7 6v58q0 5 6 6q68 17 121 56q5 3 12 3h51q5 0 5 -5v-508q0 -7 -7 -7h-69q-7 0 -7 7z" />
    <glyph glyph-name="two.oldstyle" horiz-adv-x="430" 
d="M392 0h-363q-5 0 -5 5v47q0 4 4 8q90 63 144 109q63 54 90 97t27 86q0 45 -29.5 73.5t-81.5 28.5q-65 0 -124 -38q-7 -4 -7 4v63q0 5 4 8q65 39 144 39q84 0 129.5 -47.5t45.5 -119.5q0 -58 -29.5 -107.5t-87.5 -103.5q-40 -36 -104 -83q36 3 143 3h112q6 0 4 -6l-9 -61
q-1 -5 -7 -5z" />
    <glyph glyph-name="three.oldstyle" horiz-adv-x="430" 
d="M154 187h-39q-7 0 -7 6v59q0 6 5 6h29q62 0 99.5 26t37.5 77q0 43 -29 69t-81 26q-70 0 -118 -32q-6 -5 -6 3v61q0 6 4 9q58 33 135 33q84 0 129.5 -44t45.5 -112q0 -60 -30.5 -93.5t-67.5 -47.5v-1q49 -14 89 -52.5t40 -104.5q0 -86 -61.5 -137t-156.5 -51
q-85 0 -140 30q-5 2 -5 9v66q0 8 7 3q59 -35 133 -35q66 0 102.5 32t36.5 83q0 56 -41.5 84t-110.5 28z" />
    <glyph glyph-name="four.oldstyle" horiz-adv-x="515" 
d="M315 67h-274q-6 0 -6 6v54q0 6 4 10l257 379q4 4 9 4h82q6 0 6 -5v-380h97q6 0 4 -6l-8 -56q-1 -6 -8 -6h-85v-157q0 -6 -6 -7q-59 -8 -67 -8q-5 0 -5 7v165zM119 135h196v143q0 72 4 160h-1q-55 -96 -199 -303z" />
    <glyph glyph-name="five.oldstyle" horiz-adv-x="434" 
d="M119 520h257q8 0 5 -7l-16 -64q-1 -5 -8 -5h-192l-35 -139q135 -23 200.5 -77t65.5 -144t-61.5 -144t-158.5 -54q-81 0 -133 27q-6 2 -6 9v67q0 9 7 4q57 -33 131 -33q62 0 100 32t38 88q0 64 -55.5 103t-197.5 60q-6 1 -6 6v37l58 228q2 6 7 6z" />
    <glyph glyph-name="six.oldstyle" horiz-adv-x="526" 
d="M267 347q-36 0 -71 -14.5t-56 -37.5q-4 -18 -4 -55q0 -80 36 -129t96 -49t93 41t33 102q0 66 -33 104t-94 38zM433 646v-60q0 -6 -6 -7q-108 -22 -176.5 -76.5t-95.5 -130.5q59 44 132 44q88 0 139.5 -57t51.5 -149q0 -88 -56 -154t-157 -66q-99 0 -156 71t-57 181
q0 164 105.5 273t269.5 135q5 2 6 -4z" />
    <glyph glyph-name="seven.oldstyle" horiz-adv-x="445" 
d="M34 520h381q5 0 5 -4v-46q0 -6 -3 -12l-83 -180l-109 -233.5l-68 -146.5q-2 -5 -7 -5h-76q-6 0 -4 7l79.5 165l117.5 243.5t65 135.5h-311q-6 0 -5 6l12 66q1 4 6 4z" />
    <glyph glyph-name="eight.oldstyle" horiz-adv-x="510" 
d="M254 576q-52 0 -80 -31t-28 -78q0 -60 43 -93q9 -8 28 -8h78q22 0 31 10q35 35 35 90q0 52 -31 81t-76 29zM256 62q57 0 90.5 31.5t33.5 85.5q0 69 -54 106q-12 9 -28 9h-86q-17 0 -24 -6q-60 -34 -60 -107q0 -55 36.5 -87t91.5 -32zM256 643q87 0 134.5 -50.5
t47.5 -121.5q0 -89 -67 -136q37 -22 64 -62.5t27 -95.5q0 -86 -60 -136.5t-149 -50.5q-92 0 -148.5 52t-56.5 132q0 99 89 155q-70 52 -70 141q0 71 51 122t138 51z" />
    <glyph glyph-name="nine.oldstyle" horiz-adv-x="522" 
d="M112 -114l-1 61q0 6 5 7q77 16 146.5 65t100.5 126q-49 -30 -111 -30q-96 0 -150 55t-54 145q0 87 57 150.5t156 63.5q96 0 153 -70t57 -182q0 -72 -22 -135t-58 -107t-82.5 -77.5t-94.5 -51.5t-95 -25q-7 -1 -7 5zM270 185q71 0 113 34q5 35 5 59q0 79 -33 129.5
t-97 50.5q-60 0 -92.5 -40.5t-32.5 -97.5q0 -64 38 -99.5t99 -35.5z" />
    <glyph glyph-name="numbersign.oldstyle" horiz-adv-x="491" 
d="M109 -30h-46q-5 0 -4 6l38 168h-83q-5 0 -5 7v50q0 5 5 5h96l28 125h-75q-4 0 -4 4v53q0 4 5 4h88l34 152q3 5 7 5h46q5 0 4 -6l-34 -151h111l34 152q0 5 4 5h47q7 0 5 -6l-35 -151h82q6 0 6 -5v-51q0 -5 -5 -5h-96l-28 -125h72q5 0 5 -5v-52q0 -5 -5 -5h-84l-38 -168
q-3 -6 -7 -6h-45q-6 0 -5 6l38 168h-111l-40 -169q-2 -5 -5 -5zM194 331l-27 -125h111l28 125h-112z" />
    <glyph glyph-name="dollar.oldstyle" horiz-adv-x="491" 
d="M201 540v94q0 5 5 5h66q3 0 3 -3v-94q83 -2 123 -26q3 -2 3 -7v-68q0 -5 -5 -2q-63 36 -146 36q-58 0 -83.5 -21.5t-25.5 -48.5q0 -31 25.5 -50.5t96.5 -42.5q98 -34 132.5 -72.5t34.5 -94.5q0 -59 -45 -97.5t-112 -44.5v-98q0 -3 -5 -3h-64q-4 0 -4 4v96q-89 4 -143 37
q-4 2 -4 9l-1 68q0 6 7 3q71 -48 168 -48q57 0 87 19t30 50q1 33 -24.5 54.5t-100.5 46.5q-91 31 -127 67t-36 91q0 54 39.5 92.5t105.5 48.5z" />
    <glyph glyph-name="cent.oldstyle" horiz-adv-x="491" 
d="M335 27v-92q0 -5 -5 -5h-58q-5 0 -5 6v92q-94 14 -147 76.5t-53 154.5q0 96 57.5 159t142.5 77v91q0 5 5 5h58q5 0 5 -5v-88q51 2 86 -15q4 -3 4 -8v-65q0 -8 -7 -4q-36 18 -98 18q-76 0 -122.5 -43.5t-46.5 -117.5q0 -80 51.5 -121t119.5 -41q58 0 97 17q3 1 4 0t1 -5
v-61q0 -6 -5 -8q-27 -15 -84 -17z" />
    <glyph glyph-name="sterling.oldstyle" horiz-adv-x="491" 
d="M426 0h-376q-5 0 -5 5v51q0 5 5 6q94 38 94 154v28h-81q-6 0 -6 4v48q0 4 7 4h77q0 3 -0.5 20.5t-0.5 30.5q0 101 50.5 152t132.5 51q55 0 85 -15q4 -2 4 -8v-62q0 -8 -7 -4q-34 16 -77 16q-109 0 -109 -133q0 -9 0.5 -26.5t0.5 -21.5h135q5 0 5 -5v-47q0 -4 -5 -4h-134
q-1 -64 -16 -103.5t-53 -68.5h288q6 0 5 -6l-11 -60q-2 -6 -8 -6z" />
    <glyph glyph-name="currency.oldstyle" horiz-adv-x="491" 
d="M119 264q0 -65 36.5 -98t82.5 -33q50 0 85 30.5t35 99.5q0 54 -32 94t-89 40q-54 0 -86 -37t-32 -96zM53 264q0 61 36 112l-70 68q-3 3 0 8l34 35q4 4 8 -1l69 -67q45 35 108 35t110 -36l70 67q3 5 8 0l33 -33q2 -3 -1 -8l-70 -68q36 -45 36 -114q0 -65 -33 -110l67 -68
q4 -3 0 -7l-33 -32q-4 -6 -8 0l-66 67q-43 -37 -113 -37q-67 0 -111 35l-64 -65q-5 -7 -9 -1l-33 32q-5 4 0 9l66 67q-34 47 -34 112z" />
    <glyph glyph-name="yen.oldstyle" horiz-adv-x="491" 
d="M278 0h-73q-6 0 -6 5v130h-111q-6 0 -6 5v39q0 6 6 6h111v57h-111q-6 0 -6 5v39q0 5 6 5h97l-165 247q-2 6 3 6h81q6 0 9 -4q121 -196 132 -217h2q13 25 135 216q4 5 8 5h76q7 0 4 -6l-171 -247h99q4 0 4 -5v-40q0 -4 -4 -4h-115v-57h114q5 0 5 -5v-39q0 -6 -5 -6h-114
v-130q0 -5 -5 -5z" />
    <glyph glyph-name="Euro.oldstyle" horiz-adv-x="491" 
d="M460 79v-60q0 -7 -4 -8q-36 -20 -113 -20q-107 0 -174.5 61.5t-82.5 159.5h-51q-4 0 -4 4v33q0 4 3 4h48q0 34 1 48h-48q-4 0 -4 4v33q0 4 3 4h55q17 92 87.5 151.5t174.5 59.5q67 0 104 -17q4 -3 4 -8v-61q0 -4 -1.5 -5.5t-3.5 -0.5q-39 21 -100 21q-74 0 -121.5 -39
t-60.5 -101h197q3 0 3 -4v-33q0 -4 -3 -4h-205q-1 -14 -1 -48h206q3 0 3 -4v-34q0 -3 -4 -3h-199q11 -67 59.5 -108.5t123.5 -41.5q57 0 102 20q6 3 6 -3z" />
    <glyph glyph-name="percent.oldstyle" horiz-adv-x="786" 
d="M621 536l-393 -531q-2 -5 -9 -5h-54q-8 0 -3 7l396 532q3 3 7 3h54q6 0 2 -6zM195 552q72 0 111.5 -46t39.5 -115q0 -65 -39 -113t-113 -48q-73 0 -112 47t-39 112q0 74 44 118.5t108 44.5zM109 392q0 -44 23 -75.5t66 -31.5q39 0 60.5 29.5t21.5 75.5q0 49 -22.5 78
t-63.5 29q-37 0 -61 -28.5t-24 -76.5zM592 312q72 0 112 -46t40 -114q0 -64 -39.5 -113t-113.5 -49q-73 0 -112 47t-39 112q0 74 44 118.5t108 44.5zM507 153q0 -45 22.5 -76.5t65.5 -31.5q40 0 61 29.5t21 75.5q0 50 -22.5 78.5t-63.5 28.5q-37 0 -60.5 -28.5t-23.5 -75.5z
" />
    <glyph glyph-name="zero.slashtabular" horiz-adv-x="505" 
d="M366 491l-194 -381q34 -45 88 -45q67 0 100.5 67t33.5 187q0 108 -28 172zM143 163l193 376q-31 34 -81 34q-60 0 -98 -63.5t-38 -187.5q0 -94 24 -159zM257 647q63 0 108.5 -30t68.5 -80.5t33 -103.5t10 -113q0 -65 -11.5 -121.5t-36 -104.5t-68.5 -76t-102 -28
q-111 0 -167.5 91.5t-56.5 237.5q0 143 58.5 235.5t163.5 92.5z" />
    <glyph glyph-name="zero.tabular" horiz-adv-x="505" 
d="M252 574q-60 0 -97 -63.5t-37 -188.5q0 -115 35.5 -186.5t102.5 -71.5q66 0 99 67.5t33 187.5q0 126 -35 190.5t-101 64.5zM256 -10q-109 0 -165.5 91.5t-56.5 237.5q0 143 58.5 235.5t161.5 92.5q62 0 107 -30t67.5 -80.5t32.5 -103.5t10 -113q0 -65 -11.5 -121.5
t-35.5 -104.5t-67 -76t-101 -28z" />
    <glyph glyph-name="one.tabular" horiz-adv-x="505" 
d="M306 73h130q5 0 5 -6v-61q0 -6 -6 -6h-350q-6 0 -6 6v62q0 5 6 5h137v473q-51 -27 -116 -41q-6 -1 -6 4v61q0 6 4 7q82 20 139 56q5 4 11 4h48q4 0 4 -5v-559z" />
    <glyph glyph-name="two.tabular" horiz-adv-x="505" 
d="M435 0h-394q-6 0 -6 7v45q0 6 4 10q102 80 183 160q68 65 93.5 115t25.5 103q0 58 -33 94t-99 36q-72 0 -148 -44q-7 -5 -7 3v64q0 6 5 9q77 45 166 45q98 0 149 -57t52 -141q0 -123 -119 -242q-63 -64 -150 -137q34 3 157 3h138q4 0 5.5 -1t0.5 -4l-15 -62q-1 -6 -8 -6z
" />
    <glyph glyph-name="three.tabular" horiz-adv-x="505" 
d="M204 299h-42q-7 0 -7 6v62q0 7 6 7h37q67 0 104.5 25.5t37.5 72.5q0 45 -31.5 72.5t-93.5 27.5q-73 0 -145 -41q-5 -3 -5 3v64q0 7 4 9q69 40 160 40t141.5 -45.5t50.5 -118.5q0 -55 -31.5 -90t-72.5 -49q54 -12 95.5 -52t41.5 -110q0 -90 -66 -141t-170 -51
q-99 0 -162 36q-5 2 -5 10v70q0 8 7 3q75 -43 158 -43q77 0 115 32.5t38 84.5q0 58 -44 87t-121 29z" />
    <glyph glyph-name="four.tabular" horiz-adv-x="505" 
d="M321 166h-291q-6 0 -6 4v55q0 5 4 10l271 396q5 6 11 6h85q6 0 6 -6v-396h81q6 0 5 -6l-10 -59q-1 -4 -7 -4h-69v-160q0 -6 -6 -6h-67q-7 0 -7 6v160zM321 235v123q0 119 5 202h-1q-10 -19 -55.5 -88.5l-96.5 -144.5t-61 -92h209z" />
    <glyph glyph-name="five.tabular" horiz-adv-x="505" 
d="M399 562h-214l-20 -78t-18 -71q154 -16 226 -70.5t72 -150.5q0 -90 -63 -146t-169 -56q-91 0 -153 31q-4 3 -4 10v69q0 6 6 4q70 -39 151 -39q75 0 111.5 35t36.5 86q0 72 -67 110t-220 51q-7 0 -7 6l-1 34q2 10 33.5 126t31.5 118q2 6 8 6h282q6 0 4 -6l-18 -63
q-1 -6 -8 -6z" />
    <glyph glyph-name="six.tabular" horiz-adv-x="505" 
d="M255 337q-73 0 -134 -49q-3 -18 -3 -44q0 -83 39.5 -131.5t102.5 -48.5q60 0 95 39t35 97q0 62 -36 99t-99 38zM418 641v-62q0 -5 -4 -5q-103 -18 -176.5 -74t-101.5 -141q64 46 142 46q86 0 141 -55t55 -146q0 -88 -58 -151t-159 -63q-103 0 -163 72t-60 183
q0 158 108 267t273 135q3 0 3 -6z" />
    <glyph glyph-name="seven.tabular" horiz-adv-x="505" 
d="M62 637h397q4 0 4 -5v-47q0 -5 -3 -12l-261 -568q-3 -5 -7 -5h-78q-6 0 -4 6l266 556h-326q-5 0 -5 6l11 65q1 4 6 4z" />
    <glyph glyph-name="eight.tabular" horiz-adv-x="505" 
d="M252 576q-52 0 -81 -29.5t-29 -75.5q0 -59 43 -95q8 -7 23 -7h91q15 0 25 9q37 37 37 89q0 51 -30 80t-79 29zM254 62q60 0 93 33t34 84q1 72 -57 110q-11 7 -23 7h-94q-11 0 -19 -5q-64 -36 -64 -108q0 -55 37 -88t93 -33zM254 647q88 0 137.5 -50.5t49.5 -121.5
q0 -87 -71 -139q95 -56 95 -160q0 -83 -60.5 -134.5t-155.5 -51.5q-96 0 -152.5 53t-56.5 134q0 99 95 154q-73 54 -73 144q0 71 51 121.5t141 50.5z" />
    <glyph glyph-name="nine.tabular" horiz-adv-x="505" 
d="M102 -3v61q0 5 6 6q96 24 161.5 78.5t92.5 125.5q-54 -32 -124 -32q-91 0 -147 54t-56 144q0 87 59.5 150t156.5 63t156.5 -70t59.5 -188q0 -82 -29.5 -152.5t-79.5 -120t-114 -82t-135 -44.5q-3 -1 -5 1.5t-2 5.5zM259 305q72 0 120 37q4 24 4 48q0 84 -36.5 134
t-99.5 50q-59 0 -93 -39.5t-34 -96.5q0 -67 39 -100t100 -33z" />
    <glyph glyph-name="dollar.tabular" horiz-adv-x="510" 
d="M294 5v-86q0 -6 -6 -6h-58q-5 0 -5 7v81q-92 0 -158 38q-6 3 -6 13v71q0 3 2.5 4.5t4.5 -0.5q71 -54 173 -54q61 0 96.5 24.5t35.5 64.5q0 38 -28 64.5t-108 59.5q-99 40 -135.5 81.5t-36.5 103.5q0 63 44 108t117 55v82q0 5 5 5h60q5 0 5 -5l1 -80q88 -3 128 -34
q4 -3 4 -8v-69q0 -7 -7 -4q-59 45 -154 45q-63 0 -94.5 -26t-31.5 -62q0 -35 26.5 -60t106.5 -58q104 -42 141.5 -86t37.5 -106q0 -71 -47.5 -113t-112.5 -50z" />
    <glyph glyph-name="cent.tabular" horiz-adv-x="510" 
d="M343 90v-92q0 -6 -5 -6h-58q-5 0 -5 6v93q-94 14 -147 76.5t-53 154.5q0 96 57.5 159t142.5 77v91q0 4 6 4h57q6 0 6 -4v-88q50 2 85 -15q4 -2 4 -8v-65q0 -6 -7 -5q-35 19 -98 19q-75 0 -122 -44t-47 -117q0 -80 52 -121t119 -41q57 0 98 16q5 3 5 -4v-62q0 -6 -6 -7
q-26 -15 -84 -17z" />
    <glyph glyph-name="sterling.tabular" horiz-adv-x="510" 
d="M459 0h-420q-5 0 -5 4v54q0 5 4 6q108 40 108 199v29h-87q-4 0 -4 6v49q0 5 5 5h83v54q0 117 54 179t147 62q60 0 90 -16q6 -5 6 -11v-63q0 -8 -7 -5q-37 19 -85 19q-122 0 -122 -160q0 -4 0.5 -24.5t0.5 -34.5h147q6 0 6 -5v-50q0 -5 -6 -5h-147q0 -80 -17.5 -130.5
t-58.5 -85.5h320q7 0 5 -6l-11 -65q-1 -5 -6 -5z" />
    <glyph glyph-name="currency.tabular" horiz-adv-x="510" 
d="M135 318q0 -65 36.5 -98.5t82.5 -33.5q50 0 85 31t35 99q0 54 -32 94t-89 40q-54 0 -86 -37t-32 -95zM69 317q0 63 36 112l-70 69q-3 3 0 8l34 34q3 5 8 0l69 -68q46 36 108 36q60 0 110 -36l70 67q3 5 8 0l33 -34q2 -4 -1 -7l-70 -69q36 -45 36 -113q0 -65 -33 -110
l67 -68q4 -4 0 -7l-33 -33q-5 -5 -8 0l-66 67q-45 -37 -113 -37q-66 0 -111 36l-64 -66q-6 -4 -9 -1l-33 33q-4 4 0 8l66 67q-34 48 -34 112z" />
    <glyph glyph-name="yen.tabular" horiz-adv-x="510" 
d="M288 0h-68q-7 1 -7 7v161h-131q-6 0 -6 6v44q0 5 6 5h131v68h-130q-7 0 -7 7v41q0 6 6 6h116l-178 287q-2 5 4 5h81q5 0 7 -4q131 -227 146 -264h2q3 8 7.5 17.5t15.5 30l23 42.5l39.5 71.5l55.5 101.5q2 5 7 5h79q6 0 3 -6l-175 -286h115q4 0 4 -5v-44q0 -5 -4 -5h-135
v-68h134q5 0 5 -4v-45q0 -6 -6 -6h-133v-162q-2 -6 -7 -6z" />
    <glyph glyph-name="Euro.tabular" horiz-adv-x="510" 
d="M474 77v-64q0 -6 -5 -8q-35 -15 -110 -15q-112 0 -185.5 72t-86.5 186h-49q-4 0 -4 5v37q0 5 4 5h44q0 40 2 60h-45q-5 0 -5 4v37q0 5 4 5h51q19 108 93.5 177t185.5 69q72 0 101 -14q6 -1 6 -9v-64q0 -7 -8 -4q-38 16 -99 16q-84 0 -135 -49t-62 -122h211q4 0 4 -4v-38
q0 -4 -4 -4h-216q-2 -19 -2 -60h218q4 0 4 -5v-36q0 -6 -5 -6h-211q11 -81 64.5 -131.5t134.5 -50.5q65 0 100 14q5 2 5 -3z" />
    <glyph glyph-name="zero.taboldstyle" horiz-adv-x="491" 
d="M247 530q97 0 153.5 -76t56.5 -194q0 -122 -57 -196t-154 -74q-55 0 -97.5 23.5t-67 63t-36.5 86t-12 96.5q0 118 58 194.5t156 76.5zM243 457q-59 0 -93 -53t-34 -142q0 -85 33.5 -142.5t98.5 -57.5q56 0 91 50t35 146q0 84 -31.5 141.5t-99.5 57.5z" />
    <glyph glyph-name="one.taboldstyle" horiz-adv-x="491" 
d="M402 0h-313q-5 0 -5 7v59q0 5 8 5h116v364q-42 -25 -98 -37q-7 -1 -7 6v56q0 6 6 7q63 14 112 49q3 4 10 4h56q5 0 5 -5v-444h108q8 0 8 -6v-58q0 -7 -6 -7z" />
    <glyph glyph-name="two.taboldstyle" horiz-adv-x="491" 
d="M419 0h-363q-5 0 -5 5v47q0 4 3 8q95 67 144 109q64 54 90.5 97t26.5 86q0 46 -29 74t-81 28q-64 0 -125 -38q-7 -4 -7 4v63q0 5 5 8q63 39 143 39q84 0 129.5 -47.5t45.5 -119.5q0 -59 -29 -108t-88 -103q-49 -44 -104 -83q36 3 143 3h113q5 0 4 -6l-9 -61q-1 -5 -7 -5z
" />
    <glyph glyph-name="three.taboldstyle" horiz-adv-x="491" 
d="M186 187h-40q-7 0 -7 6v59q0 6 6 6h28q62 0 99.5 26t37.5 77q0 43 -28.5 69t-80.5 26q-69 0 -119 -32q-6 -5 -6 3v61q0 6 4 9q60 33 135 33q84 0 130 -44t46 -112q0 -60 -30.5 -93.5t-67.5 -47.5v-1q49 -14 89 -52.5t40 -104.5q0 -86 -61.5 -137t-156.5 -51
q-85 0 -140 30q-5 2 -5 9v66q0 8 7 3q59 -35 133 -35q66 0 102 32t36 83q0 56 -41 84t-110 28z" />
    <glyph glyph-name="four.taboldstyle" horiz-adv-x="491" 
d="M306 66h-270q-5 0 -5 6v47q0 5 3 10l267 388q3 3 9 3h68q5 0 5 -5v-379h94q7 0 5 -6l-9 -58q-1 -6 -7 -6h-83v-157q0 -6 -6 -7q-9 -1 -25 -3l-27.5 -3.5t-13.5 -1.5q-5 0 -5 7v165zM119 135h187q0 243 3 290h-1q-23 -39 -189 -290z" />
    <glyph glyph-name="five.taboldstyle" horiz-adv-x="491" 
d="M151 520h257q6 0 5 -7l-16 -64q-3 -5 -9 -5h-192l-35 -139q135 -23 200.5 -77t65.5 -144t-61.5 -144t-157.5 -54q-82 0 -134 27q-5 2 -5 9l-1 67q0 4 3 5t4 -1q57 -33 131 -33q63 0 100.5 32t37.5 88q0 64 -55.5 103t-197.5 60q-6 1 -6 6v37l59 228q1 6 7 6z" />
    <glyph glyph-name="six.taboldstyle" horiz-adv-x="491" 
d="M248 347q-36 0 -71 -14.5t-56 -37.5q-4 -18 -4 -55q0 -80 36 -129t95 -49q61 0 94 41t33 102q0 66 -33 104t-94 38zM413 646v-60q0 -6 -5 -7q-108 -22 -176.5 -76.5t-95.5 -130.5q59 44 132 44q87 0 139 -57t52 -149q0 -88 -56 -154t-157 -66q-99 0 -156 71t-57 181
q0 164 105.5 273t269.5 135q5 2 5 -4z" />
    <glyph glyph-name="seven.taboldstyle" horiz-adv-x="491" 
d="M62 520h380q5 0 5 -4v-46q0 -6 -3 -12l-140 -303.5l-119 -256.5q-3 -5 -8 -5h-76q-6 0 -4 7l140.5 291l122.5 253h-312q-5 0 -4 6l12 66q1 4 6 4z" />
    <glyph glyph-name="eight.taboldstyle" horiz-adv-x="491" 
d="M244 576q-52 0 -80 -31t-28 -78q0 -60 43 -93q9 -8 28 -8h78q22 0 31 10q35 35 35 90q0 52 -31 81t-76 29zM246 62q57 0 90.5 31.5t33.5 85.5q0 70 -53 106q-12 9 -29 9h-85q-18 0 -25 -6q-60 -34 -60 -107q0 -55 36.5 -87t91.5 -32zM246 643q87 0 134.5 -50.5
t47.5 -121.5q0 -89 -67 -136q37 -21 64 -61.5t27 -96.5q0 -86 -60 -136.5t-149 -50.5q-92 0 -148.5 52t-56.5 132q0 99 89 155q-69 51 -69 141q0 71 50.5 122t137.5 51z" />
    <glyph glyph-name="nine.taboldstyle" horiz-adv-x="491" 
d="M95 -114v61q0 6 5 7q77 16 146.5 65t100.5 126q-49 -30 -112 -30q-96 0 -149.5 55t-53.5 145q0 87 56.5 150.5t156.5 63.5q96 0 152.5 -69.5t56.5 -182.5q0 -89 -33 -163.5t-86 -121.5t-112.5 -75t-120.5 -36q-7 -2 -7 5zM253 185q70 0 114 34q4 56 4 59
q0 79 -32.5 129.5t-96.5 50.5q-60 0 -93 -40.5t-33 -97.5q0 -64 38 -99.5t99 -35.5z" />
    <glyph glyph-name="a.superior" horiz-adv-x="338" 
d="M160 584q63 0 97 -33.5t33 -88.5v-174q0 -5 -5 -7q-63 -21 -123 -21q-61 0 -100 25.5t-39 75.5q0 42 31.5 67t75.5 32t98 3v8q0 59 -77 59q-49 0 -91 -21q-6 -2 -6 4v44q0 3 3 4q48 23 103 23zM85 363q0 -53 81 -53q33 0 62 9v99q-143 10 -143 -55z" />
    <glyph glyph-name="b.superior" horiz-adv-x="371" 
d="M195 584q67 0 108.5 -44t41.5 -108q0 -79 -50.5 -125.5t-129.5 -46.5q-61 0 -113 26q-4 3 -4 9l-1 424q0 5 5 5h56q6 0 6 -5v-153q36 18 81 18zM179 529q-37 0 -65 -15v-187q25 -13 57 -13q48 0 77 30t29 80q0 49 -27 77t-71 28z" />
    <glyph glyph-name="c.superior" horiz-adv-x="296" 
d="M271 323v-45q0 -5 -3 -7q-26 -11 -75 -11q-80 0 -123.5 47t-43.5 114q0 73 49.5 118t127.5 45q40 0 63 -9q4 -2 4 -7v-46q0 -6 -5 -4q-25 11 -58 11q-54 0 -83.5 -29t-29.5 -77q0 -50 31.5 -78.5t80.5 -28.5q34 0 61 10q4 1 4 -3z" />
    <glyph glyph-name="d.superior" horiz-adv-x="369" 
d="M200 260q-80 0 -127 42.5t-47 118.5q0 73 52 118t132 45q30 0 46 -6v141q0 5 5 5h56q4 0 4 -5v-428q0 -3 -5 -6q-55 -25 -116 -25zM256 324v198q-22 8 -47 8q-53 0 -84.5 -30t-31.5 -78q0 -54 31.5 -81t78.5 -27q31 0 53 10z" />
    <glyph glyph-name="e.superior" horiz-adv-x="336" 
d="M296 333v-42q0 -5 -3 -8q-39 -23 -105 -23q-80 0 -121 45.5t-41 114.5q0 72 41.5 118t112.5 46q66 0 100 -41.5t34 -96.5q0 -32 -6 -33q-12 -4 -115 -4h-103v-3q2 -38 28 -64t80 -26q52 0 93 21q5 1 5 -4zM91 452h113q45 0 47 4q1 1 1 8q0 11 -4 25t-22.5 29.5
t-48.5 15.5q-75 0 -86 -82z" />
    <glyph glyph-name="eacute.superior" horiz-adv-x="336" 
d="M144 629l61 93q1 4 7 4h58q6 0 2 -7l-68 -92q-3 -4 -8 -4h-49q-7 0 -3 6zM296 333v-42q0 -5 -3 -8q-39 -23 -105 -23q-80 0 -121 45.5t-41 114.5q0 72 41.5 118t112.5 46q66 0 100 -41.5t34 -96.5q0 -32 -6 -33q-12 -4 -115 -4h-103v-3q2 -38 28 -64t80 -26q52 0 93 21
q5 1 5 -4zM91 452h113q45 0 47 4q1 1 1 8q0 11 -4 25t-22.5 29.5t-48.5 15.5q-75 0 -86 -82z" />
    <glyph glyph-name="egrave.superior" horiz-adv-x="336" 
d="M155 722l61 -93q4 -6 -3 -6h-49q-5 0 -8 4l-68 92q-4 7 2 7h58q6 0 7 -4zM296 333v-42q0 -5 -3 -8q-39 -23 -105 -23q-80 0 -121 45.5t-41 114.5q0 72 41.5 118t112.5 46q66 0 100 -41.5t34 -96.5q0 -32 -6 -33q-12 -4 -115 -4h-103v-3q2 -38 28 -64t80 -26q52 0 93 21
q5 1 5 -4zM91 452h113q45 0 47 4q1 1 1 8q0 11 -4 25t-22.5 29.5t-48.5 15.5q-75 0 -86 -82z" />
    <glyph glyph-name="f.superior" horiz-adv-x="178" 
d="M114 266h-56q-5 0 -5 5v255h-45q-4 0 -4 4v44q0 3 5 3h44v17q0 68 29.5 101t77.5 33q26 0 37 -6q3 -1 3 -5v-45q0 -3 -1 -4t-3 0q-10 3 -24 3q-25 0 -39 -15.5t-14 -60.5v-18h63q4 0 4 -3v-45q0 -4 -4 -4h-63v-254q0 -5 -5 -5z" />
    <glyph glyph-name="g.superior" horiz-adv-x="326" 
d="M224 474q0 30 -19 47.5t-53 17.5q-30 0 -49.5 -17t-19.5 -45q0 -26 18.5 -43.5t51.5 -17.5q31 0 51 14t20 44zM264 221q0 44 -82 47l-70 2q-15 -7 -28 -22.5t-13 -27.5q0 -22 24 -39.5t70 -17.5q47 0 73 17t26 41zM326 562v-41q0 -4 -5 -4l-51 2q13 -18 13 -47
q0 -51 -37.5 -76.5t-90.5 -25.5q-16 0 -32 4q-7 -12 -7 -26q0 -11 7 -25l71 -3q132 -6 132 -89q0 -50 -47.5 -81.5t-117.5 -31.5q-66 0 -108 27.5t-42 72.5q0 37 61 82q-13 19 -13 44q0 23 13 42q-50 30 -50 88q0 48 35.5 79t97.5 31q33 0 77 -14q7 -3 18 -3h71q5 0 5 -5z
" />
    <glyph glyph-name="h.superior" horiz-adv-x="377" 
d="M48 271v448q0 5 6 5h54q5 0 5 -5v-173q48 38 105 38q44 0 77.5 -31t33.5 -95v-187q0 -5 -5 -5h-55q-6 0 -6 6v176q0 37 -18 57.5t-51 20.5q-44 0 -81 -34v-221q0 -5 -5 -5h-55q-5 0 -5 5z" />
    <glyph glyph-name="i.superior" horiz-adv-x="157" 
d="M46 272v300q0 5 6 5h55q5 0 5 -4v-302q0 -5 -6 -5h-53q-7 0 -7 6zM79 640q-16 0 -25.5 9.5t-9.5 25.5t10.5 25.5t25.5 9.5q16 0 26 -9.5t10 -25.5t-10 -25.5t-27 -9.5z" />
    <glyph glyph-name="j.superior" horiz-adv-x="156" 
d="M46 268v305q0 4 5 4h56q5 0 5 -4v-288q0 -107 -32 -139q-25 -27 -78 -27q-14 0 -19 2t-5 5v44q0 6 6 6q37 1 49.5 18t12.5 74zM78 640q-16 0 -25.5 9.5t-9.5 25.5t10.5 25.5t25.5 9.5q16 0 26 -9.5t10 -25.5t-10 -25.5t-27 -9.5z" />
    <glyph glyph-name="k.superior" horiz-adv-x="328" 
d="M186 431l154 -159q6 -6 -3 -6h-70q-6 0 -10 4l-143 150v-150q0 -4 -5 -4h-56q-5 0 -5 5v449q0 4 4 4h58q4 0 4 -5v-290l138 145q2 3 7 3h62q6 0 3 -6l-138 -135q-2 -3 0 -5z" />
    <glyph glyph-name="l.superior" horiz-adv-x="168" 
d="M48 343v376q0 5 5 5h56q5 0 5 -5v-369q0 -31 26 -31q7 0 13 1q1 1 1.5 0.5t0.5 -3.5v-45q0 -4 -2 -5q-9 -4 -34 -4q-71 0 -71 80z" />
    <glyph glyph-name="m.superior" horiz-adv-x="578" 
d="M108 266h-58q-4 0 -4 5v238q0 41 -2 65q0 3 5 3h51q4 0 6 -5q4 -24 4 -32q49 44 105 44q62 0 90 -49q53 49 115 49q42 0 76 -29t34 -94v-190q0 -5 -6 -5h-54q-6 0 -6 5v179q0 76 -66 76q-43 0 -79 -38q2 -16 2 -36v-180q0 -6 -6 -6h-54q-5 0 -5 5v183q0 72 -65 72
q-43 0 -79 -39v-216q0 -5 -4 -5z" />
    <glyph glyph-name="n.superior" horiz-adv-x="371" 
d="M46 271v233q0 49 -2 69q0 4 6 4h50q5 0 6 -3q2 -7 4 -33q46 43 103 43q42 0 76.5 -28.5t34.5 -96.5v-187q0 -6 -6 -6h-55q-5 0 -5 6v177q0 78 -67 78q-42 0 -80 -38v-218q0 -5 -4 -5h-56q-5 0 -5 5z" />
    <glyph glyph-name="o.superior" horiz-adv-x="370" 
d="M187 584q71 0 114 -45.5t43 -117.5q0 -74 -44 -117.5t-113 -43.5q-78 0 -119.5 48.5t-41.5 113.5q0 72 44.5 117t116.5 45zM186 531q-42 0 -66.5 -29.5t-24.5 -78.5q0 -45 24.5 -77.5t68.5 -32.5q38 0 64 27.5t26 80.5q0 43 -23 76.5t-69 33.5z" />
    <glyph glyph-name="p.superior" horiz-adv-x="365" 
d="M178 584q74 0 117.5 -43t43.5 -110q0 -80 -51 -125.5t-125 -46.5q-30 0 -50 7v-131q0 -6 -4 -6l-56 -5q-6 0 -6 5v398q0 10 -2 28q0 3 3 4q1 0 23.5 6.5t33 9t32.5 6t41 3.5zM171 531q-27 0 -58 -12v-196q21 -10 53 -10q46 0 76 30t30 82q0 49 -25.5 77.5t-75.5 28.5z
" />
    <glyph glyph-name="q.superior" horiz-adv-x="368" 
d="M183 260q-70 0 -113.5 43.5t-43.5 114.5q0 72 50 119t131 47q59 0 110 -21q5 -1 5 -5q-3 -24 -3 -29v-394q0 -4 -4 -5l-57 -6q-5 0 -5 4v146q-28 -14 -70 -14zM253 325v198q-20 9 -51 9q-51 0 -79.5 -30.5t-28.5 -80.5q0 -51 29.5 -79t72.5 -28q32 0 57 11z" />
    <glyph glyph-name="r.superior" horiz-adv-x="218" 
d="M48 577h52q5 0 6 -3q3 -11 5 -45q35 55 102 55q4 0 4 -6v-50q0 -5 -4 -5q-68 0 -100 -53v-199q0 -5 -5 -5h-56q-5 0 -5 5v219q0 47 -2 83q-1 4 3 4z" />
    <glyph glyph-name="s.superior" horiz-adv-x="261" 
d="M218 513q-35 20 -76 20q-54 0 -54 -36q0 -16 12 -25.5t49 -23.5q47 -17 70 -39t23 -57q0 -47 -36 -69.5t-86 -22.5q-52 0 -92 19q-4 2 -4 8v47q0 3 1 4t3 0q48 -26 94 -26q56 0 56 35q0 16 -12 27t-48 24q-49 18 -71 40.5t-22 56.5q0 39 31 64t85 25q52 0 79 -16
q4 -1 4 -6v-45q0 -7 -6 -4z" />
    <glyph glyph-name="t.superior" horiz-adv-x="201" 
d="M193 317v-43q0 -3 -5 -6q-19 -8 -52 -8q-84 0 -84 93v172h-54q-4 0 -4 4v45q0 3 5 3h53q3 73 5 86q0 4 4 5l54 11q6 1 6 -4q-3 -84 -3 -98h75q4 0 4 -4v-44q0 -4 -6 -4h-74v-161q0 -48 40 -48q18 0 31 4q5 2 5 -3z" />
    <glyph glyph-name="u.superior" horiz-adv-x="369" 
d="M319 574v-243q0 -32 4 -60q0 -5 -4 -5h-52q-7 0 -7 5q-3 9 -3 28q-45 -39 -104 -39q-42 0 -75 26t-33 87v200q0 4 5 4h58q3 0 3 -4v-183q0 -70 65 -70q47 0 77 34v219q0 4 5 4h57q4 0 4 -3z" />
    <glyph glyph-name="v.superior" horiz-adv-x="324" 
d="M196 266h-67q-5 0 -6 3l-116 304q-3 4 3 4h63q3 0 4 -3q77 -211 87 -247h1q22 69 87 247q1 3 5 3h56q5 0 4 -4l-115 -303q-1 -4 -6 -4z" />
    <glyph glyph-name="w.superior" horiz-adv-x="500" 
d="M383 266h-60q-6 0 -6 4q-59 214 -66 247h-1q-19 -82 -72 -247q-1 -4 -5 -4h-62q-5 0 -8 5l-90 302q-1 4 3 4h60q5 0 6 -3q64 -235 66 -246h1q10 45 69 245q2 5 5 5h62q3 0 6 -4q60 -219 64 -246h2q6 37 67 245q0 4 5 4h55q3 0 3 -4l-98 -303q-1 -4 -6 -4z" />
    <glyph glyph-name="x.superior" horiz-adv-x="305" 
d="M65 266h-60q-5 0 -3 5l106 149l-101 152q-3 5 2 5h65q5 0 7 -3l73 -116h1l75 116q3 3 6 3h59q6 0 2 -5l-103 -147l109 -154q5 -5 -3 -5h-65q-5 0 -7 4l-77 117h-1l-79 -118q-1 -3 -6 -3z" />
    <glyph glyph-name="y.superior" horiz-adv-x="329" 
d="M6 577h63q4 0 5 -4q84 -199 93 -224h1l93 225q1 3 5 3h56q6 0 3 -4q-46 -126 -125 -287q-53 -107 -77 -152q-2 -6 -8 -6l-63 -4q-7 0 -2 7q20 33 80 148q3 6 1 10l-129 283q-2 5 4 5z" />
    <glyph glyph-name="z.superior" horiz-adv-x="279" 
d="M263 266h-247q-4 0 -4 3v33q0 2 3 5l173 217q-4 0 -24 -0.5t-41 -0.5h-103q-5 0 -4 4l8 47q1 3 5 3h231q4 0 4 -2v-35q0 -4 -4 -7l-166 -213h74h105q5 0 5 -4l-10 -47q-2 -3 -5 -3z" />
    <glyph glyph-name="zero.superior" horiz-adv-x="347" 
d="M172 751q-38 0 -59.5 -36.5t-21.5 -101.5q0 -57 21 -97t64 -40t61 39t18 95q0 63 -20.5 102t-62.5 39zM175 422q-72 0 -108.5 54.5t-36.5 136.5q0 81 37.5 136t105.5 55q42 0 72.5 -20t44.5 -52.5t20 -61.5t6 -57q0 -76 -34 -133.5t-107 -57.5z" />
    <glyph glyph-name="one.superior" horiz-adv-x="254" 
d="M173 427h-57q-4 0 -4 5v303q-29 -12 -70 -24q-5 -1 -5 4v44q0 5 3 5q45 14 84 31q4 3 9 3h41q4 0 4 -4v-362q0 -5 -5 -5z" />
    <glyph glyph-name="two.superior" horiz-adv-x="326" 
d="M289 427h-258q-4 0 -4 4v36q0 2 3 5q103 75 132 102q55 55 56 100q0 31 -19 51t-59 20q-55 0 -99 -27q-6 -4 -6 3v48q0 5 5 7q47 28 111 28q63 0 96.5 -34.5t33.5 -86.5q0 -54 -37.5 -98.5t-111.5 -99.5h168q3 0 3 -4l-9 -50q-1 -4 -5 -4z" />
    <glyph glyph-name="three.superior" horiz-adv-x="323" 
d="M100 597v43q0 4 3 4h34q74 0 74 52t-75 52q-49 0 -93 -26q-5 -2 -5 3v47q0 3 3 6q44 26 108 26q57 0 89.5 -27t32.5 -69q0 -59 -54 -82v-1q30 -9 51 -31.5t21 -60.5q0 -53 -41.5 -82t-104.5 -29q-64 0 -107 24q-4 3 -4 7v50q0 5 4 3q49 -29 105 -29q43 0 64.5 16t21.5 41
q0 59 -91 59h-33q-3 0 -3 4z" />
    <glyph glyph-name="four.superior" horiz-adv-x="326" 
d="M246 427h-49q-4 0 -4 5v89h-172q-5 0 -5 4v32q0 4 3 7l168 230q4 4 8 4h51q4 0 4 -5v-224h63q4 0 3 -4l-6 -40q-1 -4 -4 -4h-56v-89q0 -5 -4 -5zM76 569h117q0 127 2 167h-1q-22 -37 -118 -167z" />
    <glyph glyph-name="five.superior" horiz-adv-x="319" 
d="M253 743h-133l-9.5 -36.5l-8.5 -32.5q95 -15 138 -47t43 -88q0 -55 -39 -86.5t-104 -31.5q-62 0 -107 25q-4 3 -4 8v48q0 6 5 3q52 -30 107 -30q41 0 62 17t21 43q0 38 -41 58.5t-137 35.5v20q2 10 11.5 45.5l18 66.5t8.5 33q1 4 4 4h179q6 0 4 -5l-12 -45q-1 -4 -6 -5z
" />
    <glyph glyph-name="six.superior" horiz-adv-x="332" 
d="M167 615q-47 0 -80 -26v-14q0 -48 23 -76t61 -28q35 0 55 20t20 52q0 35 -21 53.5t-58 18.5zM269 801v-45q0 -5 -4 -5q-73 -1 -116 -32t-53 -79q39 24 84 24q59 0 91.5 -33t32.5 -85t-36 -88.5t-98 -36.5q-66 0 -104 43t-38 116q0 96 63 159.5t175 64.5q3 0 3 -3z" />
    <glyph glyph-name="seven.superior" horiz-adv-x="317" 
d="M35 798h250q4 0 4 -5v-33q0 -4 -2 -8q-69 -149 -157 -321q-2 -4 -6 -4h-54q-6 0 -2 6l125 248l17.5 34l14.5 28h-195q-5 0 -5 5l5 46q1 4 5 4z" />
    <glyph glyph-name="eight.superior" horiz-adv-x="323" 
d="M160 756q-30 0 -46 -16t-16 -41q0 -31 22 -50q3 -4 14 -6h55q7 0 13 5q21 19 21 50q0 29 -18 43.5t-45 14.5zM162 472q34 0 52 16.5t18 41.5q0 34 -29 54q-7 5 -12 6h-62q-6 0 -10 -4q-30 -19 -30 -55q0 -27 20.5 -43t52.5 -16zM161 804q56 0 87 -31t31 -72
q0 -52 -44 -83q57 -30 57 -89q0 -48 -36 -77.5t-96 -29.5q-61 0 -95 31t-34 75q0 56 54 87q-46 31 -46 86q0 42 32 72.5t90 30.5z" />
    <glyph glyph-name="nine.superior" horiz-adv-x="328" 
d="M70 425v44q0 4 3 5q120 8 156 107q-28 -21 -73 -21q-59 0 -93.5 32.5t-34.5 85.5t36.5 89.5t98.5 36.5q61 0 98.5 -42.5t37.5 -116.5q0 -96 -63.5 -158t-160.5 -65q-5 -1 -5 3zM165 609q47 0 75 24q1 5 1 16q0 46 -20.5 75t-59.5 29q-36 0 -56 -20.5t-20 -52.5
q0 -35 22.5 -53t57.5 -18z" />
    <glyph glyph-name="period.superior" horiz-adv-x="100" 
d="M50 421q-17 0 -28.5 11.5t-11.5 28.5t11.5 28t28.5 11q18 0 29 -11t11 -28t-11.5 -28.5t-28.5 -11.5z" />
    <glyph glyph-name="comma.superior" horiz-adv-x="101" 
d="M44 351h-45q-6 0 -3 5q29 67 29 120q0 22 -2 46q0 4 2 4h53q4 0 6 -5q3 -9 3 -39q0 -68 -37 -128q-3 -3 -6 -3z" />
    <glyph glyph-name="dollar.superior" horiz-adv-x="321" 
d="M192 846v-51q52 -4 74 -22q3 -1 3 -7v-46q0 -6 -4 -2q-46 27 -98 27q-69 0 -69 -43q0 -19 15 -31t61 -30q68 -26 90.5 -52t22.5 -63t-25 -63t-71 -31v-55q0 -2 -3 -2h-46q-3 0 -3 3v51q-57 6 -96 28q-4 3 -4 8v49q0 7 5 4q52 -36 116 -38q69 0 69 43q0 20 -17.5 34
t-65.5 32q-59 22 -82.5 47t-23.5 62t26.5 62.5t73.5 32.5v53q0 3 3 3h47q2 0 2 -3z" />
    <glyph glyph-name="cent.superior" horiz-adv-x="311" 
d="M211 473v-55q0 -4 -4 -4h-44q-5 0 -5 4v55q-63 9 -95 47.5t-32 95.5q0 58 35.5 97t91.5 47v56q0 5 5 5h44q4 0 4 -5v-53q30 0 52 -11q3 -3 3 -6v-47q0 -5 -5 -2q-27 13 -67 13q-44 0 -71 -24.5t-27 -67.5q0 -44 28.5 -67.5t73.5 -23.5q40 0 65 12q4 1 4 -3v-45
q0 -5 -4 -6q-18 -10 -52 -12z" />
    <glyph glyph-name="hyphen.superior" horiz-adv-x="196" 
d="M171 591h-146q-4 0 -4 5v45q0 4 4 4h146q4 0 4 -4v-45q0 -5 -4 -5z" />
    <glyph glyph-name="parenleft.superior" horiz-adv-x="201" 
d="M33 616q0 145 96 252q3 3 8 3h49q5 0 2 -5q-100 -109 -100 -246q0 -149 98 -254q5 -5 -3 -5h-48q-5 0 -8 3q-40 40 -67 105t-27 147z" />
    <glyph glyph-name="parenright.superior" horiz-adv-x="201" 
d="M168 617q0 -79 -28.5 -144.5t-68.5 -107.5q-3 -4 -7 -4h-49q-2 0 -3 1.5t1 3.5q100 111 100 247q0 148 -98 254q-4 4 3 4h48q4 0 8 -2q39 -41 66.5 -106t27.5 -146z" />
    <glyph glyph-name="zero.inferior" horiz-adv-x="347" 
d="M172 173q-38 0 -59.5 -36.5t-21.5 -101.5q0 -57 21 -97t64 -40t61 39t18 95q0 63 -20.5 102t-62.5 39zM175 -156q-72 0 -108.5 54.5t-36.5 136.5q0 81 37.5 136t105.5 55q42 0 72.5 -20t44.5 -52.5t20 -61.5t6 -57q0 -76 -34 -133.5t-107 -57.5z" />
    <glyph glyph-name="one.inferior" horiz-adv-x="254" 
d="M173 -151h-57q-4 0 -4 5v303q-29 -12 -70 -24q-5 -1 -5 4v44q0 5 3 5q45 14 84 31q4 3 9 3h41q4 0 4 -4v-362q0 -5 -5 -5z" />
    <glyph glyph-name="two.inferior" horiz-adv-x="326" 
d="M289 -151h-258q-4 0 -4 4v36q0 2 3 5q103 75 132 102q56 54 56 100q0 31 -19 51t-59 20q-55 0 -99 -27q-6 -4 -6 3v48q0 5 5 7q47 28 111 28q63 0 96.5 -34.5t33.5 -86.5q0 -54 -37.5 -98.5t-111.5 -99.5h168q3 0 3 -4l-9 -50q-1 -4 -5 -4z" />
    <glyph glyph-name="three.inferior" horiz-adv-x="323" 
d="M100 19v43q0 4 3 4h34q74 0 74 52t-75 52q-49 0 -93 -26q-5 -2 -5 3v47q0 3 3 6q44 26 108 26q57 0 89.5 -27t32.5 -69q0 -59 -54 -82v-1q30 -9 51 -31.5t21 -60.5q0 -53 -41.5 -82t-104.5 -29q-64 0 -107 24q-4 3 -4 7v50q0 5 4 3q49 -29 105 -29q43 0 64.5 16t21.5 41
q0 59 -91 59h-33q-3 0 -3 4z" />
    <glyph glyph-name="four.inferior" horiz-adv-x="326" 
d="M246 -151h-49q-4 0 -4 5v89h-172q-5 0 -5 4v32q0 4 3 7l168 230q4 4 8 4h51q4 0 4 -5v-224h63q4 0 3 -4l-6 -40q-1 -4 -4 -4h-56v-89q0 -5 -4 -5zM76 -9h117q0 127 2 167h-1q-22 -37 -118 -167z" />
    <glyph glyph-name="five.inferior" horiz-adv-x="319" 
d="M253 165h-133l-9.5 -36.5l-8.5 -32.5q95 -15 138 -47t43 -88q0 -55 -39 -86.5t-104 -31.5q-62 0 -107 25q-4 3 -4 8v48q0 6 5 3q52 -30 107 -30q41 0 62 17t21 43q0 38 -41 58.5t-137 35.5v20q2 10 11.5 45.5l18 66.5t8.5 33q1 4 4 4h179q6 0 4 -5l-12 -45q-1 -4 -6 -5z
" />
    <glyph glyph-name="six.inferior" horiz-adv-x="332" 
d="M167 37q-47 0 -80 -26v-14q0 -48 23 -76t61 -28q35 0 55 20t20 52q0 35 -21 53.5t-58 18.5zM269 223v-45q0 -5 -4 -5q-73 -1 -116 -32t-53 -79q39 24 84 24q59 0 91.5 -33t32.5 -85t-36 -88.5t-98 -36.5q-66 0 -104 43t-38 116q0 96 63 159.5t175 64.5q3 0 3 -3z" />
    <glyph glyph-name="seven.inferior" horiz-adv-x="317" 
d="M35 220h250q4 0 4 -5v-33q0 -4 -2 -8q-69 -149 -157 -321q-2 -4 -6 -4h-54q-6 0 -2 6l125 248l17.5 34l14.5 28h-195q-5 0 -5 5l5 46q1 4 5 4z" />
    <glyph glyph-name="eight.inferior" horiz-adv-x="323" 
d="M160 178q-30 0 -46 -16t-16 -41q0 -31 22 -50q3 -4 14 -6h55q7 0 13 5q21 19 21 50q0 29 -18 43.5t-45 14.5zM162 -106q34 0 52 16.5t18 41.5q0 34 -29 54q-7 5 -12 6h-62q-6 0 -10 -4q-30 -19 -30 -55q0 -27 20.5 -43t52.5 -16zM161 226q56 0 87 -31t31 -72
q0 -52 -44 -83q57 -30 57 -89q0 -48 -36 -77.5t-96 -29.5q-61 0 -95 31t-34 75q0 56 54 87q-46 31 -46 86q0 42 32 72.5t90 30.5z" />
    <glyph glyph-name="nine.inferior" horiz-adv-x="328" 
d="M70 -153v44q0 4 3 5q120 8 156 107q-28 -21 -73 -21q-59 0 -93.5 32.5t-34.5 85.5t36.5 89.5t98.5 36.5q61 0 98.5 -42.5t37.5 -116.5q0 -96 -63.5 -158t-160.5 -65q-5 -1 -5 3zM165 31q47 0 75 24q1 5 1 16q0 46 -20.5 75t-59.5 29q-36 0 -56 -20.5t-20 -52.5
q0 -35 22.5 -53t57.5 -18z" />
    <glyph glyph-name="period.inferior" horiz-adv-x="100" 
d="M50 -157q-17 0 -28.5 11.5t-11.5 28.5t11.5 28t28.5 11q18 0 29 -11t11 -28t-11.5 -28.5t-28.5 -11.5z" />
    <glyph glyph-name="comma.inferior" horiz-adv-x="101" 
d="M44 -227h-45q-6 0 -3 5q29 67 29 120q0 22 -2 46q0 4 2 4h53q4 0 6 -5q3 -9 3 -39q0 -68 -37 -128q-3 -3 -6 -3z" />
    <glyph glyph-name="dollar.inferior" horiz-adv-x="321" 
d="M192 268v-51q52 -4 74 -22q3 -1 3 -7v-46q0 -6 -4 -2q-46 27 -98 27q-69 0 -69 -43q0 -19 15 -31t61 -30q68 -26 90.5 -52t22.5 -63t-25 -63t-71 -31v-55q0 -2 -3 -2h-46q-3 0 -3 3v51q-57 6 -96 28q-4 3 -4 8v49q0 7 5 4q52 -36 116 -38q69 0 69 43q0 20 -17.5 34
t-65.5 32q-59 22 -82.5 47t-23.5 62t26.5 62.5t73.5 32.5v53q0 3 3 3h47q2 0 2 -3z" />
    <glyph glyph-name="cent.inferior" horiz-adv-x="311" 
d="M211 -105v-55q0 -4 -4 -4h-44q-5 0 -5 4v55q-63 9 -95 47.5t-32 95.5q0 58 35.5 97t91.5 47v56q0 5 5 5h44q4 0 4 -5v-53q30 0 52 -11q3 -3 3 -6v-47q0 -5 -5 -2q-27 13 -67 13q-44 0 -71 -24.5t-27 -67.5q0 -44 28.5 -67.5t73.5 -23.5q40 0 65 12q4 1 4 -3v-45
q0 -5 -4 -6q-18 -10 -52 -12z" />
    <glyph glyph-name="hyphen.inferior" horiz-adv-x="196" 
d="M171 13h-146q-4 0 -4 5v45q0 4 4 4h146q4 0 4 -4v-45q0 -5 -4 -5z" />
    <glyph glyph-name="parenleft.inferior" horiz-adv-x="201" 
d="M33 38q0 145 96 252q3 3 8 3h49q5 0 2 -5q-100 -109 -100 -246q0 -149 98 -254q5 -5 -3 -5h-48q-5 0 -8 3q-40 40 -67 105t-27 147z" />
    <glyph glyph-name="parenright.inferior" horiz-adv-x="201" 
d="M168 39q0 -79 -28.5 -144.5t-68.5 -107.5q-3 -4 -7 -4h-49q-2 0 -3 1.5t1 3.5q100 111 100 247q0 148 -98 254q-4 4 3 4h48q4 0 8 -2q39 -41 66.5 -106t27.5 -146z" />
    <glyph glyph-name="zero.numerator" horiz-adv-x="347" 
d="M172 590q-38 0 -59.5 -36.5t-21.5 -101.5q0 -57 21 -97t64 -40t61 39t18 95q0 63 -20.5 102t-62.5 39zM175 261q-72 0 -108.5 54.5t-36.5 136.5q0 81 37.5 136t105.5 55q42 0 72.5 -20t44.5 -52.5t20 -61.5t6 -57q0 -76 -34 -133.5t-107 -57.5z" />
    <glyph glyph-name="one.numerator" horiz-adv-x="254" 
d="M173 266h-57q-4 0 -4 5v303q-29 -12 -70 -24q-5 -1 -5 4v44q0 5 3 5q45 14 84 31q4 3 9 3h41q4 0 4 -4v-362q0 -5 -5 -5z" />
    <glyph glyph-name="two.numerator" horiz-adv-x="326" 
d="M289 266h-258q-4 0 -4 4v36q0 2 3 5q103 75 132 102q56 54 56 100q0 31 -19 51t-59 20q-55 0 -99 -27q-6 -4 -6 3v48q0 4 5 7q47 28 111 28q63 0 96.5 -34.5t33.5 -86.5q0 -54 -37.5 -98.5t-111.5 -99.5h168q3 0 3 -4l-9 -50q-1 -4 -5 -4z" />
    <glyph glyph-name="three.numerator" horiz-adv-x="323" 
d="M100 436v43q0 4 3 4h34q74 0 74 52t-75 52q-49 0 -93 -26q-5 -3 -5 3v47q0 3 3 6q44 26 108 26q57 0 89.5 -27t32.5 -69q0 -59 -54 -82v-1q30 -9 51 -31.5t21 -60.5q0 -53 -41.5 -82t-104.5 -29q-64 0 -107 24q-4 3 -4 7v50q0 5 4 3q49 -29 105 -29q43 0 64.5 16t21.5 41
q0 59 -91 59h-33q-3 0 -3 4z" />
    <glyph glyph-name="four.numerator" horiz-adv-x="326" 
d="M246 266h-49q-4 0 -4 5v89h-172q-5 0 -5 4v32q0 4 3 7l168 230q4 4 8 4h51q4 0 4 -5v-224h63q4 0 3 -4l-6 -40q-1 -4 -4 -4h-56v-89q0 -5 -4 -5zM76 408h117q0 127 2 167h-1q-22 -37 -118 -167z" />
    <glyph glyph-name="five.numerator" horiz-adv-x="319" 
d="M253 582h-133l-9.5 -36.5l-8.5 -32.5q95 -15 138 -47t43 -88q0 -55 -39 -86.5t-104 -31.5q-62 0 -107 25q-4 3 -4 8v48q0 6 5 3q52 -30 107 -30q41 0 62 17t21 43q0 38 -41 58.5t-137 35.5v20q2 10 11.5 45.5l18 66.5t8.5 33q1 4 4 4h179q6 0 4 -5l-12 -45q-1 -4 -6 -5z
" />
    <glyph glyph-name="six.numerator" horiz-adv-x="332" 
d="M167 454q-47 0 -80 -26v-14q0 -48 23 -76t61 -28q35 0 55 20t20 52q0 35 -21 53.5t-58 18.5zM269 640v-45q0 -5 -4 -5q-73 -1 -116 -32t-53 -79q39 24 84 24q59 0 91.5 -33t32.5 -85t-36 -88.5t-98 -36.5q-66 0 -104 43t-38 116q0 96 63 159.5t175 64.5q3 0 3 -3z" />
    <glyph glyph-name="seven.numerator" horiz-adv-x="317" 
d="M35 637h250q4 0 4 -5v-33q0 -4 -2 -8q-69 -149 -157 -321q-2 -4 -6 -4h-54q-6 0 -2 6l125 248l17.5 34l14.5 28h-195q-5 0 -5 5l5 46q1 4 5 4z" />
    <glyph glyph-name="eight.numerator" horiz-adv-x="323" 
d="M160 595q-30 0 -46 -16t-16 -41q0 -31 22 -50q3 -4 14 -6h55q7 0 13 5q21 19 21 50q0 29 -18 43.5t-45 14.5zM162 311q34 0 52 16.5t18 41.5q0 34 -29 54q-7 5 -12 6h-62q-6 0 -10 -4q-30 -19 -30 -55q0 -27 20.5 -43t52.5 -16zM161 643q56 0 87 -31t31 -72
q0 -52 -44 -83q57 -30 57 -89q0 -48 -36 -77.5t-96 -29.5q-61 0 -95 31t-34 75q0 56 54 87q-46 31 -46 86q0 42 32 72.5t90 30.5z" />
    <glyph glyph-name="nine.numerator" horiz-adv-x="328" 
d="M70 264v44q0 4 3 5q120 8 156 107q-28 -21 -73 -21q-59 0 -93.5 32.5t-34.5 85.5t36.5 89.5t98.5 36.5q61 0 98.5 -42.5t37.5 -116.5q0 -96 -63.5 -158t-160.5 -65q-5 -1 -5 3zM165 448q47 0 75 24q1 5 1 16q0 46 -20.5 75t-59.5 29q-36 0 -56 -20.5t-20 -52.5
q0 -35 22.5 -53t57.5 -18z" />
    <glyph glyph-name="period.numerator" horiz-adv-x="100" 
d="M50 260q-17 0 -28.5 11.5t-11.5 28.5t11.5 28t28.5 11q18 0 29 -11t11 -28t-11.5 -28.5t-28.5 -11.5z" />
    <glyph glyph-name="comma.numerator" horiz-adv-x="101" 
d="M44 190h-45q-6 0 -3 5q29 67 29 120q0 22 -2 46q0 4 2 4h53q4 0 6 -5q3 -9 3 -39q0 -68 -37 -128q-3 -3 -6 -3z" />
    <glyph glyph-name="dollar.numerator" horiz-adv-x="321" 
d="M192 685v-51q52 -4 74 -22q3 -2 3 -7v-46q0 -6 -4 -2q-46 27 -98 27q-69 0 -69 -43q0 -19 15 -31t61 -30q68 -26 90.5 -52t22.5 -63t-25 -63t-71 -31v-55q0 -2 -3 -2h-46q-3 0 -3 3v51q-57 6 -96 28q-4 3 -4 8v49q0 7 5 4q52 -36 116 -38q69 0 69 43q0 20 -17.5 34
t-65.5 32q-59 22 -82.5 47t-23.5 62t26.5 62.5t73.5 32.5v53q0 3 3 3h47q2 0 2 -3z" />
    <glyph glyph-name="cent.numerator" horiz-adv-x="311" 
d="M211 312v-55q0 -4 -4 -4h-44q-5 0 -5 4v55q-63 9 -95 47.5t-32 95.5q0 58 35.5 97t91.5 47v56q0 5 5 5h44q4 0 4 -5v-53q30 0 52 -11q3 -3 3 -6v-47q0 -4 -5 -2q-27 13 -67 13q-44 0 -71 -24.5t-27 -67.5q0 -44 28.5 -67.5t73.5 -23.5q40 0 65 12q4 1 4 -3v-45
q0 -5 -4 -6q-18 -10 -52 -12z" />
    <glyph glyph-name="hyphen.numerator" horiz-adv-x="196" 
d="M171 430h-146q-4 0 -4 5v45q0 4 4 4h146q4 0 4 -4v-45q0 -5 -4 -5z" />
    <glyph glyph-name="parenleft.numerator" horiz-adv-x="201" 
d="M33 455q0 145 96 252q3 3 8 3h49q5 0 2 -5q-100 -109 -100 -246q0 -149 98 -254q5 -5 -3 -5h-48q-5 0 -8 3q-40 40 -67 105t-27 147z" />
    <glyph glyph-name="parenright.numerator" horiz-adv-x="201" 
d="M168 456q0 -79 -28.5 -144.5t-68.5 -107.5q-3 -4 -7 -4h-49q-2 0 -3 2t1 3q100 111 100 247q0 148 -98 254q-4 4 3 4h48q4 0 8 -2q39 -41 66.5 -106t27.5 -146z" />
    <glyph glyph-name="zero.denominator" horiz-adv-x="347" 
d="M172 299q-38 0 -59.5 -36.5t-21.5 -101.5q0 -58 21 -98t64 -40q42 0 60.5 39t18.5 96q0 63 -20.5 102t-62.5 39zM175 -31q-72 0 -108.5 55t-36.5 137q0 81 37.5 136t105.5 55q42 0 72.5 -20t44.5 -52.5t20 -61.5t6 -57q0 -48 -12 -89t-45.5 -72t-83.5 -31z" />
    <glyph glyph-name="one.denominator" horiz-adv-x="254" 
d="M173 -25h-57q-4 0 -4 5v303q-29 -12 -70 -24q-5 -1 -5 3v45q0 3 3 5q37 10 84 31q4 3 9 3h41q4 0 4 -5v-362q0 -4 -5 -4z" />
    <glyph glyph-name="two.denominator" horiz-adv-x="326" 
d="M289 -25h-258q-4 0 -4 3v36q0 3 3 6q107 76 139 109q49 50 49 93q0 31 -19 51t-59 20q-53 0 -99 -28q-6 -2 -6 3v48q0 6 5 8q44 27 111 28q63 0 96.5 -35t33.5 -87q0 -54 -37.5 -98t-111.5 -99h168q3 0 3 -4l-9 -51q-1 -3 -5 -3z" />
    <glyph glyph-name="three.denominator" horiz-adv-x="323" 
d="M100 144v43q0 5 3 5h34q74 0 74 51q0 53 -75 53q-47 0 -93 -26q-5 -2 -5 2v47q0 4 3 7q44 26 108 26q57 0 89.5 -27t32.5 -69q0 -59 -54 -82v-1q30 -9 51 -31.5t21 -60.5q0 -53 -41.5 -82.5t-104.5 -29.5q-62 0 -107 25q-4 1 -4 7v50q0 5 4 3q49 -29 105 -29
q43 0 64.5 16t21.5 41q0 59 -91 59h-33q-3 0 -3 3z" />
    <glyph glyph-name="four.denominator" horiz-adv-x="326" 
d="M246 -25h-49q-4 0 -4 5v89h-172q-5 0 -5 4v32q0 4 3 7l168 229q3 5 8 5h51q4 0 4 -6v-223h63q4 0 3 -4l-6 -40q-1 -4 -4 -4h-56v-89q0 -5 -4 -5zM76 117h117q0 127 2 167h-1q-22 -37 -118 -167z" />
    <glyph glyph-name="five.denominator" horiz-adv-x="319" 
d="M253 291h-133l-9.5 -36.5t-8.5 -33.5q94 -14 137.5 -46t43.5 -88t-39 -87.5t-104 -31.5q-64 0 -107 26q-4 1 -4 7v49q0 5 5 3q52 -30 107 -30q41 0 62 17t21 43q0 38 -41 58.5t-137 35.5v20q2 10 11.5 45.5l18 66.5t8.5 33q2 4 4 4h179q5 0 4 -6l-12 -44q-2 -5 -6 -5z
" />
    <glyph glyph-name="six.denominator" horiz-adv-x="332" 
d="M167 163q-45 0 -80 -26v-15q0 -47 23 -75.5t61 -28.5q35 0 55 20t20 52q0 35 -21 54t-58 19zM269 349v-45q0 -5 -4 -5q-73 -1 -116 -32t-53 -79q39 24 84 24q59 0 91.5 -33.5t32.5 -85.5q0 -51 -36 -88t-98 -37q-66 0 -104 43.5t-38 116.5q0 96 63 159.5t175 64.5
q3 0 3 -3z" />
    <glyph glyph-name="seven.denominator" horiz-adv-x="317" 
d="M35 346h250q4 0 4 -5v-33q0 -4 -2 -8q-69 -149 -157 -321q-1 -4 -6 -4h-54q-5 0 -2 6l125 248l32 62h-195q-5 0 -5 4l5 47q2 4 5 4z" />
    <glyph glyph-name="eight.denominator" horiz-adv-x="323" 
d="M160 304q-30 0 -46 -16t-16 -41q0 -31 22 -51q3 -3 14 -5h55q7 0 13 5q21 19 21 49q0 29 -18 44t-45 15zM162 19q34 0 52 16.5t18 41.5q0 35 -29 55q-7 5 -12 5h-62q-6 0 -10 -4q-30 -19 -30 -54q0 -27 21 -43.5t52 -16.5zM161 352q56 0 87 -31t31 -72q0 -54 -44 -83
q57 -30 57 -90q0 -48 -36 -77.5t-96 -29.5q-61 0 -95 31t-34 76q0 56 54 87q-46 30 -46 86q0 42 32 72.5t90 30.5z" />
    <glyph glyph-name="nine.denominator" horiz-adv-x="328" 
d="M70 -28v45q0 4 3 5q120 8 156 107q-26 -21 -73 -21q-59 0 -93.5 32.5t-34.5 85.5t36.5 89.5t98.5 36.5q61 0 98.5 -42.5t37.5 -116.5q0 -96 -63.5 -158t-160.5 -66q-5 0 -5 3zM165 157q48 0 75 24q1 5 1 16q0 46 -20.5 75t-59.5 29q-36 0 -56 -20.5t-20 -52.5
q0 -35 22.5 -53t57.5 -18z" />
    <glyph glyph-name="period.denominator" horiz-adv-x="100" 
d="M50 -31q-17 0 -28.5 11.5t-11.5 28.5t11.5 28t28.5 11q18 0 29 -11t11 -28t-11.5 -28.5t-28.5 -11.5z" />
    <glyph glyph-name="comma.denominator" horiz-adv-x="101" 
d="M44 -102h-45q-7 0 -3 6q29 67 29 120q0 23 -2 45q0 4 2 4h53q5 0 6 -4q3 -9 3 -40q0 -67 -37 -127q-4 -4 -6 -4z" />
    <glyph glyph-name="dollar.denominator" horiz-adv-x="321" 
d="M192 394v-51q52 -4 74 -22q3 -3 3 -7v-46q0 -5 -4 -3q-45 28 -98 28q-38 0 -53.5 -13t-15.5 -30q0 -19 15 -31t61 -30q68 -26 90.5 -52t22.5 -63t-24.5 -63t-71.5 -32v-55q0 -2 -3 -2h-46q-3 0 -3 3v52q-58 4 -96 28q-4 3 -4 7v50q0 6 5 4q50 -36 116 -38q69 -1 69 43
q0 20 -17.5 34t-65.5 32q-59 22 -82.5 46.5t-23.5 61.5t26.5 63t73.5 33v53q0 2 3 2h47q2 0 2 -2z" />
    <glyph glyph-name="cent.denominator" horiz-adv-x="311" 
d="M211 21v-56q0 -4 -4 -4h-44q-5 0 -5 5v55q-63 9 -95 47.5t-32 94.5q0 58 35.5 97t91.5 48v56q0 5 5 5h44q4 0 4 -5v-54q34 0 52 -11q3 -1 3 -5v-47q0 -5 -5 -3q-30 14 -67 14q-44 0 -71 -24.5t-27 -67.5q0 -44 28.5 -67.5t73.5 -23.5q39 0 65 11q4 3 4 -2v-45q0 -5 -4 -6
q-21 -12 -52 -12z" />
    <glyph glyph-name="hyphen.denominator" horiz-adv-x="196" 
d="M171 139h-146q-4 0 -4 5v45q0 4 4 4h146q4 0 4 -5v-45q0 -4 -4 -4z" />
    <glyph glyph-name="parenleft.denominator" horiz-adv-x="201" 
d="M33 163q0 146 96 253q5 3 8 3h49q5 0 2 -5q-100 -109 -100 -247q0 -148 98 -254q1 -2 -3 -4h-48q-5 0 -8 3q-39 39 -66.5 104.5t-27.5 146.5z" />
    <glyph glyph-name="parenright.denominator" horiz-adv-x="201" 
d="M168 165q0 -147 -97 -253q-3 -3 -7 -3h-49q-2 0 -3 1.5t1 3.5q100 109 100 247q0 148 -98 254q-4 4 3 4h48q5 0 8 -3q39 -40 66.5 -105t27.5 -146z" />
    <glyph glyph-name="at.cap" horiz-adv-x="835" 
d="M486 102l18 313q-18 5 -42 5q-68 0 -109 -47t-41 -118q0 -69 36.5 -112.5t105.5 -43.5q17 0 32 3zM577 462l-21 -353q22 5 45 17t49 36t42.5 67t16.5 99q0 124 -75.5 196.5t-194.5 72.5q-138 0 -229 -89.5t-91 -246.5q0 -220 187 -316q4 -3 4 -9l-1 -66q0 -7 -6 -4
q-120 47 -190 150t-70 241q0 178 111.5 292t288.5 114q146 0 242.5 -89t96.5 -240q0 -145 -92 -223.5t-227 -78.5q-102 0 -163 56t-61 161q0 104 67.5 169.5t165.5 65.5q65 0 100 -16q5 -1 5 -6z" />
    <glyph glyph-name="emdash.cap" horiz-adv-x="996" 
d="M79 360q0 5 5 5h828q5 0 5 -5v-53q0 -5 -5 -5h-826q-7 0 -7 5v53z" />
    <glyph glyph-name="endash.cap" horiz-adv-x="570" 
d="M79 362q0 6 5 6h404q5 0 5 -5v-54q0 -5 -6 -5h-403q-5 0 -5 5v53z" />
    <glyph glyph-name="hyphen.cap" horiz-adv-x="310" 
d="M267 300h-224q-5 0 -5 6v62q0 6 5 6h224q5 0 5 -6v-63q0 -5 -5 -5z" />
    <glyph glyph-name="exclamdown.cap" horiz-adv-x="226" 
d="M101 16q-29 0 -41 6q-4 2 -4 8v75q0 59 5.5 204t7.5 170q0 5 5 5h55q5 0 5 -5q2 -27 7 -170.5t5 -199.5v-77q0 -6 -4 -8q-13 -8 -41 -8zM102 695q23 0 37.5 -14t14.5 -36t-14.5 -36t-37.5 -14q-24 0 -38.5 14t-14.5 36q0 23 14.5 36.5t38.5 13.5z" />
    <glyph glyph-name="questiondown.cap" horiz-adv-x="353" 
d="M196 12q-80 0 -125.5 43.5t-45.5 110.5q0 74 65 141l16 16l17 17l14 14.5t13.5 16t8.5 14.5t7 16t2 15q0 30 -20 61q-4 6 4 6h60q6 0 10 -3q24 -29 24 -72q0 -23 -12.5 -46.5t-25 -37.5t-44.5 -46q-29 -30 -41.5 -52t-12.5 -50q0 -39 25 -62t74 -23q66 0 123 34q6 4 6 -3
v-67q0 -6 -3 -8q-55 -35 -139 -35zM187 693q23 0 37 -13.5t14 -37.5q0 -22 -14 -36.5t-37 -14.5t-37 14t-14 37t13.5 37t37.5 14z" />
    <glyph glyph-name="guillemotleft.cap" horiz-adv-x="540" 
d="M55 307v44q0 5 4 6l201 174q8 3 8 -4v-65q0 -6 -5 -10l-139 -124l140 -124q4 -4 4 -9v-68q0 -8 -8 -5l-201 177q-4 3 -4 8zM270 307v44q0 3 5 5l201 175q7 3 7 -4v-65q0 -6 -5 -10l-139 -124l139 -124q4 -3 4 -9v-68q0 -8 -7 -5l-201 177q-4 4 -4 8z" />
    <glyph glyph-name="guillemotright.cap" horiz-adv-x="540" 
d="M485 346v-43q0 -6 -4 -7l-201 -174q-8 -3 -8 5v64q0 6 5 10l139 124l-139 124q-5 5 -5 10v68q0 7 8 4l201 -177q4 -3 4 -8zM270 346v-43q0 -4 -5 -6l-201 -175q-6 -3 -6 5v64q0 7 4 10l139 124l-139 124q-4 4 -4 10v68q0 7 7 4l201 -177q4 -4 4 -8z" />
    <glyph glyph-name="guilsinglleft.cap" horiz-adv-x="325" 
d="M55 307v44q0 5 4 6l201 174q8 3 8 -4v-65q0 -6 -5 -10l-139 -124l140 -124q4 -4 4 -9v-68q0 -8 -8 -5l-201 177q-4 3 -4 8z" />
    <glyph glyph-name="guilsinglright.cap" horiz-adv-x="325" 
d="M271 346v-43q0 -5 -5 -7l-201 -174q-7 -4 -7 5v64q0 7 5 10l139 124l-140 124q-4 4 -4 10v68q0 7 7 4l202 -177q4 -4 4 -8z" />
    <glyph glyph-name="parenleft.cap" horiz-adv-x="334" 
d="M49 335q0 148 48 265t116 196q5 5 8 5h71q9 0 4 -8q-169 -208 -169 -457q0 -250 169 -459q5 -7 -4 -7h-71q-3 0 -8 5q-68 79 -116 196t-48 264z" />
    <glyph glyph-name="parenright.cap" horiz-adv-x="329" 
d="M283 334q0 -147 -47.5 -263t-115.5 -196q-5 -5 -9 -5h-70q-11 0 -4 7q169 211 169 458q0 248 -169 458q-6 8 4 8h70q4 0 9 -5q68 -79 115.5 -196t47.5 -266z" />
    <glyph glyph-name="braceleft.cap" horiz-adv-x="368" 
d="M29 297q-4 0 -4 6v58q0 4 4 4q69 0 95 24t27 76q0 21 -3.5 72t-3.5 73q0 30 8 56t27 53t58 45.5t94 23.5q5 2 5 -3v-52q0 -4 -4 -5q-69 -12 -93 -44t-24 -79q0 -21 3 -70t3 -71q0 -55 -22 -87t-71 -45v-2q96 -21 96 -136q0 -25 -4.5 -78t-4.5 -77q0 -49 27.5 -77.5
t90.5 -38.5q4 -1 4 -6v-52q0 -5 -5 -5q-97 9 -142.5 55.5t-45.5 117.5q0 26 5 77.5t5 76.5q0 54 -26.5 82t-98.5 28z" />
    <glyph glyph-name="braceright.cap" horiz-adv-x="368" 
d="M335 365q4 0 4 -6v-58q0 -4 -4 -4q-69 0 -95 -24t-27 -76q0 -21 3 -79t3 -79q0 -28 -7.5 -53.5t-26 -52.5t-57.5 -46t-95 -26q-5 0 -5 4v52q0 5 4 6q70 12 93.5 43.5t23.5 77.5q0 22 -3 76.5t-3 77.5q0 55 22 87t71 45v2q-96 21 -96 136q0 25 4.5 71t4.5 71
q0 99 -118 115q-4 0 -4 5v54q0 4 4 4q97 -7 142.5 -53.5t45.5 -118.5q0 -28 -4.5 -72.5t-4.5 -68.5q0 -54 26.5 -82t98.5 -28z" />
    <glyph glyph-name="bracketleft.cap" horiz-adv-x="300" 
d="M133 731v-792l133 -2q4 0 4 -5v-52q-1 -5 -5 -5h-193q-7 0 -7 8v903q0 7 8 7h191q5 0 5 -5v-51q0 -5 -5 -5z" />
    <glyph glyph-name="bracketright.cap" horiz-adv-x="309" 
d="M175 -62v791l-133 2q-4 0 -4 5v52q1 5 5 5h193q7 0 7 -8v-903q0 -7 -8 -7h-191q-5 0 -5 4v52q0 5 5 5z" />
    <glyph glyph-name="bullet.cap" horiz-adv-x="320" 
d="M72 336q0 37 23.5 62t64.5 25q40 0 63.5 -25t23.5 -62t-23 -61.5t-64 -24.5q-40 0 -64 24.5t-24 61.5z" />
    <glyph glyph-name="periodcentered.cap" horiz-adv-x="221" 
d="M111 283q-24 0 -39 14.5t-15 39.5q0 23 15 38.5t39 15.5t39 -15.5t15 -38.5q0 -24 -14.5 -39t-39.5 -15z" />
    <glyph glyph-name="uni00AD.cap" horiz-adv-x="310" 
d="M267 300h-224q-5 0 -5 6v62q0 6 5 6h224q5 0 5 -6v-63q0 -5 -5 -5z" />
    <glyph glyph-name="zero.sc" horiz-adv-x="511" 
d="M254 460q-58 0 -91 -54.5t-33 -145.5q0 -87 33.5 -143.5t95.5 -56.5t92 58.5t30 141.5q0 91 -32 145.5t-95 54.5zM258 -10q-105 0 -159 76t-54 195q0 116 56 192t155 76q59 0 102.5 -27t65.5 -70t32 -85.5t10 -85.5q0 -50 -10.5 -95.5t-33.5 -86t-65 -65t-99 -24.5z" />
    <glyph glyph-name="one.sc" horiz-adv-x="277" 
d="M114 6v433q-44 -23 -94 -34q-6 -1 -6 6v55q0 5 5 6q68 19 114 49q7 4 12 4h48q5 0 5 -5v-514q0 -6 -7 -6h-69q-8 0 -8 6z" />
    <glyph glyph-name="two.sc" horiz-adv-x="438" 
d="M392 0h-358q-6 0 -6 6v45q0 5 4 8q97 63 172 132q90 81 90 159q0 46 -28 75.5t-85 29.5q-64 0 -126 -37q-8 -5 -8 4v63q0 6 5 9q70 36 144 36q91 0 136 -49.5t45 -120.5q0 -102 -88 -183q-48 -47 -130 -110q57 3 250 4q5 0 4 -6l-14 -60q-1 -5 -7 -5z" />
    <glyph glyph-name="three.sc" horiz-adv-x="450" 
d="M127 243v59q0 6 7 6h40q117 0 117 74q0 76 -104 76q-68 0 -131 -36q-6 -3 -6 3v63q0 6 4 7q67 35 145 35q87 0 130.5 -38t43.5 -98q0 -45 -25 -73.5t-60 -40.5q45 -10 80 -42.5t35 -88.5q0 -72 -58.5 -115.5t-156.5 -43.5q-85 0 -147 31q-6 2 -6 10v66q0 7 7 4
q68 -39 142 -39q67 0 100.5 25.5t33.5 61.5q0 89 -139 89h-44q-8 0 -8 5z" />
    <glyph glyph-name="four.sc" horiz-adv-x="469" 
d="M32 132v48q0 4 3 11l242 328q3 5 8 5h83q4 0 4 -5v-330h77q7 0 5 -6l-9 -52q-1 -5 -8 -5h-65v-119q0 -7 -6 -7h-65q-6 0 -6 7v119h-256q-7 0 -7 6zM295 189v77q0 124 2 180h-1q-27 -47 -183 -257h182z" />
    <glyph glyph-name="five.sc" horiz-adv-x="452" 
d="M123 520h261q6 0 5 -6l-17 -61q-1 -6 -7 -6h-199q-6 -14 -32 -106q143 -14 207 -58.5t64 -126.5q0 -74 -57 -120t-156 -46q-83 0 -145 31q-5 3 -5 10v66q0 7 7 4q67 -39 144 -39q63 0 95 25.5t32 66.5q0 58 -57 85.5t-203 41.5q-5 0 -5 6v31q2 9 17 56.5l29.5 93.5
t14.5 48q2 4 7 4z" />
    <glyph glyph-name="six.sc" horiz-adv-x="496" 
d="M249 276q-35 0 -68 -12.5t-52 -31.5q-2 -12 -2 -29q0 -62 34.5 -103t91.5 -41q53 0 83.5 31t30.5 79q0 107 -118 107zM401 522v-56q0 -6 -6 -6q-95 -9 -161 -49.5t-91 -107.5q55 37 128 37q85 0 133 -47.5t48 -121.5q0 -75 -54 -128t-149 -53t-148.5 61.5t-53.5 156.5
q0 138 100.5 224.5t248.5 95.5q5 0 5 -6z" />
    <glyph glyph-name="seven.sc" horiz-adv-x="422" 
d="M33 520h356q6 0 6 -6v-44q0 -7 -2 -12q-150 -314 -223 -453q-2 -5 -8 -5h-76q-8 0 -5 7q191 359 227 440h-275q-7 0 -7 7l1 61q0 5 6 5z" />
    <glyph glyph-name="eight.sc" horiz-adv-x="482" 
d="M238 461q-48 0 -72 -23.5t-24 -57.5q0 -42 32 -69q11 -7 25 -7h84q16 0 25 8q31 25 31 67q0 41 -27.5 61.5t-73.5 20.5zM242 60q58 0 86 26.5t28 65.5q0 56 -50 80q-8 5 -21 5h-86q-12 0 -20 -4q-55 -20 -55 -81q0 -42 33 -67t85 -25zM240 529q83 0 127.5 -40.5
t44.5 -100.5q0 -75 -59 -111q84 -38 84 -131q0 -70 -55 -113t-143 -43q-91 0 -142.5 44.5t-51.5 110.5q0 85 80 127q-58 39 -58 115q0 59 45.5 100.5t127.5 41.5z" />
    <glyph glyph-name="nine.sc" horiz-adv-x="483" 
d="M102 -4v56q0 4 6 5q77 14 139.5 53.5t91.5 98.5q-44 -27 -112 -27q-82 0 -133.5 46t-51.5 122q0 74 53.5 127t145.5 53q88 0 142 -61.5t54 -160.5q0 -130 -92.5 -214t-235.5 -104q-7 0 -7 6zM243 247q74 0 112 31q3 15 3 34q0 64 -31 106.5t-91 42.5q-54 0 -83.5 -31.5
t-29.5 -76.5q0 -51 33.5 -78.5t86.5 -27.5z" />
    <glyph glyph-name="numbersign.sc" horiz-adv-x="492" 
d="M124 -7h-46q-6 0 -5 6l38 152h-70q-6 0 -6 6v50q0 4 6 4h86l28 114h-68q-4 0 -4 4v52q0 4 4 4h84l34 139q3 5 7 5h46q4 0 3 -6l-33 -138h99l34 140q1 4 5 4h46q6 0 5 -5l-34 -139h70q5 0 5 -5v-51q0 -4 -5 -4h-85l-28 -114h64q5 0 5 -4v-51q0 -5 -5 -5h-79l-37 -153
q-2 -5 -7 -5h-46q-5 0 -4 6l37 152h-100l-39 -153q-1 -5 -5 -5zM211 325l-28 -114h100l29 114h-101z" />
    <glyph glyph-name="dollar.sc" horiz-adv-x="471" 
d="M198 517v75q0 4 5 4h63q4 0 4 -3v-74q74 0 120 -28q5 -3 5 -9v-67q0 -6 -6 -4q-61 39 -150 39q-55 0 -77.5 -20.5t-22.5 -42.5q0 -28 24.5 -46t90.5 -39q98 -31 133 -68.5t35 -91.5q0 -59 -43 -96.5t-111 -42.5v-78q0 -3 -4 -3h-64q-3 0 -3 4v75q-83 4 -140 37
q-5 2 -5 11v67q0 6 6 3q77 -48 169 -48q58 0 85 18t27 46q0 31 -24.5 51t-98.5 44q-91 29 -125 64t-34 86q0 54 37.5 91t103.5 46z" />
    <glyph glyph-name="cent.sc" horiz-adv-x="463" 
d="M327 24v-92q0 -6 -5 -6h-58q-6 0 -6 6v93q-94 13 -147 76t-53 155q0 96 58 159t143 77v91q0 4 5 4h58q5 0 5 -5v-87q52 2 85 -15q5 -2 5 -8v-66q0 -8 -7 -4q-35 19 -98 19q-76 0 -122.5 -44t-46.5 -117q0 -80 51.5 -121t119.5 -41q57 0 97 16q5 2 5 -4v-62q0 -5 -5 -8
q-27 -14 -84 -16z" />
    <glyph glyph-name="sterling.sc" horiz-adv-x="448" 
d="M410 0h-375q-6 0 -6 5v51q0 4 5 7q93 36 93 153v18h-80q-6 0 -6 5v47q0 4 7 4h77v34q0 102 50 154t132 52q58 0 84 -14q5 -1 5 -7l-1 -63q0 -8 -7 -4q-33 15 -77 15q-107 0 -107 -133q0 -23 1 -34h134q5 0 5 -4v-47q0 -5 -5 -5h-133q-1 -111 -63 -161h281q6 0 5 -7
l-11 -60q-1 -6 -8 -6z" />
    <glyph glyph-name="currency.sc" horiz-adv-x="490" 
d="M123 248q0 -65 36.5 -98t82.5 -33q50 0 85 30.5t35 99.5q0 54 -32 94t-90 40q-53 0 -85 -37t-32 -96zM57 248q0 61 36 112l-70 68q-4 4 0 8l34 34q4 6 8 0l69 -67q45 35 108 35t109 -36l71 67q3 5 8 0l33 -33q2 -3 -1 -8l-70 -68q36 -49 36 -114t-33 -110l67 -68
q4 -4 0 -7l-33 -32q-3 -5 -9 -1l-65 68q-44 -37 -113 -37q-68 0 -112 35l-64 -66q-5 -5 -8 0l-33 32q-4 4 -1 9l67 66q-34 48 -34 113z" />
    <glyph glyph-name="yen.sc" horiz-adv-x="442" 
d="M256 0h-75q-4 0 -4 5v129h-109q-7 0 -7 4v35q0 6 7 6h109v55h-112q-4 0 -4 4v37q0 3 4 3h97l-158 236q-2 6 3 6h81q5 0 9 -4q116 -188 126 -208h2q14 31 124 208q3 4 8 4h76q7 0 4 -5l-161 -237h98q4 0 4 -3v-37q0 -4 -4 -4h-114v-55h113q5 0 5 -5v-35q0 -5 -5 -5h-113
v-129q0 -5 -4 -5z" />
    <glyph glyph-name="Euro.sc" horiz-adv-x="465" 
d="M432 73v-58q0 -7 -4 -8q-36 -17 -107 -17q-104 0 -168.5 58.5t-77.5 153.5h-50q-3 0 -3 4v33q0 3 2 3h47q0 31 1 45h-47q-3 0 -3 4v32q0 4 2 4h53q17 88 84 145t167 57q71 0 100 -14q5 -2 5 -7v-61q0 -7 -6 -5q-36 18 -97 18q-71 0 -114.5 -37.5t-55.5 -95.5h185
q3 0 3 -4v-33q0 -3 -3 -3h-192q-2 -31 -1 -45h193q3 0 3 -3v-34q0 -3 -4 -3h-187q11 -64 56.5 -102.5t116.5 -38.5q57 0 96 15q6 2 6 -3z" />
    <glyph glyph-name="percent.sc" horiz-adv-x="753" 
d="M597 513l-381 -510q-3 -3 -7 -3h-54q-5 0 -3 5l384 511q3 4 8 4h51q2 0 3 -2.5t-1 -4.5zM185 529q69 0 107.5 -44t38.5 -111q0 -62 -38 -108.5t-110 -46.5q-70 0 -108 44.5t-38 108.5q0 72 42 114.5t106 42.5zM103 375q0 -45 21.5 -73.5t61.5 -28.5q38 0 58.5 28t20.5 72
q0 48 -21.5 75t-60.5 27q-36 0 -58 -27t-22 -73zM569 301q70 0 108.5 -44.5t38.5 -110.5q0 -62 -37 -109t-111 -47q-71 0 -109 45t-38 109q0 69 42.5 113t105.5 44zM487 147q0 -44 21.5 -73t62.5 -29q38 0 59 28.5t21 71.5q0 47 -22 74.5t-60 27.5q-37 0 -59.5 -27
t-22.5 -73z" />
    <glyph glyph-name="parenleft.sc" horiz-adv-x="279" 
d="M45 250q0 122 40.5 222t97.5 170q3 4 8 4h64q7 0 3 -6q-140 -181 -140 -386q0 -222 136 -390q4 -4 -2 -6h-64q-5 0 -9 4q-57 63 -95.5 162.5t-38.5 225.5z" />
    <glyph glyph-name="parenright.sc" horiz-adv-x="279" 
d="M234 253q0 -121 -40.5 -221t-97.5 -171q-2 -3 -8 -3h-64q-6 0 -3 5q140 183 140 386q0 222 -137 389q-5 7 3 7l64 1q5 0 9 -5q56 -63 95 -163t39 -225z" />
    <glyph glyph-name="bracketleft.sc" horiz-adv-x="304" 
d="M67 -127v757q0 7 6 7h192q5 0 5 -5v-48q0 -5 -5 -5h-131v-653h132q5 0 5 -6v-49q0 -5 -6 -5h-191q-7 0 -7 7z" />
    <glyph glyph-name="bracketright.sc" horiz-adv-x="304" 
d="M244 -127q0 -7 -7 -7h-191q-5 0 -5 6v47q0 5 5 5h132l-1 654h-132q-5 0 -5 5v49q0 5 6 5h191q7 0 7 -7v-757z" />
    <glyph glyph-name="braceleft.sc" horiz-adv-x="337" 
d="M33 229v53q0 4 6 4q57 0 79.5 20.5t22.5 63.5q0 18 -3.5 66t-3.5 68q0 21 7.5 42.5t24 45t51 41t81.5 23.5q7 1 7 -4v-50q0 -6 -6 -8q-94 -20 -94 -96q0 -19 3.5 -65t3.5 -65q0 -89 -86 -111v-2q89 -21 89 -117q0 -21 -5 -68.5t-5 -67.5q0 -37 21.5 -58.5t74.5 -33.5
q4 0 4 -5v-53q0 -5 -5 -5q-88 10 -127 50t-39 97q0 24 5 70t5 66q0 46 -22 70.5t-83 24.5q-6 0 -6 4z" />
    <glyph glyph-name="braceright.sc" horiz-adv-x="337" 
d="M304 282v-53q0 -4 -6 -4q-57 0 -79.5 -20.5t-22.5 -64.5q-1 -19 3 -71.5t4 -69.5q0 -20 -7.5 -41t-24.5 -44.5t-51.5 -41.5t-81.5 -24q-7 -1 -7 3v51q0 6 6 7q94 21 94 97q0 19 -3.5 68.5t-3.5 68.5q0 89 87 111v1q-88 22 -90 118q0 21 5 64.5t5 63.5q0 38 -21 59.5
t-74 32.5q-5 1 -5 5v53q0 6 6 6q87 -10 126.5 -50t39.5 -97q0 -24 -5 -66.5t-5 -62.5q0 -46 22 -70.5t83 -24.5q6 0 6 -4z" />
    <glyph glyph-name="slash.sc" horiz-adv-x="221" 
d="M215 553l-143 -587q-1 -5 -6 -5h-54q-6 0 -4 6l142 586q2 5 6 5h55q4 0 4 -5z" />
    <glyph glyph-name="zero.sccyr" horiz-adv-x="547" 
d="M272 504q-65 0 -102.5 -57.5t-37.5 -163.5q0 -100 38 -160.5t107 -60.5q70 0 104 62.5t34 157.5q0 104 -37 163t-106 59zM276 -10q-113 0 -171.5 82.5t-58.5 211.5q0 124 60.5 208t166.5 84q65 0 113 -30t71 -77.5t33.5 -93.5t10.5 -91q0 -54 -11.5 -103t-36.5 -93.5
t-70.5 -71t-106.5 -26.5z" />
    <glyph glyph-name="one.sccyr" horiz-adv-x="304" 
d="M129 6v478q-50 -27 -106 -39q-6 0 -6 6v55q0 6 5 7q72 19 126 53q5 4 12 4h48q4 0 4 -4v-560q0 -6 -6 -6h-70q-7 0 -7 6z" />
    <glyph glyph-name="two.sccyr" horiz-adv-x="460" 
d="M419 0h-391q-7 0 -7 6v44q0 6 5 10q126 93 181 141q54 49 80.5 90.5t26.5 88.5q0 52 -32 85.5t-93 33.5q-71 0 -137 -38q-8 -5 -8 4v64q0 6 6 9q72 38 157 38q98 0 145.5 -54.5t47.5 -128.5q0 -103 -100 -202q-51 -50 -141 -120q26 1 129.5 1.5t147.5 0.5q6 0 5 -6
l-15 -61q-1 -6 -7 -6z" />
    <glyph glyph-name="three.sccyr" horiz-adv-x="475" 
d="M136 267v61q0 7 7 7h45q65 0 95.5 22.5t30.5 58.5q0 39 -30 62.5t-90 23.5q-66 0 -136 -34q-6 -2 -6 4v64q0 6 4 7q64 33 154 33q91 0 139 -41t48 -106q0 -48 -26 -79.5t-63 -43.5v-1q47 -12 84.5 -46t37.5 -96q0 -80 -64 -126.5t-164 -46.5q-97 0 -158 31q-7 3 -7 11v68
q0 9 8 5q70 -40 154 -40q72 0 108 28.5t36 70.5q0 98 -154 98h-45q-8 0 -8 5z" />
    <glyph glyph-name="four.sccyr" horiz-adv-x="499" 
d="M34 153v47q2 9 4 12l251 350q3 5 8 5h89q5 0 5 -5v-350h89q6 0 5 -5l-10 -55q-1 -5 -7 -5h-77v-140q0 -7 -7 -7h-65q-7 0 -7 7v140h-271q-7 0 -7 6zM312 212v87q0 136 4 192h-1q-30 -52 -194 -279h191z" />
    <glyph glyph-name="five.sccyr" horiz-adv-x="477" 
d="M133 567h278q6 0 5 -7l-14 -62q-1 -5 -8 -5h-214q-5 -14 -19 -64t-16 -56q141 -16 212 -63.5t71 -137.5q0 -82 -63 -132t-167 -50q-92 0 -149 32q-5 3 -5 10v68q0 8 7 4q65 -39 148 -39q70 0 106.5 29t36.5 73q0 64 -65.5 95t-207.5 47q-5 0 -5 6v31q3 15 31 110.5
l31 105.5q3 5 7 5z" />
    <glyph glyph-name="six.sccyr" horiz-adv-x="506" 
d="M257 303q-77 0 -126 -47q-2 -16 -2 -31q0 -74 35.5 -118.5t92.5 -44.5q55 0 88 34t33 88q0 56 -31.5 87.5t-89.5 31.5zM406 571v-57q0 -6 -6 -6q-202 -26 -257 -179q60 40 134 40q88 0 137 -52t49 -129q0 -81 -55.5 -139.5t-150.5 -58.5q-98 0 -154.5 68.5t-55.5 172.5
q0 142 97.5 236.5t255.5 108.5q6 2 6 -5z" />
    <glyph glyph-name="seven.sccyr" horiz-adv-x="453" 
d="M36 567h375q5 0 5 -6v-48q0 -7 -2 -12q-73 -162 -240 -496q-3 -5 -8 -5h-77q-9 0 -5 7l248 486h-297q-6 0 -6 6l1 62q0 6 6 6z" />
    <glyph glyph-name="eight.sccyr" horiz-adv-x="507" 
d="M250 506q-52 0 -79 -27t-27 -64q0 -49 35 -77q11 -7 25 -7h97q17 0 27 8q34 28 34 75q0 44 -31 68t-81 24zM254 60q63 0 93.5 30.5t30.5 75.5q0 64 -52 89q-7 4 -23 4h-97q-15 0 -21 -3q-25 -10 -41 -35t-16 -55q0 -48 35 -77t91 -29zM253 577q87 0 135.5 -44.5
t48.5 -110.5q0 -79 -63 -120q35 -17 60.5 -52.5t25.5 -89.5q0 -76 -58 -123t-151 -47q-96 0 -150.5 48t-54.5 120q0 88 83 138q-63 47 -63 124q0 66 49.5 111.5t137.5 45.5z" />
    <glyph glyph-name="nine.sccyr" horiz-adv-x="501" 
d="M114 -4v59q0 3 6 5q81 18 145.5 64t89.5 110q-47 -32 -119 -32q-86 0 -140 50t-54 131q0 80 56.5 136.5t150.5 56.5q93 0 149 -66t56 -171q0 -146 -97 -237.5t-237 -111.5q-6 0 -6 6zM256 271q77 0 116 34q2 24 2 38q0 67 -33.5 115t-96.5 48q-55 0 -87.5 -33.5
t-32.5 -83.5q0 -58 38 -88t94 -30z" />
    <glyph glyph-name="dollar.sccyr" horiz-adv-x="499" 
d="M207 562v78q0 5 5 5h65q4 0 4 -4v-77q87 -2 130 -32q5 -2 5 -10v-67q0 -3 -2 -4.5t-4 0.5q-65 44 -161 44q-59 0 -86 -23t-27 -51q0 -30 28 -51t97 -42q108 -33 147 -73t39 -101q0 -62 -47.5 -103.5t-119.5 -47.5v-82q0 -3 -5 -3h-66q-3 0 -3 5v78q-95 4 -154 43
q-7 5 -7 11v71q0 8 8 5q79 -60 182 -60q61 0 92.5 22t31.5 54q0 34 -26.5 56.5t-106.5 47.5q-100 30 -138 67.5t-38 94.5t42.5 98t114.5 51z" />
    <glyph glyph-name="zero.slashcap" 
d="M384 513l-209 -407q38 -46 94 -46q70 0 107.5 73t37.5 198q0 115 -30 182zM146 156l209 405q-36 41 -91 41q-65 0 -106.5 -68.5t-41.5 -199.5q0 -106 30 -178zM266 671q53 0 94 -21.5t66 -55t40.5 -79.5t21.5 -90.5t6 -93.5q0 -67 -12 -125.5t-37.5 -108t-70.5 -78.5
t-106 -29q-115 0 -174 95t-59 246q0 148 61 244t170 96z" />
    <glyph glyph-name="zero.cap" horiz-adv-x="545" 
d="M272 598q-63 0 -104 -68t-41 -196q0 -120 38.5 -195t110.5 -75q69 0 105.5 72t36.5 195q0 130 -38.5 198.5t-107.5 68.5zM275 -10q-115 0 -173.5 95t-58.5 246q0 148 61 244t170 96q53 0 94 -21.5t66 -55t40.5 -79.5t21.5 -90.5t6 -93.5q0 -67 -12 -125.5t-37.5 -108
t-71 -78.5t-106.5 -29z" />
    <glyph glyph-name="one.cap" horiz-adv-x="302" 
d="M201 0h-71q-7 0 -7 6v568q-39 -23 -98 -39q-6 -1 -6 5v58q0 6 5 7q62 19 118 56q4 4 14 4h46q5 0 5 -5v-654q0 -6 -6 -6z" />
    <glyph glyph-name="two.cap" horiz-adv-x="492" 
d="M443 0h-417q-6 0 -6 7v47q0 6 4 10q113 87 206 181q113 114 113 214q0 59 -35 96.5t-104 37.5q-79 0 -152 -46q-8 -5 -8 3v66q0 5 5 9q76 46 170 46q101 0 155 -58t54 -146q0 -124 -115 -243q-69 -73 -164 -152q110 2 175 2h137q7 0 6 -6l-16 -62q-2 -6 -8 -6z" />
    <glyph glyph-name="three.cap" horiz-adv-x="518" 
d="M204 311h-41q-7 0 -7 6v66q0 7 6 7h42q71 0 108 26.5t37 75.5q0 47 -32.5 75t-98.5 28q-76 0 -149 -43q-7 -4 -7 3v66q0 6 5 9q75 41 165 41q97 0 149.5 -47t52.5 -122q0 -104 -105 -143q54 -13 98 -54.5t44 -114.5q0 -94 -69 -147t-178 -53q-107 0 -175 38q-6 3 -6 10
v70q0 3 2.5 4.5t4.5 0.5q78 -46 169 -46q84 0 124 35t40 88q0 61 -49 91t-130 30z" />
    <glyph glyph-name="four.cap" horiz-adv-x="542" 
d="M339 177h-303q-6 0 -6 5v50q0 7 3 11l283 412q6 6 11 6h85q7 0 7 -7v-405h89q8 0 5 -7l-9 -60q-3 -5 -8 -5h-77v-171q0 -6 -6 -6h-68q-6 0 -6 6v171zM339 248v137q0 126 4 196h-1q-25 -46 -221 -333h218z" />
    <glyph glyph-name="five.cap" horiz-adv-x="517" 
d="M419 585h-234q-13 -45 -38 -154q165 -16 242.5 -73.5t77.5 -159.5q0 -90 -66.5 -149t-179.5 -59q-98 0 -166 35q-6 3 -6 10v70q0 3 2.5 4.5t4.5 -0.5q72 -42 161 -42q83 0 124 36.5t41 90.5q0 78 -73.5 117.5t-238.5 51.5q-7 0 -7 7l-1 34q2 11 34 130t32 120q2 7 8 7
h305q7 0 4 -7l-18 -62q-1 -7 -8 -7z" />
    <glyph glyph-name="six.cap" horiz-adv-x="544" 
d="M276 354q-88 0 -145 -55q-4 -14 -4 -45q0 -88 43.5 -139.5t109.5 -51.5q64 0 102 42t38 106q0 67 -39 105t-105 38zM447 667v-62q0 -5 -4 -6q-106 -18 -186 -76.5t-110 -149.5q63 50 150 50q94 0 150.5 -58t56.5 -150q0 -94 -60.5 -159.5t-166.5 -65.5q-105 0 -169 75
t-64 191q0 166 114.5 280t284.5 135q3 1 3.5 0t0.5 -4z" />
    <glyph glyph-name="seven.cap" horiz-adv-x="486" 
d="M45 661h408q6 0 6 -6v-46q0 -5 -3 -12l-113 -250l-158 -342q-3 -5 -8 -5h-79q-4 0 -3 6l275 579h-338q-4 0 -4 7l11 64q3 5 6 5z" />
    <glyph glyph-name="eight.cap" horiz-adv-x="534" 
d="M267 599q-56 0 -87.5 -31.5t-31.5 -78.5q0 -64 45 -98q12 -9 32 -9h87q20 0 31 10q40 35 40 94q0 53 -32.5 83t-83.5 30zM269 62q66 0 101.5 34.5t36.5 89.5q1 74 -65 116q-14 7 -30 7h-91q-15 0 -23 -5q-71 -38 -71 -115q0 -59 41 -93t101 -34zM268 671
q94 0 144.5 -51.5t50.5 -125.5q0 -96 -75 -145q103 -55 103 -166q0 -88 -63.5 -140.5t-163.5 -52.5q-102 0 -161.5 55t-59.5 139q0 103 102 160q-77 52 -77 148q0 74 53.5 126.5t146.5 52.5z" />
    <glyph glyph-name="nine.cap" horiz-adv-x="535" 
d="M105 -3v59q0 5 6 6q100 22 173 78.5t100 134.5q-53 -33 -129 -33q-95 0 -154.5 57t-59.5 151q0 93 62 157t163 64t162.5 -74t61.5 -198q0 -88 -34 -163t-89.5 -124.5t-121 -80.5t-133.5 -41q-4 -1 -5.5 1t-1.5 6zM275 313q80 0 129 38q3 36 3 45q0 93 -38.5 147.5
t-108.5 54.5q-61 0 -97.5 -39.5t-36.5 -102.5q0 -70 42.5 -106.5t106.5 -36.5z" />
    <glyph glyph-name="numbersign.cap" horiz-adv-x="545" 
d="M123 43h-46q-6 0 -4 6l49 175h-81q-5 0 -5 6v53q0 5 5 5h98l35 129h-82q-4 0 -4 5v54q0 5 4 5h100l44 157q3 5 7 5h47q6 0 4 -6l-44 -156h116l44 157q2 5 5 5h47q6 0 4 -6l-43 -156h78q5 0 5 -5v-54q0 -5 -5 -5h-96l-35 -129h77q5 0 5 -5v-54q0 -5 -5 -5h-93l-48 -176
q-2 -5 -8 -5h-46q-7 0 -4 6l48 175h-117l-49 -176q-1 -5 -7 -5zM232 417l-36 -129h117l36 129h-117z" />
    <glyph glyph-name="dollar.cap" horiz-adv-x="504" 
d="M286 4v-88q0 -6 -5 -6h-61q-5 0 -5 7v84q-105 3 -164 47q-6 5 -6 13v72q0 3 2 4.5t4 -0.5q76 -63 186 -63q65 0 98.5 25t33.5 68q0 40 -29.5 68.5t-110.5 62.5q-103 42 -141.5 84t-38.5 107q0 66 44.5 112.5t122.5 56.5v85q0 5 5 5h62q5 0 5 -5l2 -83q90 -5 133 -37
q4 -4 4 -7v-71q0 -9 -7 -5q-66 49 -165 49q-63 0 -94.5 -27.5t-31.5 -65.5q0 -37 29 -63t109 -59q107 -43 146.5 -89.5t39.5 -110.5q0 -73 -46.5 -116.5t-120.5 -53.5z" />
    <glyph glyph-name="cent.cap" horiz-adv-x="475" 
d="M323 94v-92q0 -5 -5 -5h-58q-6 0 -6 6v92q-94 14 -147 77t-53 154q0 96 58 159t143 77v91q0 5 5 5h58q5 0 5 -5v-88q52 2 85 -15q5 -2 5 -8v-65q0 -7 -7 -5q-35 19 -98 19q-76 0 -122.5 -43.5t-46.5 -117.5q0 -80 51.5 -121t119.5 -41q57 0 97 16q5 2 5 -4v-61
q0 -6 -5 -8q-27 -15 -84 -17z" />
    <glyph glyph-name="sterling.cap" horiz-adv-x="515" 
d="M463 0h-436q-6 0 -6 4v54q0 4 6 5q111 43 111 211v30h-90q-5 0 -5 6v51q0 5 6 5h87q-1 27 -1 60q0 119 55.5 182t151.5 63q61 0 96 -19q7 -3 7 -10v-64q0 -8 -7 -5q-39 23 -92 23q-126 0 -126 -167v-63h155q5 0 5 -5v-52q0 -5 -5 -5h-155q0 -84 -18.5 -137.5t-61.5 -90.5
h336q8 0 5 -6l-11 -65q-2 -5 -7 -5z" />
    <glyph glyph-name="currency.cap" horiz-adv-x="532" 
d="M142 329q0 -68 37.5 -102t86.5 -34q51 0 87 32t36 103q0 56 -33 97.5t-93 41.5q-55 0 -88 -38.5t-33 -99.5zM73 329q0 63 37 116l-72 72q-4 4 0 8l35 35q5 4 9 0l71 -70q47 37 112 37q64 0 114 -37l73 69q3 5 8 0l34 -34q4 -5 -1 -8l-72 -72q37 -48 37 -118
q0 -65 -34 -113l69 -71q6 -4 0 -7l-34 -34q-4 -6 -8 0l-69 70q-45 -39 -116 -39t-117 37l-66 -68q-4 -6 -9 -1l-34 34q-4 3 -1 8l70 70q-36 48 -36 116z" />
    <glyph glyph-name="yen.cap" horiz-adv-x="501" 
d="M280 0h-67q-8 1 -8 7v168h-131q-7 0 -7 6v44q0 7 7 7h131v71h-131q-7 0 -7 7v42q0 6 7 6h116l-185 297q-2 6 4 6h81q6 0 7 -4q141 -244 153 -270h2q4 10 151 268q4 6 8 6h75q6 0 4 -7l-182 -296h116q4 0 4 -5v-45q0 -5 -5 -5h-136v-71h136q5 0 5 -5v-46q0 -6 -6 -6h-135
v-169q-1 -6 -7 -6z" />
    <glyph glyph-name="Euro.cap" horiz-adv-x="520" 
d="M485 83v-64q0 -5 -6 -7q-35 -22 -122 -22q-116 0 -189.5 74.5t-87.5 193.5h-51q-5 0 -5 5v38q0 6 4 6h46q0 42 2 61h-47q-5 0 -5 5v38q0 5 5 5h52q19 113 95 184t191 71q75 0 113 -19q6 -3 6 -10v-65q0 -8 -7 -4q-43 24 -111 24q-86 0 -139 -52t-65 -129h219q5 0 5 -4
v-39q0 -5 -5 -5h-224q-2 -13 -2 -61h226q5 0 5 -6v-37q0 -6 -5 -6h-220q13 -85 67 -139t137 -54q68 0 112 22q6 2 6 -4z" />
    <glyph glyph-name="percent.cap" horiz-adv-x="816" 
d="M658 655l-436 -650q-2 -5 -10 -5h-56q-2 0 -3 2.5t1 4.5l437 650q4 4 10 4h55q4 -1 2 -6zM197 671q76 0 115.5 -50.5t39.5 -132.5q0 -75 -39.5 -130t-116.5 -55t-116.5 52t-39.5 131q0 83 45.5 134t111.5 51zM106 488q0 -54 24 -89.5t68 -35.5q41 0 64.5 33t23.5 92
q0 57 -23.5 91t-65.5 34q-40 0 -65.5 -33t-25.5 -92zM620 358q76 0 116 -50.5t40 -132.5q0 -74 -40 -129.5t-117 -55.5q-76 0 -116 52.5t-40 130.5q0 84 45 134.5t112 50.5zM529 174q0 -54 24 -89t68 -35q42 0 65 32.5t23 92.5q0 57 -23 90.5t-66 33.5q-40 0 -65.5 -33
t-25.5 -92z" />
    <glyph glyph-name="zero.slashtabularcap" 
d="M385 506l-204 -399q37 -43 89 -43q69 0 105.5 72t36.5 195q0 105 -27 175zM150 157l206 398q-37 43 -91 43q-63 0 -104 -68t-41 -196q0 -106 30 -177zM267 671q53 0 94 -21.5t66 -55t40.5 -79.5t21.5 -90.5t6 -93.5q0 -67 -12 -125.5t-37.5 -108t-70.5 -78.5t-106 -29
q-115 0 -174 95t-59 246q0 148 61 244t170 96z" />
    <glyph glyph-name="zero.tabularcap" 
d="M265 598q-63 0 -104 -68t-41 -196q0 -120 39 -195t111 -75q69 0 105.5 72t36.5 195q0 130 -39 198.5t-108 68.5zM269 -10q-115 0 -174 95t-59 246q0 148 61 244t170 96q53 0 94 -21.5t66 -55t40.5 -79.5t21.5 -90.5t6 -93.5q0 -67 -12 -125.5t-37.5 -108t-70.5 -78.5
t-106 -29z" />
    <glyph glyph-name="one.tabularcap" 
d="M318 74h134q5 0 5 -6v-62q0 -6 -6 -6h-359q-6 0 -6 6v62q0 6 6 6h143v499q-55 -31 -115 -44q-7 -1 -7 5v60q0 4 4 7q73 19 134 58q10 5 12 5h50q5 0 5 -6v-584z" />
    <glyph glyph-name="two.tabularcap" 
d="M462 0h-417q-5 0 -5 7v47q0 7 3 10q117 90 207 181q112 113 112 214q0 59 -35 96.5t-104 37.5q-79 0 -152 -46q-8 -5 -8 3v66q0 5 5 9q77 46 171 46q101 0 154.5 -58t53.5 -146q0 -124 -114 -243q-65 -68 -164 -152q110 2 174 2h137q8 0 6 -6l-15 -62q-2 -6 -9 -6z" />
    <glyph glyph-name="three.tabularcap" 
d="M209 311h-41q-6 0 -6 6v66q0 7 5 7h42q71 0 108.5 27t37.5 75q0 47 -32.5 75t-98.5 28q-76 0 -150 -43q-6 -3 -6 3v66q0 6 5 9q74 41 165 41q97 0 149 -46.5t52 -122.5q0 -104 -105 -143q33 -8 62.5 -24.5t55 -55t25.5 -89.5q0 -94 -69 -147t-178 -53q-107 0 -175 38
q-6 2 -6 10v70q0 9 6 5q79 -46 170 -46q84 0 124 35t40 88q0 61 -49.5 91t-130.5 30z" />
    <glyph glyph-name="four.tabularcap" 
d="M338 177h-303q-6 0 -6 5v50q0 7 3 11l283 412q6 6 11 6h85q7 0 7 -7v-405h89q9 0 5 -7l-9 -60q-3 -5 -8 -5h-77v-171q0 -6 -6 -6h-68q-6 0 -6 6v171zM338 248v137q0 126 4 196h-1q-25 -46 -221 -333h218z" />
    <glyph glyph-name="five.tabularcap" 
d="M424 585h-234q-13 -45 -38 -154q165 -16 242.5 -73.5t77.5 -159.5q0 -90 -66.5 -149t-179.5 -59q-98 0 -166 35q-6 3 -6 10v70q0 3 2.5 4.5t4.5 -0.5q72 -42 161 -42q84 0 124.5 36.5t40.5 90.5q0 78 -73.5 117.5t-238.5 51.5q-7 0 -7 7l-1 34q2 11 34 130t32 120
q2 7 8 7h305q7 0 4 -7l-18 -62q-1 -7 -8 -7z" />
    <glyph glyph-name="six.tabularcap" 
d="M269 354q-88 0 -145 -55q-4 -28 -4 -45q0 -88 43.5 -139.5t109.5 -51.5q64 0 102 42t38 106q0 67 -39 105t-105 38zM440 667v-62q0 -5 -4 -6q-106 -18 -186 -76.5t-110 -149.5q63 50 150 50q94 0 150.5 -58t56.5 -150q0 -94 -60.5 -159.5t-166.5 -65.5q-105 0 -169 75
t-64 191q0 166 114.5 280t284.5 135q3 1 3.5 0t0.5 -4z" />
    <glyph glyph-name="seven.tabularcap" 
d="M66 661h408q6 0 6 -6v-46q0 -2 -2 -12l-80 -176l-106 -233l-86 -183q-2 -5 -8 -5h-78q-6 0 -4 6l275 579h-337q-5 0 -5 7l11 64q2 5 6 5z" />
    <glyph glyph-name="eight.tabularcap" 
d="M265 600q-55 0 -87 -31.5t-32 -79.5q0 -65 45 -97q10 -9 32 -9h87q21 0 31 9q40 35 40 95q0 53 -32.5 83t-83.5 30zM267 63q66 0 101.5 34t36.5 89q1 76 -65 116q-16 8 -30 8h-91q-14 0 -23 -6q-71 -38 -71 -114q0 -59 41 -93t101 -34zM266 671q95 0 145 -51.5t50 -125.5
q0 -93 -74 -145q102 -55 102 -165q0 -89 -63.5 -141.5t-163.5 -52.5q-102 0 -161.5 55t-59.5 139q0 102 102 161q-77 51 -77 147q0 74 53.5 126.5t146.5 52.5z" />
    <glyph glyph-name="nine.tabularcap" 
d="M103 -3v59q0 4 6 6q100 22 173 78.5t100 134.5q-53 -33 -129 -33q-95 0 -154.5 57t-59.5 151q0 93 62.5 157t162.5 64q101 0 162.5 -74t61.5 -198q0 -88 -34 -163t-89.5 -124.5t-121 -80.5t-133.5 -41q-3 -1 -5 1.5t-2 5.5zM273 313q82 0 129 38q0 1 2 19.5t2 25.5
q0 93 -39 147.5t-109 54.5q-61 0 -97.5 -39.5t-36.5 -102.5q0 -70 42.5 -106.5t106.5 -36.5z" />
    <glyph glyph-name="dollar.tabularcap" 
d="M305 4v-88q0 -6 -6 -6h-60q-6 0 -6 7v84q-103 3 -164 47q-6 6 -6 13v72q0 9 7 4q76 -63 185 -63q66 0 99 25t33 68q0 40 -29.5 68.5t-110.5 62.5q-103 42 -141 84t-38 107q0 66 44.5 112.5t122.5 56.5v85q0 5 5 5h61q6 0 6 -5l2 -83q90 -5 132 -37q4 -3 4 -7v-71
q0 -9 -7 -5q-66 49 -164 49q-64 0 -95.5 -27.5t-31.5 -65.5q0 -37 29 -63t109 -59q108 -43 147 -89t39 -111q0 -73 -46 -117t-120 -53z" />
    <glyph glyph-name="cent.tabularcap" 
d="M343 101v-92q0 -5 -5 -5h-58q-5 0 -5 6v92q-94 14 -147 76.5t-53 154.5q0 96 57.5 159t142.5 77v91q0 5 6 5h57q5 0 5 -5v-88q51 2 86 -15q4 -3 4 -8v-65q0 -8 -7 -4q-36 18 -98 18q-76 0 -122.5 -43.5t-46.5 -117.5q0 -80 52 -121t119 -41q57 0 98 17q2 1 3.5 0t1.5 -5
v-61q0 -6 -6 -8q-27 -15 -84 -17z" />
    <glyph glyph-name="sterling.tabularcap" 
d="M476 0h-436q-5 0 -5 4v54q0 4 5 5q111 43 111 211v30h-89q-6 0 -6 6v51q0 5 6 5h87q0 15 -0.5 34t-0.5 26q0 119 55.5 182t151.5 63q63 0 96 -19q7 -3 7 -10v-64q0 -8 -7 -5q-39 23 -92 23q-126 0 -126 -167q0 -39 1 -63h154q6 0 6 -5v-52q0 -5 -6 -5h-155
q1 -83 -17.5 -137t-62.5 -91h336q8 0 5 -6l-11 -65q-1 -5 -7 -5z" />
    <glyph glyph-name="currency.tabularcap" 
d="M144 330q0 -65 36.5 -98t82.5 -33q50 0 85 30.5t35 99.5q0 54 -32 94t-89 40q-54 0 -86 -37t-32 -96zM78 330q0 63 36 112l-70 68q-3 4 0 8l34 35q4 5 8 -1l69 -67q45 35 108 35t110 -36l70 68q3 4 8 -1l33 -33q2 -3 -1 -8l-70 -68q36 -45 36 -114q0 -66 -33 -109l67 -68
q5 -3 0 -8l-33 -32q-5 -5 -8 0l-66 67q-43 -37 -113 -37q-68 0 -111 36l-64 -66q-5 -5 -9 -1l-33 32q-4 4 0 9l66 67q-34 47 -34 112z" />
    <glyph glyph-name="yen.tabularcap" 
d="M299 0h-68q-7 1 -7 7v168h-132q-6 0 -6 6v44q0 7 7 7h131v71h-131q-7 0 -7 7v42q0 6 7 6h116l-185 297q-2 6 4 6h81q5 0 7 -4q141 -244 153 -270h2q8 19 151 268q2 6 8 6h75q7 0 3 -7l-181 -296h115q5 0 5 -5v-45q0 -5 -5 -5h-136v-71h136q5 0 5 -5v-46q0 -6 -6 -6h-135
v-169q-1 -6 -7 -6z" />
    <glyph glyph-name="Euro.tabularcap" 
d="M487 83v-64q0 -5 -5 -7q-37 -22 -123 -22q-116 0 -189 74.5t-88 193.5h-51q-5 0 -5 5v38q0 6 4 6h46q0 42 2 61h-47q-5 0 -5 5v38q0 5 5 5h52q19 113 95 184t191 71q75 0 113 -19q6 -3 6 -10v-65q0 -8 -7 -4q-43 24 -111 24q-86 0 -139 -52t-65 -129h219q5 0 5 -4v-39
q0 -5 -5 -5h-224q-2 -13 -2 -61h226q5 0 5 -6v-37q0 -6 -5 -6h-220q14 -85 67.5 -139t136.5 -54q69 0 113 22q5 3 5 -4z" />
    <glyph glyph-name="upsilon.sc" horiz-adv-x="440" 
d="M258 0h-72q-6 0 -6 6v182q0 17 -6 28l-179 298q-4 6 3 6h83q7 0 9 -5l95 -166l42 -82h1l40 83l90 165q3 5 9 5h75q7 0 3 -6l-174 -298q-7 -12 -7 -26v-184q0 -6 -6 -6z" />
    <glyph glyph-name="uni04F3.sc" horiz-adv-x="496" 
d="M2 567h83q5 0 8 -4q152 -296 161 -318h1l156 316q2 6 8 6h73q8 0 5 -7l-287 -555q-2 -5 -12 -5h-75q-8 0 -3 7l86 161q3 6 0 11l-208 381q-2 7 4 7zM127 635l66 118q2 5 7 5h70q6 0 2 -6l-74 -120q-5 -5 -9 -5h-58q-8 0 -4 8zM296 633l68 121q3 4 7 4h70q7 0 3 -6
l-76 -120q-2 -4 -7 -4h-61q-6 0 -4 5z" />
    <glyph glyph-name="A.sc" horiz-adv-x="502" 
d="M339 157h-187l-54 -152q-1 -5 -7 -5h-69q-7 0 -5 7l170 477q4 26 4 31q1 5 5 5h92q6 0 8 -5l189 -509q3 -6 -5 -6h-75q-7 0 -8 6zM169 229h152q-7 24 -38 110.5t-39 112.5h-1q-6 -21 -74 -223z" />
    <glyph glyph-name="B.sc" horiz-adv-x="498" 
d="M78 8v505q0 5 5 7q44 2 157 2q107 0 150 -42t43 -99q0 -67 -52 -106q32 -14 56 -43.5t24 -75.5q0 -79 -62 -118.5t-168 -39.5q-99 0 -147 2q-6 1 -6 8zM158 240v-173q30 -2 81 -2q137 0 137 89q0 86 -140 86h-78zM158 453v-145h80q46 0 84 -8q32 26 32 69q-2 85 -119 85
q-58 0 -77 -1z" />
    <glyph glyph-name="C.sc" horiz-adv-x="465" 
d="M430 6q-42 -16 -116 -16q-55 0 -103 16t-87.5 47.5t-62 85t-22.5 122.5q0 114 78 191.5t206 77.5q73 0 107 -14q4 -2 4 -8v-63q0 -7 -6 -5q-41 17 -102 17q-91 0 -147.5 -51.5t-56.5 -142.5q0 -56 19.5 -97t51 -62t63.5 -30.5t66 -9.5q65 0 108 16q5 2 5 -4v-62
q0 -6 -5 -8z" />
    <glyph glyph-name="D.sc" horiz-adv-x="554" 
d="M78 8v504q0 7 6 7q84 3 148 3q138 0 210.5 -73.5t72.5 -184.5q0 -72 -27.5 -126t-72.5 -83t-94 -43t-101 -14q-66 0 -136 2q-6 0 -6 8zM162 453v-385q28 -2 62 -2q93 0 149.5 50.5t56.5 146.5q0 94 -55 143t-140 49q-41 0 -73 -2z" />
    <glyph glyph-name="E.sc" horiz-adv-x="448" 
d="M409 0h-324q-7 0 -7 7v507q0 6 7 6h310q5 0 6 -5l7 -60q2 -7 -6 -7h-242v-148h218q6 0 6 -5v-60q0 -6 -7 -6h-217v-157h260q6 0 5 -6l-9 -61q-2 -5 -7 -5z" />
    <glyph glyph-name="F.sc" horiz-adv-x="436" 
d="M161 216v-210q0 -6 -6 -6h-71q-6 0 -6 6v508q0 6 6 6h314q6 0 7 -6l6 -59q1 -7 -6 -7h-244v-161h219q5 0 5 -5v-59q0 -7 -6 -7h-218z" />
    <glyph glyph-name="G.sc" horiz-adv-x="544" 
d="M288 283h192q6 0 6 -8v-247q0 -9 -5 -11q-67 -27 -162 -27q-138 0 -209 77t-71 191q0 127 85 199.5t207 72.5q95 0 141 -23q4 -1 4 -9v-64q0 -7 -7 -4q-47 27 -136 27q-97 0 -153 -54.5t-56 -143.5q0 -84 52 -140t145 -56q50 0 83 11v139l-116 1q-5 1 -5 7v57q0 5 5 5z
" />
    <glyph glyph-name="H.sc" horiz-adv-x="574" 
d="M490 0h-72q-6 0 -6 6v228h-250v-228q0 -6 -6 -6h-72q-6 0 -6 6v509q0 5 6 5h73q5 0 5 -5v-207h250v207q0 5 6 5h72q6 0 6 -6v-508q0 -6 -6 -6z" />
    <glyph glyph-name="I.sc" horiz-adv-x="240" 
d="M162 514v-508q0 -6 -6 -6h-72q-6 0 -6 7v507q0 6 6 6h72q6 0 6 -6z" />
    <glyph glyph-name="J.sc" horiz-adv-x="273" 
d="M202 162q0 -116 -45.5 -160.5t-124.5 -44.5q-18 0 -34 4q-6 2 -6 10v59q0 6 7 5q16 -2 29 -2q51 0 71 31t20 99v352q0 5 4 5h75q4 0 4 -5v-353z" />
    <glyph glyph-name="K.sc" horiz-adv-x="491" 
d="M256 267l252 -261q4 -6 -3 -6h-92q-7 0 -10 5l-241 252l-1 1v-253q0 -5 -5 -5h-72q-6 0 -6 6v509q0 5 6 5h72q5 0 5 -5v-247l1 1l234 247q4 4 9 4h80q7 0 2 -8l-231 -239q-3 -3 0 -6z" />
    <glyph glyph-name="L.sc" horiz-adv-x="407" 
d="M394 0h-310q-5 0 -5 6v509q0 5 5 5h73q5 0 5 -5v-444h244q5 0 4 -5l-9 -61q-1 -5 -7 -5z" />
    <glyph glyph-name="M.sc" horiz-adv-x="691" 
d="M63 7l28 507q0 6 7 6h106q5 0 7 -5q100 -286 135 -421q16 81 143 420q2 6 8 6h106q6 0 6 -7l18 -507q0 -6 -6 -6h-73q-7 0 -7 7q-2 88 -3 251.5t-2 201.5h-2q-8 -26 -64 -192l-87 -262q-1 -6 -8 -6h-68q-8 0 -9 6l-142 457h-1q0 -98 -15 -456q0 -7 -6 -7h-65q-6 0 -6 7z
" />
    <glyph glyph-name="N.sc" horiz-adv-x="582" 
d="M149 0h-65q-6 0 -6 6v508q0 6 6 6h94q6 0 8 -5q211 -344 243 -427h2q-4 58 -4 131v295q0 6 6 6h65q5 0 5 -6v-508q0 -6 -6 -6h-92q-7 0 -10 6q-216 359 -242 435h-2q4 -60 4 -140v-295q0 -6 -6 -6z" />
    <glyph glyph-name="O.sc" horiz-adv-x="572" 
d="M285 529q107 0 177.5 -75.5t70.5 -190.5q0 -126 -68.5 -199t-179.5 -73q-106 0 -176 72.5t-70 196.5q0 121 69.5 195t176.5 74zM124 262q0 -88 45.5 -143t117.5 -55q76 0 118.5 53t42.5 144q0 88 -46 141.5t-119 53.5q-67 0 -113 -50.5t-46 -143.5z" />
    <glyph glyph-name="P.sc" horiz-adv-x="472" 
d="M78 6v507q0 6 5 6q75 3 140 3q111 0 163.5 -47.5t52.5 -123.5q1 -88 -61.5 -132t-156.5 -44q-25 0 -59 2v-171q0 -6 -6 -6h-72q-6 0 -6 6zM162 453v-208q36 -2 62 -2q23 0 43.5 4t41.5 14.5t33.5 33t12.5 54.5q0 51 -33 78.5t-95 27.5q-41 0 -65 -2z" />
    <glyph glyph-name="Q.sc" horiz-adv-x="572" 
d="M124 262q0 -88 45.5 -143t117.5 -55q76 0 118.5 53t42.5 144q0 88 -46 141.5t-119 53.5q-67 0 -113 -50.5t-46 -143.5zM548 -114h-96q-7 0 -11 4q-22 19 -111 104q-22 -3 -45 -3q-106 0 -176 72.5t-70 196.5q0 121 69.5 195t176.5 74t177.5 -75.5t70.5 -190.5
q0 -172 -121 -240q130 -124 137 -130q3 -2 2.5 -4.5t-3.5 -2.5z" />
    <glyph glyph-name="R.sc" horiz-adv-x="498" 
d="M154 0h-70q-6 0 -6 6v507q0 6 6 6q111 3 153 3q101 0 155.5 -41t54.5 -113q0 -101 -113 -136q7 -11 44 -64.5l69 -100t40 -60.5q5 -7 -4 -7h-84q-6 0 -9 5l-61 94l-67 103q-5 9 -16 9h-86v-205q0 -6 -6 -6zM160 278h79q124 0 124 86q0 43 -33 67t-92 24q-60 0 -78 -1
v-176z" />
    <glyph glyph-name="S.sc" horiz-adv-x="418" 
d="M191 -10q-85 0 -146 32q-5 4 -5 10v68q0 9 7 4q62 -43 147 -43q54 0 79 20t25 50q0 29 -23 51t-91 48q-80 31 -110 67.5t-29 88.5q0 62 48.5 102.5t131.5 40.5q82 0 126 -23q4 -2 4 -9v-64q0 -9 -7 -4q-50 30 -124 30q-53 0 -77 -21t-24 -49q0 -27 19.5 -46t74.5 -40
q97 -36 130 -74.5t33 -93.5q0 -63 -48.5 -104t-140.5 -41z" />
    <glyph glyph-name="T.sc" horiz-adv-x="444" 
d="M177 6v443h-165q-7 0 -6 7l9 59q1 5 6 5h403q5 0 6 -5l8 -60q1 -7 -5 -7h-173v-442q0 -6 -6 -6h-71q-6 0 -6 6z" />
    <glyph glyph-name="U.sc" horiz-adv-x="558" 
d="M154 514v-317q0 -63 33.5 -98t90.5 -35q54 0 90.5 30.5t36.5 101.5v318q0 6 6 6h72q5 0 5 -6v-324q0 -99 -59 -149.5t-154 -50.5q-96 0 -150.5 52t-54.5 146v326q0 6 6 6h72q6 0 6 -6z" />
    <glyph glyph-name="V.sc" horiz-adv-x="499" 
d="M255 76q29 96 153 439q1 5 8 5h70q8 0 4 -7l-188 -507q-2 -6 -8 -6h-84q-6 0 -9 6l-192 507q-5 7 4 7h76q7 0 8 -5q129 -348 158 -439z" />
    <glyph glyph-name="W.sc" horiz-adv-x="725" 
d="M417 515q83 -328 103 -439h2q2 9 10 53.5t28.5 142t54.5 243.5q2 5 7 5h74q6 0 4 -6l-129 -508q-3 -6 -9 -6h-83q-8 0 -9 7q-84 320 -105 434l-1 1q-16 -89 -114 -436q-1 -6 -9 -6h-80q-8 0 -9 7l-127 507q-1 6 5 6h77q5 0 6 -5q55 -227 97 -439h2q21 121 107 438
q1 6 8 6h83q6 0 7 -5z" />
    <glyph glyph-name="X.sc" horiz-adv-x="460" 
d="M444 514l-160 -249l171 -257q4 -8 -5 -8h-83q-7 0 -9 6l-132 211h-1l-130 -212q-3 -5 -9 -5h-77q-7 0 -3 7l165 255l-161 252q-4 6 4 6h83q6 0 8 -4l125 -206h1l126 205q3 5 9 5h74q8 0 4 -6z" />
    <glyph glyph-name="Y.sc" horiz-adv-x="440" 
d="M258 0h-72q-6 0 -6 6v182q0 17 -6 28l-179 298q-4 6 3 6h83q7 0 9 -5l95 -166l42 -82h1l40 83l90 165q3 5 9 5h75q7 0 3 -6l-174 -298q-7 -12 -7 -26v-184q0 -6 -6 -6z" />
    <glyph glyph-name="Z.sc" horiz-adv-x="441" 
d="M414 0h-389q-5 0 -5 5v45q0 5 4 10l291 388h-107h-173q-7 0 -6 6l11 60q2 6 7 6h363q6 0 6 -5v-48q0 -3 -4 -11l-286 -384q31 1 119 1h183q6 0 4 -7l-11 -62q-1 -4 -7 -4z" />
    <glyph glyph-name="Oslash.sc" horiz-adv-x="572" 
d="M402 406l-199 -321q38 -24 84 -24q77 0 120 54t43 146q0 91 -48 145zM167 118l200 318q-37 23 -84 23q-68 0 -114.5 -51.5t-46.5 -145.5q0 -88 45 -144zM473 521l-30 -48q90 -76 90 -210q0 -127 -68 -199.5t-180 -72.5q-68 0 -122 30l-19 -31q-3 -4 -10 -4h-43q-6 0 -3 5
l36 58q-85 74 -85 211q0 121 69.5 195t176.5 74q66 0 121 -30l15 24q3 4 7 4h42q7 0 3 -6z" />
    <glyph glyph-name="AE.sc" horiz-adv-x="664" 
d="M76 0h-71q-5 0 -3 6l239 509q1 5 8 5h349q6 0 6 -5l9 -60q0 -6 -5 -6h-235l17 -151h210q5 0 5 -5v-62q0 -4 -5 -4h-201l19 -156h229q5 -1 5 -5l-11 -61q0 -5 -7 -5h-279q-7 0 -7 6l-19 152h-173l-73 -154q-2 -4 -7 -4zM183 230h138q-26 220 -28 242h-2q-6 -20 -108 -242z
" />
    <glyph glyph-name="OE.sc" horiz-adv-x="747" 
d="M377 68v384q-19 4 -59 4q-86 0 -140 -51.5t-54 -143.5q0 -94 53.5 -145t141.5 -51q40 0 58 3zM405 520h289q6 0 7 -5l6 -60q2 -7 -5 -7h-243v-148h218q6 0 6 -5v-60q0 -6 -7 -6h-217v-157h261q5 0 5 -6l-9 -61q-2 -5 -7 -5h-291q-3 0 -16.5 -0.5t-37.5 -1.5t-50 -1
q-128 0 -201.5 71t-73.5 191q0 124 78.5 194t199.5 70q58 0 88 -3z" />
    <glyph glyph-name="Aacute.sc" horiz-adv-x="502" 
d="M339 157h-187l-54 -152q-1 -5 -7 -5h-69q-7 0 -5 7l170 477q4 26 4 31q1 5 5 5h92q6 0 8 -5l189 -509q3 -6 -5 -6h-75q-7 0 -8 6zM169 229h152q-7 24 -38 110.5t-39 112.5h-1q-6 -21 -74 -223zM188 593l118 119q3 5 10 5h79q9 0 3 -8l-126 -118q-5 -5 -12 -5h-68
q-8 0 -4 7z" />
    <glyph glyph-name="Acircumflex.sc" horiz-adv-x="502" 
d="M339 157h-187l-54 -152q-1 -5 -7 -5h-69q-7 0 -5 7l170 477q4 26 4 31q1 5 5 5h92q6 0 8 -5l189 -509q3 -6 -5 -6h-75q-7 0 -8 6zM169 229h152q-7 24 -38 110.5t-39 112.5h-1q-6 -21 -74 -223zM314 579l-71 75l-71 -76q-2 -2 -9 -2h-64q-3 0 -3.5 2t1.5 3l106 115
q3 2 7 2h66q6 0 9 -4l110 -114q4 -4 -3 -4h-69q-6 0 -9 3z" />
    <glyph glyph-name="Adieresis.sc" horiz-adv-x="502" 
d="M339 157h-187l-54 -152q-1 -5 -7 -5h-69q-7 0 -5 7l170 477q4 26 4 31q1 5 5 5h92q6 0 8 -5l189 -509q3 -6 -5 -6h-75q-7 0 -8 6zM169 229h152q-7 24 -38 110.5t-39 112.5h-1q-6 -21 -74 -223zM156 597q-20 0 -32.5 12.5t-12.5 33.5t13 34t33 13t32 -13t12 -34t-13 -33.5
t-32 -12.5zM340 597q-20 0 -32.5 12.5t-12.5 33.5t13 34t32 13q20 0 32.5 -13t12.5 -34q0 -20 -12.5 -33t-32.5 -13z" />
    <glyph glyph-name="Agrave.sc" horiz-adv-x="502" 
d="M339 157h-187l-54 -152q-1 -5 -7 -5h-69q-7 0 -5 7l170 477q4 26 4 31q1 5 5 5h92q6 0 8 -5l189 -509q3 -6 -5 -6h-75q-7 0 -8 6zM169 229h152q-7 24 -38 110.5t-39 112.5h-1q-6 -21 -74 -223zM171 714l116 -118q3 -8 -4 -8h-69q-7 0 -11 5l-127 119q-7 7 3 7h80
q8 0 12 -5z" />
    <glyph glyph-name="Aogonek.sc" horiz-adv-x="502" 
d="M171 231h149q-7 24 -37.5 109.5t-38.5 111.5h-1q-8 -28 -36.5 -114zM391 20l-52 137h-187l-54 -152q-1 -5 -7 -5h-69q-7 0 -5 7l170 477q4 26 4 31q1 5 5 5h92q6 0 8 -5l188 -506q3 -6 -2 -8q-90 -55 -90 -110q0 -24 17 -39.5t46 -15.5q27 0 52 11q7 1 7 -4v-43
q0 -8 -6 -11q-27 -15 -78 -15q-47 0 -81.5 24.5t-34.5 74.5q0 66 89 131q-8 1 -12 16z" />
    <glyph glyph-name="Aring.sc" horiz-adv-x="502" 
d="M339 157h-187l-54 -152q-1 -5 -7 -5h-69q-7 0 -5 7l170 477q4 26 4 31q1 5 5 5h92q6 0 8 -5l189 -509q3 -6 -5 -6h-75q-7 0 -8 6zM169 229h152q-7 24 -38 110.5t-39 112.5h-1q-6 -21 -74 -223zM144 643q0 41 27.5 66t71.5 25q43 0 71 -25t28 -66t-28 -66t-71 -25
q-44 0 -71.5 24.5t-27.5 66.5zM193 643q0 -22 14 -35t36 -13q21 0 35.5 13t14.5 35q0 23 -14.5 36.5t-35.5 13.5q-22 0 -36 -13.5t-14 -36.5z" />
    <glyph glyph-name="Cacute.sc" horiz-adv-x="465" 
d="M430 6q-42 -16 -116 -16q-55 0 -103 16t-87.5 47.5t-62 85t-22.5 122.5q0 114 78 191.5t206 77.5q73 0 107 -14q4 -2 4 -8v-63q0 -7 -6 -5q-41 17 -102 17q-91 0 -147.5 -51.5t-56.5 -142.5q0 -56 19.5 -97t51 -62t63.5 -30.5t66 -9.5q65 0 108 16q5 2 5 -4v-62
q0 -6 -5 -8zM215 594l118 119q3 5 10 5h79q9 0 3 -8l-127 -118q-4 -5 -11 -5h-68q-8 0 -4 7z" />
    <glyph glyph-name="Ccaron.sc" horiz-adv-x="465" 
d="M430 6q-42 -16 -116 -16q-55 0 -103 16t-87.5 47.5t-62 85t-22.5 122.5q0 114 78 191.5t206 77.5q73 0 107 -14q4 -2 4 -8v-63q0 -7 -6 -5q-41 17 -102 17q-91 0 -147.5 -51.5t-56.5 -142.5q0 -56 19.5 -97t51 -62t63.5 -30.5t66 -9.5q65 0 108 16q5 2 5 -4v-62
q0 -6 -5 -8zM220 705l71 -75l70 76q3 3 9 3h64q3 0 4 -2.5t-1 -3.5l-107 -114q-3 -3 -6 -3h-67q-6 0 -9 5l-110 113q-3 5 3 5h70q8 0 9 -4z" />
    </font>
</defs>
</svg>
